Neuton-SC-Extralight.ufo
<glyph name="exclam" format="1">
  <advance width="248"/>
  <unicode hex="0021"/>
  <outline>
    <contour>
      <point x="62" y="66" type="curve" smooth="yes"/>
      <point x="62" y="120"/>
      <point x="85" y="159"/>
      <point x="119" y="159" type="curve" smooth="yes"/>
      <point x="155" y="159"/>
      <point x="179" y="120"/>
      <point x="179" y="66" type="curve" smooth="yes"/>
      <point x="179" y="8"/>
      <point x="165" y="-33"/>
      <point x="120" y="-33" type="curve" smooth="yes"/>
      <point x="78" y="-33"/>
      <point x="62" y="12"/>
    </contour>
    <contour>
      <point x="68" y="1253" type="curve" smooth="yes"/>
      <point x="68" y="1280"/>
      <point x="101" y="1294"/>
      <point x="137" y="1294" type="curve" smooth="yes"/>
      <point x="164" y="1294"/>
      <point x="190" y="1284"/>
      <point x="190" y="1253" type="curve" smooth="yes"/>
      <point x="190" y="1084"/>
      <point x="168" y="683"/>
      <point x="141" y="360" type="curve"/>
      <point x="97" y="369" type="line"/>
      <point x="82" y="688"/>
      <point x="68" y="1141"/>
    </contour>
  </outline>
</glyph>
<glyph name="numbersign" format="1">
  <advance width="1065"/>
  <unicode hex="0023"/>
  <outline>
    <contour>
      <point x="18" y="246" type="line"/>
      <point x="39" y="323" type="line"/>
      <point x="799" y="323" type="line"/>
      <point x="778" y="246" type="line"/>
    </contour>
    <contour>
      <point x="75" y="556" type="line"/>
      <point x="97" y="633" type="line"/>
      <point x="859" y="633" type="line"/>
      <point x="840" y="556" type="line"/>
    </contour>
    <contour>
      <point x="200" y="-26" type="line"/>
      <point x="344" y="925" type="line"/>
      <point x="412" y="935" type="line"/>
      <point x="267" y="-19" type="line"/>
    </contour>
    <contour>
      <point x="464" y="-26" type="line"/>
      <point x="609" y="925" type="line"/>
      <point x="677" y="934" type="line"/>
      <point x="533" y="-19" type="line"/>
    </contour>
  </outline>
</glyph>
<glyph name="dollar" format="1">
  <advance width="641"/>
  <unicode hex="0024"/>
  <outline>
    <contour>
      <point x="280" y="1042" type="line"/>
      <point x="392" y="1060" type="line"/>
      <point x="380" y="891" type="line"/>
      <point x="296" y="891" type="line"/>
    </contour>
    <contour>
      <point x="44" y="134" type="curve" smooth="yes"/>
      <point x="44" y="179"/>
      <point x="67" y="213"/>
      <point x="122" y="217" type="curve"/>
      <point x="148" y="76"/>
      <point x="223" y="15"/>
      <point x="343" y="15" type="curve" smooth="yes"/>
      <point x="443" y="15"/>
      <point x="509" y="73"/>
      <point x="509" y="152" type="curve" smooth="yes"/>
      <point x="509" y="328"/>
      <point x="96" y="393"/>
      <point x="96" y="652" type="curve" smooth="yes"/>
      <point x="96" y="780"/>
      <point x="204" y="899"/>
      <point x="360" y="899" type="curve" smooth="yes"/>
      <point x="492" y="899"/>
      <point x="580" y="818"/>
      <point x="580" y="736" type="curve" smooth="yes"/>
      <point x="580" y="673"/>
      <point x="539" y="659"/>
      <point x="504" y="656" type="curve"/>
      <point x="480" y="781"/>
      <point x="405" y="851"/>
      <point x="325" y="851" type="curve" smooth="yes"/>
      <point x="241" y="851"/>
      <point x="181" y="799"/>
      <point x="181" y="698" type="curve" smooth="yes"/>
      <point x="181" y="475"/>
      <point x="599" y="420"/>
      <point x="599" y="199" type="curve" smooth="yes"/>
      <point x="599" y="70"/>
      <point x="483" y="-36"/>
      <point x="300" y="-36" type="curve" smooth="yes"/>
      <point x="163" y="-36"/>
      <point x="44" y="33"/>
    </contour>
    <contour>
      <point x="277" y="-197" type="line"/>
      <point x="289" y="-15" type="line"/>
      <point x="380" y="-6" type="line"/>
      <point x="392" y="-179" type="line"/>
    </contour>
  </outline>
</glyph>
<glyph name="percent" format="1">
  <advance width="1090"/>
  <unicode hex="0025"/>
  <outline>
    <contour>
      <point x="37" y="700" type="curve" smooth="yes"/>
      <point x="37" y="833"/>
      <point x="126" y="949"/>
      <point x="249" y="949" type="curve" smooth="yes"/>
      <point x="264" y="949"/>
      <point x="283" y="949"/>
      <point x="292" y="946" type="curve"/>
      <point x="284" y="897" type="line"/>
      <point x="270" y="906"/>
      <point x="268" y="910"/>
      <point x="249" y="910" type="curve" smooth="yes"/>
      <point x="164" y="910"/>
      <point x="127" y="786"/>
      <point x="127" y="698" type="curve" smooth="yes"/>
      <point x="127" y="606"/>
      <point x="176" y="496"/>
      <point x="251" y="496" type="curve" smooth="yes"/>
      <point x="335" y="496"/>
      <point x="381" y="606"/>
      <point x="381" y="700" type="curve" smooth="yes"/>
      <point x="381" y="800"/>
      <point x="343" y="897"/>
      <point x="326" y="933" type="curve"/>
      <point x="822" y="948" type="line"/>
      <point x="832" y="897" type="line"/>
      <point x="422" y="897" type="line"/>
      <point x="451" y="864"/>
      <point x="472" y="738"/>
      <point x="472" y="698" type="curve" smooth="yes"/>
      <point x="472" y="562"/>
      <point x="369" y="451"/>
      <point x="251" y="451" type="curve" smooth="yes"/>
      <point x="124" y="451"/>
      <point x="37" y="549"/>
    </contour>
    <contour>
      <point x="160" y="-33" type="line"/>
      <point x="506" y="459" type="line"/>
      <point x="822" y="948" type="line"/>
      <point x="927" y="943" type="line"/>
      <point x="927" y="941" type="line"/>
      <point x="585" y="463" type="line"/>
      <point x="270" y="-37" type="line"/>
    </contour>
    <contour>
      <point x="611" y="212" type="curve" smooth="yes"/>
      <point x="611" y="345"/>
      <point x="701" y="463"/>
      <point x="824" y="463" type="curve" smooth="yes"/>
      <point x="966" y="463"/>
      <point x="1049" y="352"/>
      <point x="1049" y="211" type="curve" smooth="yes"/>
      <point x="1049" y="78"/>
      <point x="945" y="-36"/>
      <point x="827" y="-36" type="curve" smooth="yes"/>
      <point x="700" y="-36"/>
      <point x="611" y="63"/>
    </contour>
    <contour>
      <point x="704" y="212" type="curve" smooth="yes"/>
      <point x="704" y="120"/>
      <point x="752" y="7"/>
      <point x="827" y="7" type="curve" smooth="yes"/>
      <point x="911" y="7"/>
      <point x="957" y="118"/>
      <point x="957" y="215" type="curve" smooth="yes"/>
      <point x="957" y="309"/>
      <point x="900" y="425"/>
      <point x="824" y="425" type="curve" smooth="yes"/>
      <point x="739" y="425"/>
      <point x="704" y="300"/>
    </contour>
  </outline>
</glyph>
<glyph name="ampersand" format="1">
  <advance width="974"/>
  <unicode hex="0026"/>
  <outline>
    <contour>
      <point x="50" y="180" type="curve" smooth="yes"/>
      <point x="50" y="445"/>
      <point x="511" y="479"/>
      <point x="511" y="726" type="curve" smooth="yes"/>
      <point x="511" y="805"/>
      <point x="462" y="880"/>
      <point x="369" y="880" type="curve" smooth="yes"/>
      <point x="293" y="880"/>
      <point x="239" y="833"/>
      <point x="239" y="758" type="curve" smooth="yes"/>
      <point x="239" y="662"/>
      <point x="315" y="575"/>
      <point x="412" y="468" type="curve" smooth="yes"/>
      <point x="594" y="269" type="line" smooth="yes"/>
      <point x="741" y="109"/>
      <point x="793" y="73"/>
      <point x="880" y="47" type="curve" smooth="yes"/>
      <point x="927" y="34" type="line"/>
      <point x="921" y="-3" type="line"/>
      <point x="878" y="-18"/>
      <point x="863" y="-20"/>
      <point x="826" y="-20" type="curve" smooth="yes"/>
      <point x="771" y="-20"/>
      <point x="695" y="0"/>
      <point x="597" y="109" type="curve" smooth="yes"/>
      <point x="293" y="446" type="line" smooth="yes"/>
      <point x="223" y="524"/>
      <point x="151" y="618"/>
      <point x="151" y="713" type="curve" smooth="yes"/>
      <point x="151" y="824"/>
      <point x="261" y="934"/>
      <point x="388" y="934" type="curve" smooth="yes"/>
      <point x="526" y="934"/>
      <point x="605" y="852"/>
      <point x="605" y="752" type="curve" smooth="yes"/>
      <point x="605" y="484"/>
      <point x="164" y="461"/>
      <point x="164" y="216" type="curve" smooth="yes"/>
      <point x="164" y="109"/>
      <point x="230" y="47"/>
      <point x="332" y="47" type="curve" smooth="yes"/>
      <point x="478" y="47"/>
      <point x="608" y="178"/>
      <point x="725" y="420" type="curve"/>
      <point x="601" y="450" type="line"/>
      <point x="604" y="483" type="line"/>
      <point x="945" y="483" type="line"/>
      <point x="941" y="450" type="line"/>
      <point x="800" y="423" type="line"/>
      <point x="656" y="160"/>
      <point x="540" y="-20"/>
      <point x="291" y="-20" type="curve" smooth="yes"/>
      <point x="113" y="-20"/>
      <point x="50" y="87"/>
    </contour>
  </outline>
</glyph>
<glyph name="parenleft" format="1">
  <advance width="461"/>
  <unicode hex="0028"/>
  <outline>
    <contour>
      <point x="428" y="1213" type="curve"/>
      <point x="404" y="1256" type="line"/>
      <point x="338" y="1199"/>
      <point x="66" y="981"/>
      <point x="66" y="455" type="curve" smooth="yes"/>
      <point x="66" y="-61"/>
      <point x="347" y="-328"/>
      <point x="398" y="-374" type="curve"/>
      <point x="426" y="-342" type="line"/>
      <point x="381" y="-269"/>
      <point x="179" y="40"/>
      <point x="179" y="456" type="curve" smooth="yes"/>
      <point x="179" y="881"/>
      <point x="343" y="1100"/>
    </contour>
  </outline>
</glyph>
<glyph name="hyphen" format="1">
  <advance width="544"/>
  <unicode hex="002D"/>
  <outline>
    <contour>
      <point x="66" y="419" type="line"/>
      <point x="76" y="480" type="line"/>
      <point x="482" y="497" type="line"/>
      <point x="473" y="437" type="line"/>
    </contour>
  </outline>
</glyph>
<glyph name="period" format="1">
  <advance width="256"/>
  <unicode hex="002E"/>
  <outline>
    <contour>
      <point x="66" y="70" type="curve" smooth="yes"/>
      <point x="66" y="133"/>
      <point x="86" y="167"/>
      <point x="129" y="167" type="curve" smooth="yes"/>
      <point x="172" y="167"/>
      <point x="192" y="134"/>
      <point x="192" y="70" type="curve" smooth="yes"/>
      <point x="192" y="4"/>
      <point x="175" y="-33"/>
      <point x="129" y="-33" type="curve" smooth="yes"/>
      <point x="83" y="-33"/>
      <point x="66" y="6"/>
    </contour>
  </outline>
</glyph>
<glyph name="slash" format="1">
  <advance width="626"/>
  <unicode hex="002F"/>
  <outline>
    <contour>
      <point x="40" y="-358" type="line"/>
      <point x="502" y="1241" type="line"/>
      <point x="584" y="1244" type="line"/>
      <point x="119" y="-354" type="line"/>
    </contour>
  </outline>
</glyph>
<glyph name="five" format="1">
  <advance width="823"/>
  <unicode hex="0035"/>
  <outline>
    <contour>
      <point x="42" y="-136" type="curve" smooth="yes"/>
      <point x="42" y="-89"/>
      <point x="85" y="-18"/>
      <point x="133" y="-15" type="curve"/>
      <point x="169" y="-157"/>
      <point x="238" y="-235"/>
      <point x="368" y="-235" type="curve" smooth="yes"/>
      <point x="498" y="-235"/>
      <point x="656" y="-147"/>
      <point x="656" y="64" type="curve" smooth="yes"/>
      <point x="656" y="264"/>
      <point x="479" y="382"/>
      <point x="205" y="401" type="curve"/>
      <point x="291" y="912" type="line"/>
      <point x="737" y="948" type="line"/>
      <point x="720" y="831" type="line"/>
      <point x="346" y="804" type="line"/>
      <point x="291" y="503" type="line"/>
      <point x="575" y="479"/>
      <point x="773" y="347"/>
      <point x="773" y="120" type="curve" smooth="yes"/>
      <point x="773" y="-123"/>
      <point x="591" y="-297"/>
      <point x="328" y="-297" type="curve" smooth="yes"/>
      <point x="201" y="-297"/>
      <point x="42" y="-249"/>
    </contour>
  </outline>
</glyph>
<glyph name="six" format="1">
  <advance width="775"/>
  <unicode hex="0036"/>
  <outline>
    <contour>
      <point x="56" y="422" type="curve" smooth="yes"/>
      <point x="56" y="721"/>
      <point x="264" y="1089"/>
      <point x="606" y="1206" type="curve"/>
      <point x="627" y="1162" type="line"/>
      <point x="353" y="1051"/>
      <point x="235" y="809"/>
      <point x="195" y="609" type="curve"/>
      <point x="203" y="609" type="line"/>
      <point x="263" y="655"/>
      <point x="354" y="700"/>
      <point x="446" y="700" type="curve" smooth="yes"/>
      <point x="628" y="700"/>
      <point x="723" y="535"/>
      <point x="723" y="353" type="curve" smooth="yes"/>
      <point x="723" y="157"/>
      <point x="571" y="-22"/>
      <point x="383" y="-22" type="curve" smooth="yes"/>
      <point x="128" y="-22"/>
      <point x="56" y="189"/>
    </contour>
    <contour>
      <point x="177" y="408" type="curve" smooth="yes"/>
      <point x="177" y="163"/>
      <point x="285" y="36"/>
      <point x="408" y="36" type="curve" smooth="yes"/>
      <point x="549" y="36"/>
      <point x="605" y="179"/>
      <point x="605" y="327" type="curve" smooth="yes"/>
      <point x="605" y="501"/>
      <point x="531" y="623"/>
      <point x="371" y="623" type="curve" smooth="yes"/>
      <point x="296" y="623"/>
      <point x="228" y="587"/>
      <point x="191" y="553" type="curve"/>
      <point x="184" y="517"/>
      <point x="177" y="444"/>
    </contour>
  </outline>
</glyph>
<glyph name="eight" format="1">
  <advance width="776"/>
  <unicode hex="0038"/>
  <outline>
    <contour>
      <point x="50" y="281" type="curve" smooth="yes"/>
      <point x="50" y="400"/>
      <point x="125" y="517"/>
      <point x="257" y="621" type="curve"/>
      <point x="257" y="626" type="line"/>
      <point x="144" y="709"/>
      <point x="96" y="803"/>
      <point x="96" y="914" type="curve" smooth="yes"/>
      <point x="96" y="1073"/>
      <point x="209" y="1202"/>
      <point x="402" y="1202" type="curve" smooth="yes"/>
      <point x="568" y="1202"/>
      <point x="676" y="1090"/>
      <point x="676" y="923" type="curve" smooth="yes"/>
      <point x="676" y="775"/>
      <point x="591" y="669"/>
      <point x="509" y="604" type="curve"/>
      <point x="508" y="601" type="line"/>
      <point x="656" y="500"/>
      <point x="729" y="408"/>
      <point x="729" y="281" type="curve" smooth="yes"/>
      <point x="729" y="98"/>
      <point x="550" y="-27"/>
      <point x="362" y="-27" type="curve" smooth="yes"/>
      <point x="178" y="-27"/>
      <point x="50" y="109"/>
    </contour>
    <contour>
      <point x="151" y="319" type="curve" smooth="yes"/>
      <point x="151" y="137"/>
      <point x="307" y="33"/>
      <point x="409" y="33" type="curve" smooth="yes"/>
      <point x="558" y="33"/>
      <point x="643" y="118"/>
      <point x="643" y="230" type="curve" smooth="yes"/>
      <point x="643" y="350"/>
      <point x="573" y="422"/>
      <point x="296" y="596" type="curve"/>
      <point x="208" y="528"/>
      <point x="151" y="452"/>
    </contour>
    <contour>
      <point x="171" y="975" type="curve" smooth="yes"/>
      <point x="171" y="838"/>
      <point x="254" y="764"/>
      <point x="468" y="628" type="curve"/>
      <point x="526" y="679"/>
      <point x="597" y="757"/>
      <point x="597" y="891" type="curve" smooth="yes"/>
      <point x="597" y="1039"/>
      <point x="490" y="1155"/>
      <point x="363" y="1155" type="curve" smooth="yes"/>
      <point x="250" y="1155"/>
      <point x="171" y="1080"/>
    </contour>
  </outline>
</glyph>
<glyph name="nine" format="1">
  <advance width="780"/>
  <unicode hex="0039"/>
  <outline>
    <contour>
      <point x="52" y="571" type="curve" smooth="yes"/>
      <point x="52" y="777"/>
      <point x="193" y="945"/>
      <point x="399" y="945" type="curve" smooth="yes"/>
      <point x="654" y="945"/>
      <point x="725" y="734"/>
      <point x="725" y="501" type="curve" smooth="yes"/>
      <point x="725" y="166"/>
      <point x="474" y="-144"/>
      <point x="139" y="-261" type="curve"/>
      <point x="117" y="-217" type="line"/>
      <point x="398" y="-81"/>
      <point x="535" y="106"/>
      <point x="595" y="306" type="curve"/>
      <point x="589" y="306" type="line"/>
      <point x="529" y="260"/>
      <point x="465" y="215"/>
      <point x="329" y="215" type="curve" smooth="yes"/>
      <point x="150" y="215"/>
      <point x="52" y="389"/>
    </contour>
    <contour>
      <point x="170" y="597" type="curve" smooth="yes"/>
      <point x="170" y="423"/>
      <point x="252" y="292"/>
      <point x="403" y="292" type="curve" smooth="yes"/>
      <point x="506" y="292"/>
      <point x="571" y="336"/>
      <point x="598" y="372" type="curve"/>
      <point x="605" y="408"/>
      <point x="605" y="480"/>
      <point x="605" y="516" type="curve" smooth="yes"/>
      <point x="605" y="761"/>
      <point x="498" y="895"/>
      <point x="375" y="895" type="curve" smooth="yes"/>
      <point x="237" y="895"/>
      <point x="170" y="785"/>
    </contour>
  </outline>
</glyph>
<glyph name="semicolon" format="1">
  <advance width="363"/>
  <unicode hex="003B"/>
  <outline>
    <contour>
      <point x="13.2207" y="723.2" type="curve" smooth="yes"/>
      <point x="13.2207" y="783.68"/>
      <point x="32.4199" y="816.32"/>
      <point x="73.7002" y="816.32" type="curve" smooth="yes"/>
      <point x="114.98" y="816.32"/>
      <point x="134.181" y="784.64"/>
      <point x="134.181" y="723.2" type="curve" smooth="yes"/>
      <point x="134.181" y="659.84"/>
      <point x="117.86" y="624.32"/>
      <point x="73.7002" y="624.32" type="curve" smooth="yes"/>
      <point x="29.54" y="624.32"/>
      <point x="13.2207" y="661.76"/>
    </contour>
    <contour>
      <point x="10.0801" y="-222.48" type="line"/>
      <point x="143.07" y="-169.47"/>
      <point x="175.62" y="-107.16"/>
      <point x="175.62" y="-30.9004" type="curve" smooth="yes"/>
      <point x="175.62" y="50.0098"/>
      <point x="129.12" y="101.16"/>
      <point x="74.25" y="101.16" type="curve" smooth="yes"/>
      <point x="65.8809" y="101.16"/>
      <point x="57.5107" y="101.16"/>
      <point x="49.1406" y="97.4404" type="curve"/>
      <point x="46.3506" y="105.81"/>
      <point x="46.3506" y="106.74"/>
      <point x="46.3506" y="115.11" type="curve" smooth="yes"/>
      <point x="46.3506" y="166.26"/>
      <point x="82.6201" y="199.74"/>
      <point x="135.631" y="199.74" type="curve" smooth="yes"/>
      <point x="206.311" y="199.74"/>
      <point x="268.62" y="133.71"/>
      <point x="268.62" y="5.37012" type="curve" smooth="yes"/>
      <point x="268.62" y="-82.0498"/>
      <point x="215.61" y="-202.95"/>
      <point x="21.2402" y="-264.33" type="curve"/>
    </contour>
  </outline>
</glyph>
<glyph name="less" format="1">
  <advance width="745"/>
  <unicode hex="003C"/>
  <outline>
    <contour>
      <point x="714" y="-37" type="line"/>
      <point x="194" y="444" type="line"/>
      <point x="695" y="926" type="line"/>
      <point x="679" y="973" type="line"/>
      <point x="60" y="456" type="line"/>
      <point x="58" y="426" type="line"/>
      <point x="692" y="-82" type="line"/>
    </contour>
  </outline>
</glyph>
<glyph name="equal" format="1">
  <advance width="755"/>
  <unicode hex="003D"/>
  <outline>
    <contour>
      <point x="62" y="340" type="line"/>
      <point x="74" y="405" type="line"/>
      <point x="689" y="405" type="line"/>
      <point x="678" y="340" type="line"/>
    </contour>
    <contour>
      <point x="65" y="580" type="line"/>
      <point x="78" y="645" type="line"/>
      <point x="691" y="645" type="line"/>
      <point x="680" y="580" type="line"/>
    </contour>
  </outline>
</glyph>
<glyph name="greater" format="1">
  <advance width="747"/>
  <unicode hex="003E"/>
  <outline>
    <contour>
      <point x="44" y="-37" type="line"/>
      <point x="564" y="444" type="line"/>
      <point x="63" y="926" type="line"/>
      <point x="79" y="973" type="line"/>
      <point x="698" y="456" type="line"/>
      <point x="700" y="426" type="line"/>
      <point x="66" y="-82" type="line"/>
    </contour>
  </outline>
</glyph>
<glyph name="at" format="1">
  <advance width="1291"/>
  <unicode hex="0040"/>
  <outline>
    <contour>
      <point x="56" y="333" type="curve" smooth="yes"/>
      <point x="56" y="691"/>
      <point x="307" y="1044"/>
      <point x="725" y="1044" type="curve" smooth="yes"/>
      <point x="1006" y="1044"/>
      <point x="1237" y="847"/>
      <point x="1237" y="573" type="curve" smooth="yes"/>
      <point x="1237" y="302"/>
      <point x="1042" y="69"/>
      <point x="768" y="69" type="curve" smooth="yes"/>
      <point x="709" y="69"/>
      <point x="718" y="131"/>
      <point x="721" y="188" type="curve"/>
      <point x="712" y="188" type="line"/>
      <point x="672" y="128"/>
      <point x="576" y="60"/>
      <point x="500" y="60" type="curve" smooth="yes"/>
      <point x="407" y="60"/>
      <point x="353" y="153"/>
      <point x="353" y="325" type="curve" smooth="yes"/>
      <point x="353" y="609"/>
      <point x="548" y="790"/>
      <point x="717" y="790" type="curve" smooth="yes"/>
      <point x="770" y="790"/>
      <point x="798" y="785"/>
      <point x="856" y="772" type="curve"/>
      <point x="871" y="752" type="line"/>
      <point x="829" y="385" type="line" smooth="yes"/>
      <point x="808" y="206"/>
      <point x="792" y="136"/>
      <point x="840" y="136" type="curve" smooth="yes"/>
      <point x="994" y="136"/>
      <point x="1153" y="280"/>
      <point x="1153" y="540" type="curve" smooth="yes"/>
      <point x="1153" y="812"/>
      <point x="923" y="988"/>
      <point x="687" y="988" type="curve" smooth="yes"/>
      <point x="375" y="988"/>
      <point x="146" y="721"/>
      <point x="146" y="358" type="curve" smooth="yes"/>
      <point x="146" y="46"/>
      <point x="338" y="-163"/>
      <point x="665" y="-163" type="curve" smooth="yes"/>
      <point x="815" y="-163"/>
      <point x="986" y="-83"/>
      <point x="1032" y="-43" type="curve"/>
      <point x="1053" y="-82" type="line"/>
      <point x="966" y="-146"/>
      <point x="849" y="-227"/>
      <point x="628" y="-227" type="curve" smooth="yes"/>
      <point x="323" y="-227"/>
      <point x="56" y="-32"/>
    </contour>
    <contour>
      <point x="442" y="369" type="curve" smooth="yes"/>
      <point x="442" y="218"/>
      <point x="475" y="138"/>
      <point x="526" y="138" type="curve" smooth="yes"/>
      <point x="579" y="138"/>
      <point x="687" y="203"/>
      <point x="723" y="243" type="curve"/>
      <point x="778" y="714" type="line"/>
      <point x="751" y="723"/>
      <point x="694" y="725"/>
      <point x="663" y="725" type="curve" smooth="yes"/>
      <point x="538" y="725"/>
      <point x="442" y="577"/>
    </contour>
  </outline>
</glyph>
<glyph name="A" format="1">
  <advance width="1288"/>
  <unicode hex="0041"/>
  <outline>
    <contour>
      <point x="52" y="0" type="line"/>
      <point x="57" y="42" type="line"/>
      <point x="199" y="72" type="line"/>
      <point x="637" y="1254" type="line"/>
      <point x="690" y="1268" type="line"/>
      <point x="1105" y="66" type="line"/>
      <point x="1237" y="47" type="line"/>
      <point x="1229" y="1" type="line"/>
      <point x="820" y="1" type="line"/>
      <point x="829" y="43" type="line"/>
      <point x="995" y="73" type="line"/>
      <point x="856" y="478" type="line"/>
      <point x="424" y="478" type="line"/>
      <point x="276" y="65" type="line"/>
      <point x="460" y="46" type="line"/>
      <point x="451" y="0" type="line"/>
    </contour>
    <contour>
      <point x="444" y="534" type="line"/>
      <point x="837" y="534" type="line"/>
      <point x="644" y="1085" type="line"/>
    </contour>
  </outline>
</glyph>
<glyph name="B" format="1">
  <advance width="1063"/>
  <unicode hex="0042"/>
  <outline>
    <contour>
      <point x="49" y="0" type="line"/>
      <point x="57" y="42" type="line"/>
      <point x="226" y="72" type="line"/>
      <point x="226" y="1153" type="line"/>
      <point x="54" y="1175" type="line"/>
      <point x="64" y="1211" type="line"/>
      <point x="210" y="1233"/>
      <point x="330" y="1257"/>
      <point x="507" y="1257" type="curve" smooth="yes"/>
      <point x="770" y="1257"/>
      <point x="904" y="1140"/>
      <point x="904" y="947" type="curve" smooth="yes"/>
      <point x="904" y="821"/>
      <point x="813" y="719"/>
      <point x="727" y="668" type="curve"/>
      <point x="727" y="662" type="line"/>
      <point x="877" y="638"/>
      <point x="998" y="534"/>
      <point x="998" y="353" type="curve" smooth="yes"/>
      <point x="998" y="153"/>
      <point x="829" y="0"/>
      <point x="474" y="0" type="curve" smooth="yes"/>
    </contour>
    <contour>
      <point x="327" y="54" type="line"/>
      <point x="473" y="54" type="line" smooth="yes"/>
      <point x="791" y="54"/>
      <point x="903" y="152"/>
      <point x="903" y="327" type="curve" smooth="yes"/>
      <point x="903" y="465"/>
      <point x="798" y="621"/>
      <point x="583" y="621" type="curve" smooth="yes"/>
      <point x="327" y="621" type="line"/>
    </contour>
    <contour>
      <point x="327" y="670" type="line"/>
      <point x="647" y="670" type="line"/>
      <point x="744" y="719"/>
      <point x="802" y="806"/>
      <point x="802" y="933" type="curve" smooth="yes"/>
      <point x="802" y="1121"/>
      <point x="665" y="1212"/>
      <point x="449" y="1212" type="curve" smooth="yes"/>
      <point x="423" y="1212"/>
      <point x="354" y="1212"/>
      <point x="327" y="1206" type="curve"/>
    </contour>
  </outline>
</glyph>
<glyph name="C" format="1">
  <advance width="1061"/>
  <unicode hex="0043"/>
  <outline>
    <contour>
      <point x="54" y="607" type="curve" smooth="yes"/>
      <point x="54" y="903"/>
      <point x="234" y="1271"/>
      <point x="617" y="1271" type="curve" smooth="yes"/>
      <point x="750" y="1271"/>
      <point x="860" y="1244"/>
      <point x="957" y="1171" type="curve"/>
      <point x="926" y="834" type="line"/>
      <point x="879" y="842" type="line"/>
      <point x="849" y="1101" type="line"/>
      <point x="803" y="1161"/>
      <point x="729" y="1215"/>
      <point x="570" y="1215" type="curve" smooth="yes"/>
      <point x="352" y="1215"/>
      <point x="160" y="984"/>
      <point x="160" y="643" type="curve" smooth="yes"/>
      <point x="160" y="269"/>
      <point x="323" y="54"/>
      <point x="611" y="54" type="curve" smooth="yes"/>
      <point x="765" y="54"/>
      <point x="907" y="150"/>
      <point x="989" y="243" type="curve"/>
      <point x="1012" y="206" type="line"/>
      <point x="949" y="112"/>
      <point x="781" y="-26"/>
      <point x="565" y="-26" type="curve" smooth="yes"/>
      <point x="259" y="-26"/>
      <point x="54" y="222"/>
    </contour>
  </outline>
</glyph>
<glyph name="D" format="1">
  <advance width="1255"/>
  <unicode hex="0044"/>
  <outline>
    <contour>
      <point x="49" y="0" type="line"/>
      <point x="57" y="42" type="line"/>
      <point x="226" y="72" type="line"/>
      <point x="226" y="1153" type="line"/>
      <point x="54" y="1175" type="line"/>
      <point x="64" y="1211" type="line"/>
      <point x="261" y="1242"/>
      <point x="392" y="1259"/>
      <point x="538" y="1259" type="curve" smooth="yes"/>
      <point x="1023" y="1259"/>
      <point x="1200" y="983"/>
      <point x="1200" y="655" type="curve" smooth="yes"/>
      <point x="1200" y="313"/>
      <point x="993" y="0"/>
      <point x="480" y="0" type="curve" smooth="yes"/>
    </contour>
    <contour>
      <point x="327" y="54" type="line"/>
      <point x="507" y="54" type="line" smooth="yes"/>
      <point x="861" y="54"/>
      <point x="1092" y="250"/>
      <point x="1092" y="605" type="curve" smooth="yes"/>
      <point x="1092" y="995"/>
      <point x="872" y="1207"/>
      <point x="491" y="1207" type="curve" smooth="yes"/>
      <point x="451" y="1207"/>
      <point x="366" y="1204"/>
      <point x="327" y="1188" type="curve"/>
    </contour>
  </outline>
</glyph>
<glyph name="E" format="1">
  <advance width="1064"/>
  <unicode hex="0045"/>
  <outline>
    <contour>
      <point x="50" y="1202" type="line"/>
      <point x="57" y="1244" type="line"/>
      <point x="963" y="1244" type="line"/>
      <point x="932" y="925" type="line"/>
      <point x="886" y="931" type="line"/>
      <point x="867" y="1193" type="line"/>
      <point x="333" y="1193" type="line"/>
      <point x="333" y="659" type="line"/>
      <point x="668" y="659" type="line"/>
      <point x="705" y="798" type="line"/>
      <point x="759" y="806" type="line"/>
      <point x="726" y="417" type="line"/>
      <point x="675" y="408" type="line"/>
      <point x="659" y="605" type="line"/>
      <point x="333" y="605" type="line"/>
      <point x="333" y="54" type="line"/>
      <point x="895" y="54" type="line"/>
      <point x="969" y="323" type="line"/>
      <point x="1010" y="313" type="line"/>
      <point x="980" y="0" type="line"/>
      <point x="53" y="0" type="line"/>
      <point x="59" y="42" type="line"/>
      <point x="229" y="72" type="line"/>
      <point x="229" y="1175" type="line"/>
    </contour>
  </outline>
</glyph>
<glyph name="G" format="1">
  <advance width="1219"/>
  <unicode hex="0047"/>
  <outline>
    <contour>
      <point x="54" y="604" type="curve" smooth="yes"/>
      <point x="54" y="909"/>
      <point x="269" y="1262"/>
      <point x="652" y="1262" type="curve" smooth="yes"/>
      <point x="785" y="1262"/>
      <point x="938" y="1236"/>
      <point x="1035" y="1170" type="curve"/>
      <point x="1005" y="852" type="line"/>
      <point x="960" y="857" type="line"/>
      <point x="929" y="1093" type="line"/>
      <point x="883" y="1148"/>
      <point x="778" y="1203"/>
      <point x="619" y="1203" type="curve" smooth="yes"/>
      <point x="338" y="1203"/>
      <point x="168" y="956"/>
      <point x="168" y="633" type="curve" smooth="yes"/>
      <point x="168" y="343"/>
      <point x="295" y="45"/>
      <point x="664" y="45" type="curve" smooth="yes"/>
      <point x="756" y="45"/>
      <point x="848" y="65"/>
      <point x="924" y="118" type="curve"/>
      <point x="926" y="492" type="line"/>
      <point x="685" y="517" type="line"/>
      <point x="691" y="556" type="line"/>
      <point x="1171" y="556" type="line"/>
      <point x="1164" y="517" type="line"/>
      <point x="1030" y="496" type="line"/>
      <point x="1030" y="79" type="line"/>
      <point x="897" y="0"/>
      <point x="760" y="-20"/>
      <point x="560" y="-20" type="curve" smooth="yes"/>
      <point x="284" y="-20"/>
      <point x="54" y="219"/>
    </contour>
  </outline>
</glyph>
<glyph name="L" format="1">
  <advance width="1039"/>
  <unicode hex="004C"/>
  <outline>
    <contour>
      <point x="52" y="0" type="line"/>
      <point x="57" y="42" type="line"/>
      <point x="226" y="72" type="line"/>
      <point x="226" y="1178" type="line"/>
      <point x="54" y="1203" type="line"/>
      <point x="58" y="1243" type="line"/>
      <point x="513" y="1243" type="line"/>
      <point x="509" y="1203" type="line"/>
      <point x="333" y="1182" type="line"/>
      <point x="333" y="54" type="line"/>
      <point x="863" y="54" type="line"/>
      <point x="940" y="338" type="line"/>
      <point x="984" y="330" type="line"/>
      <point x="968" y="0" type="line"/>
    </contour>
  </outline>
</glyph>
<glyph name="O" format="1">
  <advance width="1221"/>
  <unicode hex="004F"/>
  <outline>
    <contour>
      <point x="54" y="620" type="curve" smooth="yes"/>
      <point x="54" y="1005"/>
      <point x="291" y="1274"/>
      <point x="669" y="1274" type="curve" smooth="yes"/>
      <point x="1014" y="1274"/>
      <point x="1195" y="996"/>
      <point x="1195" y="627" type="curve" smooth="yes"/>
      <point x="1195" y="321"/>
      <point x="1009" y="-27"/>
      <point x="597" y="-27" type="curve" smooth="yes"/>
      <point x="267" y="-27"/>
      <point x="54" y="267"/>
    </contour>
    <contour>
      <point x="164" y="669" type="curve" smooth="yes"/>
      <point x="164" y="306"/>
      <point x="338" y="37"/>
      <point x="645" y="37" type="curve" smooth="yes"/>
      <point x="940" y="37"/>
      <point x="1087" y="297"/>
      <point x="1087" y="573" type="curve" smooth="yes"/>
      <point x="1087" y="954"/>
      <point x="910" y="1218"/>
      <point x="621" y="1218" type="curve" smooth="yes"/>
      <point x="311" y="1218"/>
      <point x="164" y="935"/>
    </contour>
  </outline>
</glyph>
<glyph name="Q" format="1">
  <advance width="1218"/>
  <unicode hex="0051"/>
  <outline>
    <contour>
      <point x="54" y="615" type="curve" smooth="yes"/>
      <point x="54" y="994"/>
      <point x="274" y="1274"/>
      <point x="646" y="1274" type="curve" smooth="yes"/>
      <point x="1024" y="1274"/>
      <point x="1193" y="995"/>
      <point x="1193" y="637" type="curve" smooth="yes"/>
      <point x="1193" y="323"/>
      <point x="1005" y="55"/>
      <point x="710" y="-12" type="curve"/>
      <point x="823" y="-257"/>
      <point x="957" y="-298"/>
      <point x="1149" y="-313" type="curve"/>
      <point x="1140" y="-358" type="line"/>
      <point x="1125" y="-366"/>
      <point x="1093" y="-375"/>
      <point x="1007" y="-375" type="curve" smooth="yes"/>
      <point x="820" y="-375"/>
      <point x="696" y="-212"/>
      <point x="660" y="-22" type="curve"/>
      <point x="634" y="-25"/>
      <point x="607" y="-25"/>
      <point x="580" y="-25" type="curve" smooth="yes"/>
      <point x="294" y="-25"/>
      <point x="54" y="262"/>
    </contour>
    <contour>
      <point x="158" y="660" type="curve" smooth="yes"/>
      <point x="158" y="297"/>
      <point x="378" y="33"/>
      <point x="667" y="27" type="curve"/>
      <point x="893" y="74"/>
      <point x="1089" y="271"/>
      <point x="1089" y="593" type="curve" smooth="yes"/>
      <point x="1089" y="977"/>
      <point x="897" y="1218"/>
      <point x="601" y="1218" type="curve" smooth="yes"/>
      <point x="311" y="1218"/>
      <point x="158" y="984"/>
    </contour>
  </outline>
</glyph>
<glyph name="R" format="1">
  <advance width="1164"/>
  <unicode hex="0052"/>
  <outline>
    <contour>
      <point x="50" y="0" type="line"/>
      <point x="57" y="42" type="line"/>
      <point x="213" y="72" type="line"/>
      <point x="213" y="1153" type="line"/>
      <point x="53" y="1174" type="line"/>
      <point x="62" y="1210" type="line"/>
      <point x="211" y="1234"/>
      <point x="338" y="1253"/>
      <point x="487" y="1253" type="curve" smooth="yes"/>
      <point x="727" y="1253"/>
      <point x="927" y="1138"/>
      <point x="927" y="910" type="curve" smooth="yes"/>
      <point x="927" y="778"/>
      <point x="860" y="660"/>
      <point x="686" y="570" type="curve"/>
      <point x="686" y="569" type="line"/>
      <point x="849" y="323" type="line" smooth="yes"/>
      <point x="984" y="119"/>
      <point x="1063" y="74"/>
      <point x="1135" y="50" type="curve" smooth="yes"/>
      <point x="1183" y="34" type="line"/>
      <point x="1177" y="-3" type="line"/>
      <point x="1134" y="-18"/>
      <point x="1121" y="-18"/>
      <point x="1084" y="-18" type="curve" smooth="yes"/>
      <point x="956" y="-18"/>
      <point x="878" y="60"/>
      <point x="773" y="238" type="curve" smooth="yes"/>
      <point x="600" y="531" type="line"/>
      <point x="316" y="531" type="line"/>
      <point x="316" y="65" type="line"/>
      <point x="527" y="46" type="line"/>
      <point x="517" y="0" type="line"/>
    </contour>
    <contour>
      <point x="316" y="587" type="line"/>
      <point x="613" y="587" type="line"/>
      <point x="729" y="624"/>
      <point x="817" y="751"/>
      <point x="817" y="883" type="curve" smooth="yes"/>
      <point x="817" y="1097"/>
      <point x="669" y="1207"/>
      <point x="437" y="1207" type="curve" smooth="yes"/>
      <point x="383" y="1207"/>
      <point x="316" y="1202"/>
      <point x="316" y="1202" type="curve"/>
    </contour>
  </outline>
</glyph>
<glyph name="S" format="1">
  <advance width="838"/>
  <unicode hex="0053"/>
  <outline>
    <contour>
      <point x="51" y="86" type="curve"/>
      <point x="74" y="391" type="line"/>
      <point x="129" y="383" type="line"/>
      <point x="147" y="144" type="line"/>
      <point x="194" y="76"/>
      <point x="316" y="37"/>
      <point x="433" y="37" type="curve" smooth="yes"/>
      <point x="573" y="37"/>
      <point x="703" y="113"/>
      <point x="703" y="262" type="curve" smooth="yes"/>
      <point x="703" y="561"/>
      <point x="100" y="609"/>
      <point x="100" y="959" type="curve" smooth="yes"/>
      <point x="100" y="1158"/>
      <point x="282" y="1271"/>
      <point x="452" y="1271" type="curve" smooth="yes"/>
      <point x="564" y="1271"/>
      <point x="685" y="1242"/>
      <point x="754" y="1181" type="curve"/>
      <point x="731" y="861" type="line"/>
      <point x="675" y="868" type="line"/>
      <point x="658" y="1111" type="line"/>
      <point x="617" y="1171"/>
      <point x="510" y="1214"/>
      <point x="416" y="1214" type="curve" smooth="yes"/>
      <point x="299" y="1214"/>
      <point x="198" y="1137"/>
      <point x="198" y="1006" type="curve" smooth="yes"/>
      <point x="198" y="689"/>
      <point x="813" y="631"/>
      <point x="813" y="308" type="curve" smooth="yes"/>
      <point x="813" y="119"/>
      <point x="648" y="-26"/>
      <point x="381" y="-26" type="curve" smooth="yes"/>
      <point x="237" y="-26"/>
      <point x="115" y="24"/>
    </contour>
  </outline>
</glyph>
<glyph name="T" format="1">
  <advance width="1136"/>
  <unicode hex="0054"/>
  <outline>
    <contour>
      <point x="49" y="1244" type="line"/>
      <point x="1082" y="1244" type="line"/>
      <point x="1047" y="912" type="line"/>
      <point x="997" y="918" type="line"/>
      <point x="980" y="1193" type="line"/>
      <point x="609" y="1193" type="line"/>
      <point x="609" y="73" type="line"/>
      <point x="786" y="46" type="line"/>
      <point x="775" y="0" type="line"/>
      <point x="322" y="0" type="line"/>
      <point x="327" y="42" type="line"/>
      <point x="502" y="72" type="line"/>
      <point x="502" y="1193" type="line"/>
      <point x="146" y="1193" type="line"/>
      <point x="111" y="914" type="line"/>
      <point x="59" y="922" type="line"/>
    </contour>
  </outline>
</glyph>
<glyph name="U" format="1">
  <advance width="1357"/>
  <unicode hex="0055"/>
  <outline>
    <contour>
      <point x="46" y="1205" type="line"/>
      <point x="50" y="1244" type="line"/>
      <point x="504" y="1244" type="line"/>
      <point x="500" y="1205" type="line"/>
      <point x="331" y="1182" type="line"/>
      <point x="331" y="485" type="line" smooth="yes"/>
      <point x="331" y="148"/>
      <point x="491" y="42"/>
      <point x="723" y="42" type="curve" smooth="yes"/>
      <point x="956" y="42"/>
      <point x="1093" y="164"/>
      <point x="1093" y="449" type="curve" smooth="yes"/>
      <point x="1093" y="1180" type="line"/>
      <point x="907" y="1205" type="line"/>
      <point x="912" y="1244" type="line"/>
      <point x="1337" y="1244" type="line"/>
      <point x="1329" y="1205" type="line"/>
      <point x="1163" y="1182" type="line"/>
      <point x="1160" y="490" type="line" smooth="yes"/>
      <point x="1158" y="144"/>
      <point x="1026" y="-27"/>
      <point x="690" y="-27" type="curve" smooth="yes"/>
      <point x="446" y="-27"/>
      <point x="227" y="60"/>
      <point x="227" y="452" type="curve" smooth="yes"/>
      <point x="227" y="1180" type="line"/>
    </contour>
  </outline>
</glyph>
<glyph name="V" format="1">
  <advance width="1285"/>
  <unicode hex="0056"/>
  <outline>
    <contour>
      <point x="37" y="1208" type="line"/>
      <point x="41" y="1244" type="line"/>
      <point x="465" y="1244" type="line"/>
      <point x="461" y="1208" type="line"/>
      <point x="293" y="1182" type="line"/>
      <point x="649" y="160" type="line"/>
      <point x="1036" y="1178" type="line"/>
      <point x="850" y="1208" type="line"/>
      <point x="853" y="1244" type="line"/>
      <point x="1243" y="1244" type="line"/>
      <point x="1239" y="1208" type="line"/>
      <point x="1110" y="1182" type="line"/>
      <point x="659" y="-11" type="line"/>
      <point x="608" y="-26" type="line"/>
      <point x="184" y="1178" type="line"/>
    </contour>
  </outline>
</glyph>
<glyph name="W" format="1">
  <advance width="1769"/>
  <unicode hex="0057"/>
  <outline>
    <contour>
      <point x="16" y="1207" type="line"/>
      <point x="23" y="1244" type="line"/>
      <point x="416" y="1244" type="line"/>
      <point x="413" y="1212" type="line"/>
      <point x="248" y="1182" type="line"/>
      <point x="564" y="178" type="line"/>
      <point x="873" y="1202" type="line"/>
      <point x="919" y="1208" type="line"/>
      <point x="1222" y="178" type="line"/>
      <point x="1566" y="1175" type="line"/>
      <point x="1379" y="1210" type="line"/>
      <point x="1384" y="1244" type="line"/>
      <point x="1767" y="1244" type="line"/>
      <point x="1764" y="1208" type="line"/>
      <point x="1646" y="1178" type="line"/>
      <point x="1232" y="-13" type="line"/>
      <point x="1167" y="-26" type="line"/>
      <point x="879" y="990" type="line"/>
      <point x="574" y="-13" type="line"/>
      <point x="503" y="-25" type="line"/>
      <point x="138" y="1178" type="line"/>
    </contour>
  </outline>
</glyph>
<glyph name="bracketleft" format="1">
  <advance width="485"/>
  <unicode hex="005B"/>
  <outline>
    <contour>
      <point x="447" y="-333" type="line"/>
      <point x="189" y="-312" type="line"/>
      <point x="189" y="1182" type="line"/>
      <point x="444" y="1203" type="line"/>
      <point x="441" y="1256" type="line"/>
      <point x="79" y="1256" type="line"/>
      <point x="79" y="-374" type="line"/>
      <point x="441" y="-374" type="line"/>
    </contour>
  </outline>
</glyph>
<glyph name="bracketright" format="1">
  <advance width="485"/>
  <unicode hex="005D"/>
  <outline>
    <contour>
      <point x="42" y="-333" type="line"/>
      <point x="300" y="-312" type="line"/>
      <point x="300" y="1182" type="line"/>
      <point x="45" y="1203" type="line"/>
      <point x="48" y="1256" type="line"/>
      <point x="410" y="1256" type="line"/>
      <point x="410" y="-374" type="line"/>
      <point x="48" y="-374" type="line"/>
    </contour>
  </outline>
</glyph>
<glyph name="a" format="1">
  <advance width="986"/>
  <unicode hex="0061"/>
  <outline>
    <contour>
      <point x="41" y="0" type="line"/>
      <point x="46" y="42" type="line"/>
      <point x="158" y="72" type="line"/>
      <point x="475" y="920" type="line"/>
      <point x="528" y="934" type="line"/>
      <point x="839" y="66" type="line"/>
      <point x="941" y="47" type="line"/>
      <point x="933" y="1" type="line"/>
      <point x="584" y="1" type="line"/>
      <point x="593" y="43" type="line"/>
      <point x="729" y="73" type="line"/>
      <point x="480" y="764" type="line"/>
      <point x="235" y="65" type="line"/>
      <point x="389" y="46" type="line"/>
      <point x="380" y="0" type="line"/>
    </contour>
    <contour>
      <point x="279" y="306" type="line"/>
      <point x="299" y="362" type="line"/>
      <point x="692" y="362" type="line"/>
      <point x="711" y="306" type="line"/>
    </contour>
  </outline>
</glyph>
<glyph name="b" format="1">
  <advance width="837"/>
  <unicode hex="0062"/>
  <outline>
    <contour>
      <point x="45" y="0" type="line"/>
      <point x="53" y="42" type="line"/>
      <point x="192" y="72" type="line"/>
      <point x="192" y="850" type="line"/>
      <point x="50" y="866" type="line"/>
      <point x="60" y="902" type="line"/>
      <point x="130" y="914"/>
      <point x="262" y="938"/>
      <point x="396" y="938" type="curve" smooth="yes"/>
      <point x="617" y="938"/>
      <point x="729" y="849"/>
      <point x="729" y="726" type="curve" smooth="yes"/>
      <point x="729" y="617"/>
      <point x="667" y="540"/>
      <point x="576" y="498" type="curve"/>
      <point x="576" y="492" type="line"/>
      <point x="712" y="476"/>
      <point x="798" y="378"/>
      <point x="798" y="282" type="curve" smooth="yes"/>
      <point x="798" y="103"/>
      <point x="662" y="0"/>
      <point x="363" y="0" type="curve" smooth="yes"/>
    </contour>
    <contour>
      <point x="293" y="54" type="line"/>
      <point x="402" y="54" type="line" smooth="yes"/>
      <point x="630" y="54"/>
      <point x="692" y="132"/>
      <point x="692" y="259" type="curve" smooth="yes"/>
      <point x="692" y="343"/>
      <point x="639" y="451"/>
      <point x="462" y="451" type="curve" smooth="yes"/>
      <point x="293" y="451" type="line"/>
    </contour>
    <contour>
      <point x="293" y="500" type="line"/>
      <point x="516" y="500" type="line"/>
      <point x="572" y="530"/>
      <point x="627" y="564"/>
      <point x="627" y="692" type="curve" smooth="yes"/>
      <point x="627" y="827"/>
      <point x="515" y="893"/>
      <point x="338" y="893" type="curve" smooth="yes"/>
      <point x="328" y="893"/>
      <point x="303" y="893"/>
      <point x="293" y="887" type="curve"/>
    </contour>
  </outline>
</glyph>
<glyph name="c" format="1">
  <advance width="789"/>
  <unicode hex="0063"/>
  <outline>
    <contour>
      <point x="47" y="426" type="curve" smooth="yes"/>
      <point x="47" y="682"/>
      <point x="187" y="934"/>
      <point x="485" y="934" type="curve" smooth="yes"/>
      <point x="573" y="934"/>
      <point x="645" y="918"/>
      <point x="709" y="874" type="curve"/>
      <point x="678" y="627" type="line"/>
      <point x="631" y="635" type="line"/>
      <point x="621" y="804" type="line"/>
      <point x="591" y="843"/>
      <point x="542" y="878"/>
      <point x="438" y="878" type="curve" smooth="yes"/>
      <point x="286" y="878"/>
      <point x="153" y="744"/>
      <point x="153" y="462" type="curve" smooth="yes"/>
      <point x="153" y="195"/>
      <point x="268" y="42"/>
      <point x="471" y="42" type="curve" smooth="yes"/>
      <point x="577" y="42"/>
      <point x="675" y="86"/>
      <point x="731" y="129" type="curve"/>
      <point x="754" y="102" type="line"/>
      <point x="707" y="50"/>
      <point x="583" y="-26"/>
      <point x="423" y="-26" type="curve" smooth="yes"/>
      <point x="198" y="-26"/>
      <point x="47" y="151"/>
    </contour>
  </outline>
</glyph>
<glyph name="e" format="1">
  <advance width="864"/>
  <unicode hex="0065"/>
  <outline>
    <contour>
      <point x="50" y="872" type="line"/>
      <point x="57" y="914" type="line"/>
      <point x="790" y="914" type="line"/>
      <point x="759" y="645" type="line"/>
      <point x="713" y="651" type="line"/>
      <point x="704" y="863" type="line"/>
      <point x="303" y="863" type="line"/>
      <point x="303" y="477" type="line"/>
      <point x="587" y="477" type="line"/>
      <point x="615" y="566" type="line"/>
      <point x="669" y="574" type="line"/>
      <point x="636" y="305" type="line"/>
      <point x="585" y="296" type="line"/>
      <point x="578" y="423" type="line"/>
      <point x="303" y="423" type="line"/>
      <point x="303" y="54" type="line"/>
      <point x="730" y="54" type="line"/>
      <point x="784" y="273" type="line"/>
      <point x="825" y="263" type="line"/>
      <point x="805" y="0" type="line"/>
      <point x="53" y="0" type="line"/>
      <point x="59" y="42" type="line"/>
      <point x="199" y="72" type="line"/>
      <point x="199" y="845" type="line"/>
    </contour>
  </outline>
</glyph>
<glyph name="f" format="1">
  <advance width="838"/>
  <unicode hex="0066"/>
  <outline>
    <contour>
      <point x="50" y="872" type="line"/>
      <point x="57" y="914" type="line"/>
      <point x="787" y="914" type="line"/>
      <point x="754" y="643" type="line"/>
      <point x="705" y="651" type="line"/>
      <point x="694" y="863" type="line"/>
      <point x="300" y="863" type="line"/>
      <point x="300" y="450" type="line"/>
      <point x="577" y="450" type="line"/>
      <point x="604" y="549" type="line"/>
      <point x="657" y="556" type="line"/>
      <point x="626" y="271" type="line"/>
      <point x="574" y="263" type="line"/>
      <point x="566" y="397" type="line"/>
      <point x="300" y="397" type="line"/>
      <point x="300" y="70" type="line"/>
      <point x="496" y="53" type="line"/>
      <point x="484" y="0" type="line"/>
      <point x="54" y="0" type="line"/>
      <point x="57" y="42" type="line"/>
      <point x="197" y="72" type="line"/>
      <point x="197" y="845" type="line"/>
    </contour>
  </outline>
</glyph>
<glyph name="g" format="1">
  <advance width="966"/>
  <unicode hex="0067"/>
  <outline>
    <contour>
      <point x="46" y="421" type="curve" smooth="yes"/>
      <point x="46" y="701"/>
      <point x="247" y="934"/>
      <point x="530" y="934" type="curve" smooth="yes"/>
      <point x="632" y="934"/>
      <point x="749" y="914"/>
      <point x="823" y="862" type="curve"/>
      <point x="793" y="604" type="line"/>
      <point x="748" y="609" type="line"/>
      <point x="737" y="785" type="line"/>
      <point x="700" y="832"/>
      <point x="614" y="879"/>
      <point x="485" y="879" type="curve" smooth="yes"/>
      <point x="280" y="879"/>
      <point x="156" y="702"/>
      <point x="156" y="470" type="curve" smooth="yes"/>
      <point x="156" y="256"/>
      <point x="245" y="36"/>
      <point x="502" y="36" type="curve" smooth="yes"/>
      <point x="581" y="36"/>
      <point x="659" y="50"/>
      <point x="724" y="88" type="curve"/>
      <point x="724" y="325" type="line"/>
      <point x="513" y="350" type="line"/>
      <point x="519" y="389" type="line"/>
      <point x="929" y="389" type="line"/>
      <point x="922" y="350" type="line"/>
      <point x="828" y="329" type="line"/>
      <point x="828" y="39" type="line"/>
      <point x="753" y="12"/>
      <point x="615" y="-20"/>
      <point x="458" y="-20" type="curve" smooth="yes"/>
      <point x="223" y="-20"/>
      <point x="46" y="138"/>
    </contour>
  </outline>
</glyph>
<glyph name="h" format="1">
  <advance width="1105"/>
  <unicode hex="0068"/>
  <outline>
    <contour>
      <point x="49" y="875" type="line"/>
      <point x="52" y="914" type="line"/>
      <point x="448" y="914" type="line"/>
      <point x="443" y="875" type="line"/>
      <point x="304" y="852" type="line"/>
      <point x="304" y="486" type="line"/>
      <point x="795" y="486" type="line"/>
      <point x="795" y="850" type="line"/>
      <point x="641" y="875" type="line"/>
      <point x="648" y="914" type="line"/>
      <point x="1043" y="914" type="line"/>
      <point x="1035" y="875" type="line"/>
      <point x="898" y="852" type="line"/>
      <point x="898" y="65" type="line"/>
      <point x="1051" y="46" type="line"/>
      <point x="1044" y="0" type="line"/>
      <point x="651" y="0" type="line"/>
      <point x="659" y="42" type="line"/>
      <point x="795" y="72" type="line"/>
      <point x="795" y="426" type="line"/>
      <point x="304" y="426" type="line"/>
      <point x="304" y="65" type="line"/>
      <point x="460" y="46" type="line"/>
      <point x="449" y="0" type="line"/>
      <point x="57" y="0" type="line"/>
      <point x="62" y="42" type="line"/>
      <point x="199" y="72" type="line"/>
      <point x="199" y="850" type="line"/>
    </contour>
  </outline>
</glyph>
<glyph name="i" format="1">
  <advance width="512"/>
  <unicode hex="0069"/>
  <outline>
    <contour>
      <point x="47" y="875" type="line"/>
      <point x="53" y="914" type="line"/>
      <point x="450" y="914" type="line"/>
      <point x="443" y="875" type="line"/>
      <point x="298" y="852" type="line"/>
      <point x="298" y="65" type="line"/>
      <point x="461" y="46" type="line"/>
      <point x="452" y="0" type="line"/>
      <point x="57" y="0" type="line"/>
      <point x="62" y="42" type="line"/>
      <point x="190" y="72" type="line"/>
      <point x="190" y="850" type="line"/>
    </contour>
  </outline>
</glyph>
<glyph name="j" format="1">
  <advance width="583"/>
  <unicode hex="006A"/>
  <outline>
    <contour>
      <point x="33" y="-281" type="line"/>
      <point x="200" y="-164"/>
      <point x="284" y="-49"/>
      <point x="284" y="184" type="curve" smooth="yes"/>
      <point x="284" y="850" type="line"/>
      <point x="134" y="875" type="line"/>
      <point x="139" y="914" type="line"/>
      <point x="538" y="914" type="line"/>
      <point x="532" y="875" type="line"/>
      <point x="395" y="852" type="line"/>
      <point x="391" y="262" type="line" smooth="yes"/>
      <point x="389" y="-72"/>
      <point x="305" y="-176"/>
      <point x="55" y="-325" type="curve"/>
    </contour>
  </outline>
</glyph>
<glyph name="k" format="1">
  <advance width="1017"/>
  <unicode hex="006B"/>
  <outline>
    <contour>
      <point x="47" y="875" type="line"/>
      <point x="52" y="914" type="line"/>
      <point x="446" y="914" type="line"/>
      <point x="443" y="875" type="line"/>
      <point x="298" y="852" type="line"/>
      <point x="298" y="65" type="line"/>
      <point x="464" y="46" type="line"/>
      <point x="461" y="0" type="line"/>
      <point x="57" y="0" type="line"/>
      <point x="63" y="42" type="line"/>
      <point x="190" y="72" type="line"/>
      <point x="190" y="850" type="line"/>
    </contour>
    <contour>
      <point x="362" y="460" type="line"/>
      <point x="402" y="500"/>
      <point x="451" y="550"/>
      <point x="499" y="603" type="curve" smooth="yes"/>
      <point x="738" y="850" type="line"/>
      <point x="605" y="875" type="line"/>
      <point x="609" y="914" type="line"/>
      <point x="946" y="914" type="line"/>
      <point x="943" y="875" type="line"/>
      <point x="820" y="852" type="line"/>
      <point x="456" y="474" type="line"/>
      <point x="580" y="314" type="line" smooth="yes"/>
      <point x="745" y="102"/>
      <point x="835" y="58"/>
      <point x="928" y="46" type="curve" smooth="yes"/>
      <point x="958" y="42" type="line"/>
      <point x="956" y="-1" type="line"/>
      <point x="933" y="-13"/>
      <point x="900" y="-20"/>
      <point x="864" y="-20" type="curve" smooth="yes"/>
      <point x="701" y="-20"/>
      <point x="618" y="83"/>
      <point x="515" y="230" type="curve" smooth="yes"/>
      <point x="364" y="445" type="line"/>
    </contour>
  </outline>
</glyph>
<glyph name="l" format="1">
  <advance width="867"/>
  <unicode hex="006C"/>
  <outline>
    <contour>
      <point x="53" y="874" type="line"/>
      <point x="57" y="914" type="line"/>
      <point x="452" y="914" type="line"/>
      <point x="448" y="874" type="line"/>
      <point x="302" y="853" type="line"/>
      <point x="302" y="54" type="line"/>
      <point x="716" y="54" type="line"/>
      <point x="783" y="288" type="line"/>
      <point x="827" y="280" type="line"/>
      <point x="815" y="0" type="line"/>
      <point x="51" y="0" type="line"/>
      <point x="56" y="42" type="line"/>
      <point x="195" y="72" type="line"/>
      <point x="195" y="849" type="line"/>
    </contour>
  </outline>
</glyph>
<glyph name="m" format="1">
  <advance width="1324"/>
  <unicode hex="006D"/>
  <outline>
    <contour>
      <point x="39" y="0" type="line"/>
      <point x="44" y="33" type="line"/>
      <point x="181" y="64" type="line"/>
      <point x="215" y="845" type="line"/>
      <point x="61" y="878" type="line"/>
      <point x="68" y="914" type="line"/>
      <point x="358" y="914" type="line"/>
      <point x="438" y="726" type="line"/>
      <point x="652" y="227" type="line"/>
      <point x="895" y="769" type="line"/>
      <point x="961" y="914" type="line"/>
      <point x="1251" y="914" type="line"/>
      <point x="1246" y="878" type="line"/>
      <point x="1104" y="848" type="line"/>
      <point x="1124" y="60" type="line"/>
      <point x="1274" y="40" type="line"/>
      <point x="1272" y="0" type="line"/>
      <point x="870" y="0" type="line"/>
      <point x="876" y="33" type="line"/>
      <point x="1017" y="64" type="line"/>
      <point x="995" y="839" type="line"/>
      <point x="646" y="60" type="line"/>
      <point x="596" y="50" type="line"/>
      <point x="278" y="821" type="line"/>
      <point x="248" y="61" type="line"/>
      <point x="399" y="37" type="line"/>
      <point x="394" y="0" type="line"/>
    </contour>
  </outline>
</glyph>
<glyph name="n" format="1">
  <advance width="1083"/>
  <unicode hex="006E"/>
  <outline>
    <contour>
      <point x="47" y="878" type="line"/>
      <point x="55" y="914" type="line"/>
      <point x="308" y="914" type="line"/>
      <point x="821" y="187" type="line"/>
      <point x="821" y="850" type="line"/>
      <point x="668" y="875" type="line"/>
      <point x="674" y="914" type="line"/>
      <point x="1038" y="914" type="line"/>
      <point x="1030" y="875" type="line"/>
      <point x="894" y="852" type="line"/>
      <point x="894" y="-7" type="line"/>
      <point x="840" y="-18" type="line"/>
      <point x="276" y="783" type="line"/>
      <point x="276" y="65" type="line"/>
      <point x="430" y="46" type="line"/>
      <point x="420" y="0" type="line"/>
      <point x="59" y="0" type="line"/>
      <point x="65" y="42" type="line"/>
      <point x="202" y="72" type="line"/>
      <point x="202" y="845" type="line"/>
    </contour>
  </outline>
</glyph>
<glyph name="o" format="1">
  <advance width="968"/>
  <unicode hex="006F"/>
  <outline>
    <contour>
      <point x="46" y="430" type="curve" smooth="yes"/>
      <point x="46" y="720"/>
      <point x="234" y="934"/>
      <point x="534" y="934" type="curve" smooth="yes"/>
      <point x="809" y="934"/>
      <point x="953" y="735"/>
      <point x="953" y="472" type="curve" smooth="yes"/>
      <point x="953" y="239"/>
      <point x="804" y="-27"/>
      <point x="475" y="-27" type="curve" smooth="yes"/>
      <point x="214" y="-27"/>
      <point x="46" y="181"/>
    </contour>
    <contour>
      <point x="156" y="479" type="curve" smooth="yes"/>
      <point x="156" y="201"/>
      <point x="315" y="37"/>
      <point x="503" y="37" type="curve" smooth="yes"/>
      <point x="734" y="37"/>
      <point x="849" y="212"/>
      <point x="849" y="430" type="curve" smooth="yes"/>
      <point x="849" y="689"/>
      <point x="707" y="878"/>
      <point x="496" y="878" type="curve" smooth="yes"/>
      <point x="265" y="878"/>
      <point x="156" y="711"/>
    </contour>
  </outline>
</glyph>
<glyph name="p" format="1">
  <advance width="857"/>
  <unicode hex="0070"/>
  <outline>
    <contour>
      <point x="48" y="0" type="line"/>
      <point x="53" y="42" type="line"/>
      <point x="211" y="72" type="line"/>
      <point x="211" y="841" type="line"/>
      <point x="49" y="863" type="line"/>
      <point x="58" y="899" type="line"/>
      <point x="182" y="915"/>
      <point x="279" y="934"/>
      <point x="442" y="934" type="curve" smooth="yes"/>
      <point x="645" y="934"/>
      <point x="816" y="845"/>
      <point x="816" y="638" type="curve" smooth="yes"/>
      <point x="816" y="420.433"/>
      <point x="622.513" y="290.576"/>
      <point x="409" y="307" type="curve"/>
      <point x="400" y="348" type="line"/>
      <point x="454" y="351" type="line" smooth="yes"/>
      <point x="634" y="360"/>
      <point x="702" y="480"/>
      <point x="702" y="618" type="curve" smooth="yes"/>
      <point x="702" y="756"/>
      <point x="607" y="890"/>
      <point x="411" y="890" type="curve" smooth="yes"/>
      <point x="377" y="890"/>
      <point x="321" y="884"/>
      <point x="321" y="884" type="curve"/>
      <point x="321" y="66" type="line"/>
      <point x="555" y="46" type="line"/>
      <point x="547" y="0" type="line"/>
    </contour>
  </outline>
</glyph>
<glyph name="q" format="1">
  <advance width="990"/>
  <unicode hex="0071"/>
  <outline>
    <contour>
      <point x="36" y="450" type="curve" smooth="yes"/>
      <point x="36" y="723"/>
      <point x="249" y="934"/>
      <point x="519" y="934" type="curve" smooth="yes"/>
      <point x="791" y="934"/>
      <point x="947" y="725"/>
      <point x="947" y="479" type="curve" smooth="yes"/>
      <point x="947" y="218"/>
      <point x="783" y="44"/>
      <point x="573" y="-12" type="curve"/>
      <point x="642" y="-196"/>
      <point x="741" y="-250"/>
      <point x="925" y="-249" type="curve"/>
      <point x="922" y="-255"/>
      <point x="919" y="-288"/>
      <point x="916" y="-294" type="curve"/>
      <point x="870" y="-315"/>
      <point x="824" y="-325"/>
      <point x="782" y="-325" type="curve" smooth="yes"/>
      <point x="629" y="-325"/>
      <point x="516" y="-196"/>
      <point x="523" y="-22" type="curve"/>
      <point x="246" y="-55"/>
      <point x="36" y="154"/>
    </contour>
    <contour>
      <point x="140" y="495" type="curve" smooth="yes"/>
      <point x="140" y="224"/>
      <point x="318" y="32"/>
      <point x="540" y="23" type="curve"/>
      <point x="695" y="62"/>
      <point x="848" y="204"/>
      <point x="848" y="425" type="curve" smooth="yes"/>
      <point x="848" y="702"/>
      <point x="701" y="878"/>
      <point x="474" y="878" type="curve" smooth="yes"/>
      <point x="302" y="878"/>
      <point x="140" y="746"/>
    </contour>
  </outline>
</glyph>
<glyph name="r" format="1">
  <advance width="994"/>
  <unicode hex="0072"/>
  <outline>
    <contour>
      <point x="48" y="0" type="line"/>
      <point x="55" y="42" type="line"/>
      <point x="181" y="72" type="line"/>
      <point x="181" y="844" type="line"/>
      <point x="51" y="865" type="line"/>
      <point x="60" y="901" type="line"/>
      <point x="198" y="919"/>
      <point x="317" y="934"/>
      <point x="455" y="934" type="curve" smooth="yes"/>
      <point x="628" y="934"/>
      <point x="772" y="852"/>
      <point x="772" y="689" type="curve" smooth="yes"/>
      <point x="772" y="585"/>
      <point x="729" y="500"/>
      <point x="593" y="421" type="curve"/>
      <point x="593" y="420" type="line"/>
      <point x="655" y="323" type="line" smooth="yes"/>
      <point x="780" y="113"/>
      <point x="860" y="61"/>
      <point x="923" y="42" type="curve" smooth="yes"/>
      <point x="951" y="34" type="line"/>
      <point x="945" y="-3" type="line"/>
      <point x="907" y="-18"/>
      <point x="895" y="-18"/>
      <point x="862" y="-18" type="curve" smooth="yes"/>
      <point x="752" y="-18"/>
      <point x="670" y="83"/>
      <point x="595" y="238" type="curve" smooth="yes"/>
      <point x="520" y="382" type="line"/>
      <point x="284" y="382" type="line"/>
      <point x="284" y="65" type="line"/>
      <point x="465" y="46" type="line"/>
      <point x="455" y="0" type="line"/>
    </contour>
    <contour>
      <point x="284" y="438" type="line"/>
      <point x="526" y="438" type="line"/>
      <point x="619" y="467"/>
      <point x="665" y="562"/>
      <point x="665" y="662" type="curve" smooth="yes"/>
      <point x="665" y="811"/>
      <point x="564" y="888"/>
      <point x="405" y="888" type="curve" smooth="yes"/>
      <point x="351" y="888"/>
      <point x="284" y="883"/>
      <point x="284" y="883" type="curve"/>
    </contour>
  </outline>
</glyph>
<glyph name="s" format="1">
  <advance width="666"/>
  <unicode hex="0073"/>
  <outline>
    <contour>
      <point x="44" y="56" type="curve"/>
      <point x="72" y="291" type="line"/>
      <point x="126" y="283" type="line"/>
      <point x="140" y="113" type="line"/>
      <point x="171" y="63"/>
      <point x="253" y="35"/>
      <point x="332" y="35" type="curve" smooth="yes"/>
      <point x="430" y="35"/>
      <point x="521" y="84"/>
      <point x="521" y="180" type="curve" smooth="yes"/>
      <point x="521" y="394"/>
      <point x="71" y="426"/>
      <point x="71" y="697" type="curve" smooth="yes"/>
      <point x="71" y="848"/>
      <point x="211" y="934"/>
      <point x="341" y="934" type="curve" smooth="yes"/>
      <point x="423" y="934"/>
      <point x="513" y="912"/>
      <point x="564" y="864" type="curve"/>
      <point x="547" y="634" type="line"/>
      <point x="491" y="641" type="line"/>
      <point x="475" y="804" type="line"/>
      <point x="448" y="848"/>
      <point x="377" y="880"/>
      <point x="315" y="880" type="curve" smooth="yes"/>
      <point x="218" y="880"/>
      <point x="166" y="829"/>
      <point x="166" y="744" type="curve" smooth="yes"/>
      <point x="166" y="534"/>
      <point x="628" y="471"/>
      <point x="628" y="226" type="curve" smooth="yes"/>
      <point x="628" y="83"/>
      <point x="499" y="-26"/>
      <point x="290" y="-26" type="curve" smooth="yes"/>
      <point x="183" y="-26"/>
      <point x="92" y="10"/>
    </contour>
  </outline>
</glyph>
<glyph name="t" format="1">
  <advance width="948"/>
  <unicode hex="0074"/>
  <outline>
    <contour>
      <point x="71" y="914" type="line"/>
      <point x="875" y="914" type="line"/>
      <point x="848" y="632" type="line"/>
      <point x="798" y="638" type="line"/>
      <point x="781" y="863" type="line"/>
      <point x="522" y="863" type="line"/>
      <point x="522" y="73" type="line"/>
      <point x="669" y="46" type="line"/>
      <point x="658" y="0" type="line"/>
      <point x="265" y="0" type="line"/>
      <point x="270" y="42" type="line"/>
      <point x="415" y="72" type="line"/>
      <point x="415" y="863" type="line"/>
      <point x="158" y="863" type="line"/>
      <point x="133" y="634" type="line"/>
      <point x="81" y="642" type="line"/>
    </contour>
  </outline>
</glyph>
<glyph name="u" format="1">
  <advance width="1111"/>
  <unicode hex="0075"/>
  <outline>
    <contour>
      <point x="42" y="875" type="line"/>
      <point x="46" y="914" type="line"/>
      <point x="440" y="914" type="line"/>
      <point x="436" y="875" type="line"/>
      <point x="297" y="852" type="line"/>
      <point x="297" y="361" type="line" smooth="yes"/>
      <point x="297" y="118"/>
      <point x="414" y="42"/>
      <point x="584" y="42" type="curve" smooth="yes"/>
      <point x="753" y="42"/>
      <point x="852" y="120"/>
      <point x="852" y="335" type="curve" smooth="yes"/>
      <point x="852" y="850" type="line"/>
      <point x="696" y="875" type="line"/>
      <point x="701" y="914" type="line"/>
      <point x="1066" y="914" type="line"/>
      <point x="1058" y="875" type="line"/>
      <point x="922" y="852" type="line"/>
      <point x="919" y="356" type="line" smooth="yes"/>
      <point x="917" y="115"/>
      <point x="810" y="-27"/>
      <point x="551" y="-27" type="curve" smooth="yes"/>
      <point x="357" y="-27"/>
      <point x="193" y="51"/>
      <point x="193" y="348" type="curve" smooth="yes"/>
      <point x="193" y="850" type="line"/>
    </contour>
  </outline>
</glyph>
<glyph name="v" format="1">
  <advance width="986"/>
  <unicode hex="0076"/>
  <outline>
    <contour>
      <point x="45" y="878" type="line"/>
      <point x="49" y="914" type="line"/>
      <point x="413" y="914" type="line"/>
      <point x="409" y="878" type="line"/>
      <point x="271" y="852" type="line"/>
      <point x="506" y="160" type="line"/>
      <point x="759" y="848" type="line"/>
      <point x="603" y="878" type="line"/>
      <point x="606" y="914" type="line"/>
      <point x="936" y="914" type="line"/>
      <point x="932" y="878" type="line"/>
      <point x="833" y="852" type="line"/>
      <point x="516" y="-11" type="line"/>
      <point x="465" y="-26" type="line"/>
      <point x="162" y="848" type="line"/>
    </contour>
  </outline>
</glyph>
<glyph name="w" format="1">
  <advance width="1358"/>
  <unicode hex="0077"/>
  <outline>
    <contour>
      <point x="53" y="877" type="line"/>
      <point x="60" y="914" type="line"/>
      <point x="383" y="914" type="line"/>
      <point x="380" y="882" type="line"/>
      <point x="255" y="852" type="line"/>
      <point x="466" y="178" type="line"/>
      <point x="664" y="872" type="line"/>
      <point x="710" y="878" type="line"/>
      <point x="926" y="168" type="line"/>
      <point x="1128" y="845" type="line"/>
      <point x="971" y="880" type="line"/>
      <point x="976" y="914" type="line"/>
      <point x="1299" y="914" type="line"/>
      <point x="1296" y="878" type="line"/>
      <point x="1208" y="848" type="line"/>
      <point x="936" y="-13" type="line"/>
      <point x="881" y="-26" type="line"/>
      <point x="668" y="675" type="line"/>
      <point x="476" y="-13" type="line"/>
      <point x="415" y="-25" type="line"/>
      <point x="145" y="848" type="line"/>
    </contour>
  </outline>
</glyph>
<glyph name="x" format="1">
  <advance width="1021"/>
  <unicode hex="0078"/>
  <outline>
    <contour>
      <point x="50" y="0" type="line"/>
      <point x="56" y="36" type="line"/>
      <point x="150" y="64" type="line"/>
      <point x="446" y="454" type="line"/>
      <point x="163" y="854" type="line"/>
      <point x="57" y="882" type="line"/>
      <point x="61" y="914" type="line"/>
      <point x="421" y="914" type="line"/>
      <point x="416" y="882" type="line"/>
      <point x="290" y="852" type="line"/>
      <point x="521" y="527" type="line"/>
      <point x="755" y="854" type="line"/>
      <point x="613" y="877" type="line"/>
      <point x="618" y="914" type="line"/>
      <point x="926" y="914" type="line"/>
      <point x="926" y="878" type="line"/>
      <point x="830" y="857" type="line"/>
      <point x="555" y="479" type="line"/>
      <point x="851" y="53" type="line"/>
      <point x="958" y="36" type="line"/>
      <point x="951" y="0" type="line"/>
      <point x="586" y="0" type="line"/>
      <point x="590" y="27" type="line"/>
      <point x="723" y="60" type="line"/>
      <point x="482" y="403" type="line"/>
      <point x="229" y="60" type="line"/>
      <point x="364" y="42" type="line"/>
      <point x="356" y="0" type="line"/>
    </contour>
  </outline>
</glyph>
<glyph name="y" format="1">
  <advance width="957"/>
  <unicode hex="0079"/>
  <outline>
    <contour>
      <point x="45" y="877" type="line"/>
      <point x="49" y="913" type="line"/>
      <point x="410" y="913" type="line"/>
      <point x="406" y="877" type="line"/>
      <point x="270" y="851" type="line"/>
      <point x="499" y="461" type="line"/>
      <point x="729" y="848" type="line"/>
      <point x="574" y="878" type="line"/>
      <point x="576" y="914" type="line"/>
      <point x="906" y="914" type="line"/>
      <point x="903" y="878" type="line"/>
      <point x="804" y="852" type="line"/>
      <point x="535" y="379" type="line"/>
      <point x="535" y="67" type="line"/>
      <point x="686" y="46" type="line"/>
      <point x="678" y="0" type="line"/>
      <point x="278" y="0" type="line"/>
      <point x="284" y="42" type="line"/>
      <point x="429" y="72" type="line"/>
      <point x="429" y="379" type="line"/>
      <point x="154" y="847" type="line"/>
    </contour>
  </outline>
</glyph>
<glyph name="z" format="1">
  <advance width="843"/>
  <unicode hex="007A"/>
  <outline>
    <contour>
      <point x="43" y="37" type="line"/>
      <point x="645" y="859" type="line"/>
      <point x="197" y="859" type="line"/>
      <point x="131" y="623" type="line"/>
      <point x="91" y="634" type="line"/>
      <point x="100" y="914" type="line"/>
      <point x="776" y="914" type="line"/>
      <point x="781" y="877" type="line"/>
      <point x="176" y="58" type="line"/>
      <point x="676" y="58" type="line"/>
      <point x="752" y="292" type="line"/>
      <point x="796" y="285" type="line"/>
      <point x="776" y="0" type="line"/>
      <point x="48" y="0" type="line"/>
    </contour>
  </outline>
</glyph>
<glyph name="braceleft" format="1">
  <advance width="614"/>
  <unicode hex="007B"/>
  <outline>
    <contour>
      <point x="575" y="-378" type="line"/>
      <point x="569" y="-329" type="line"/>
      <point x="468" y="-323" type="line"/>
      <point x="240" y="-314"/>
      <point x="493" y="385"/>
      <point x="164" y="437" type="curve"/>
      <point x="164" y="441" type="line"/>
      <point x="493" y="524"/>
      <point x="239" y="1189"/>
      <point x="457" y="1200" type="curve"/>
      <point x="563" y="1207" type="line"/>
      <point x="571" y="1256" type="line"/>
      <point x="468" y="1256" type="line" smooth="yes"/>
      <point x="60" y="1256"/>
      <point x="398" y="506"/>
      <point x="97" y="470" type="curve" smooth="yes"/>
      <point x="48" y="463" type="line"/>
      <point x="48" y="414" type="line"/>
      <point x="101" y="408" type="line" smooth="yes"/>
      <point x="400" y="374"/>
      <point x="59" y="-378"/>
      <point x="473" y="-378" type="curve" smooth="yes"/>
    </contour>
  </outline>
</glyph>
<glyph name="bar" format="1">
  <advance width="226"/>
  <unicode hex="007C"/>
  <outline>
    <contour>
      <point x="75" y="-368" type="line"/>
      <point x="75" y="1260" type="line"/>
      <point x="151" y="1248" type="line"/>
      <point x="151" y="-380" type="line"/>
    </contour>
  </outline>
</glyph>
<glyph name="exclamdown" format="1">
  <advance width="249"/>
  <unicode hex="00A1"/>
  <outline>
    <contour>
      <point x="58" y="-375" type="curve" smooth="yes"/>
      <point x="58" y="-206"/>
      <point x="80" y="192"/>
      <point x="107" y="515" type="curve"/>
      <point x="113" y="517" type="line"/>
      <point x="153" y="509" type="line"/>
      <point x="153" y="507" type="line"/>
      <point x="168" y="190"/>
      <point x="182" y="-264"/>
      <point x="182" y="-374" type="curve" smooth="yes"/>
      <point x="182" y="-375" type="line"/>
      <point x="173" y="-402"/>
      <point x="148" y="-416"/>
      <point x="112" y="-416" type="curve" smooth="yes"/>
      <point x="85" y="-416"/>
      <point x="58" y="-406"/>
    </contour>
    <contour>
      <point x="70" y="809" type="curve" smooth="yes"/>
      <point x="70" y="867"/>
      <point x="84" y="910"/>
      <point x="129" y="910" type="curve" smooth="yes"/>
      <point x="171" y="910"/>
      <point x="186" y="863"/>
      <point x="186" y="809" type="curve" smooth="yes"/>
      <point x="186" y="755"/>
      <point x="163" y="717"/>
      <point x="129" y="717" type="curve" smooth="yes"/>
      <point x="93" y="717"/>
      <point x="70" y="755"/>
    </contour>
  </outline>
</glyph>
<glyph name="cent" format="1">
  <advance width="735"/>
  <unicode hex="00A2"/>
  <outline>
    <contour>
      <point x="55" y="408" type="curve" smooth="yes"/>
      <point x="55" y="705"/>
      <point x="213" y="899"/>
      <point x="430" y="899" type="curve" smooth="yes"/>
      <point x="599" y="899"/>
      <point x="651" y="810"/>
      <point x="651" y="731" type="curve" smooth="yes"/>
      <point x="651" y="685"/>
      <point x="634" y="653"/>
      <point x="586" y="638" type="curve"/>
      <point x="540" y="774"/>
      <point x="487" y="840"/>
      <point x="382" y="840" type="curve" smooth="yes"/>
      <point x="264" y="840"/>
      <point x="155" y="708"/>
      <point x="155" y="465" type="curve" smooth="yes"/>
      <point x="155" y="166"/>
      <point x="280" y="47"/>
      <point x="440" y="47" type="curve" smooth="yes"/>
      <point x="539" y="47"/>
      <point x="627" y="97"/>
      <point x="675" y="144" type="curve"/>
      <point x="693" y="111" type="line"/>
      <point x="645" y="36"/>
      <point x="522" y="-29"/>
      <point x="392" y="-29" type="curve" smooth="yes"/>
      <point x="170" y="-29"/>
      <point x="55" y="169"/>
    </contour>
    <contour>
      <point x="327" y="1115" type="line"/>
      <point x="433" y="1133" type="line"/>
      <point x="409" y="863" type="line"/>
      <point x="359" y="863" type="line"/>
    </contour>
    <contour>
      <point x="337" y="-267" type="line"/>
      <point x="364" y="0" type="line"/>
      <point x="412" y="0" type="line"/>
      <point x="445" y="-250" type="line"/>
    </contour>
  </outline>
</glyph>
<glyph name="sterling" format="1">
  <advance width="917"/>
  <unicode hex="00A3"/>
  <outline>
    <contour>
      <point x="32" y="0" type="line"/>
      <point x="38" y="42" type="line"/>
      <point x="206" y="72" type="line"/>
      <point x="236" y="136"/>
      <point x="246" y="211"/>
      <point x="246" y="296" type="curve" smooth="yes"/>
      <point x="246" y="408" type="line"/>
      <point x="69" y="399" type="line"/>
      <point x="80" y="459" type="line"/>
      <point x="250" y="468" type="line"/>
      <point x="253" y="589" type="line" smooth="yes"/>
      <point x="257" y="743"/>
      <point x="330" y="934"/>
      <point x="572" y="934" type="curve" smooth="yes"/>
      <point x="686" y="934"/>
      <point x="781" y="867"/>
      <point x="781" y="780" type="curve" smooth="yes"/>
      <point x="781" y="732"/>
      <point x="749" y="699"/>
      <point x="706" y="691" type="curve"/>
      <point x="680" y="806"/>
      <point x="629" y="881"/>
      <point x="534" y="881" type="curve" smooth="yes"/>
      <point x="380" y="881"/>
      <point x="364" y="772"/>
      <point x="364" y="538" type="curve" smooth="yes"/>
      <point x="364" y="476" type="line"/>
      <point x="621" y="490" type="line"/>
      <point x="611" y="431" type="line"/>
      <point x="361" y="414" type="line"/>
      <point x="361" y="351" type="line" smooth="yes"/>
      <point x="361" y="195"/>
      <point x="343" y="115"/>
      <point x="288" y="58" type="curve"/>
      <point x="746" y="58" type="line"/>
      <point x="836" y="299" type="line"/>
      <point x="877" y="288" type="line"/>
      <point x="847" y="0" type="line"/>
    </contour>
  </outline>
</glyph>
<glyph name="yen" format="1">
  <advance width="926"/>
  <unicode hex="00A5"/>
  <outline>
    <contour>
      <point x="35" y="880" type="line"/>
      <point x="41" y="914" type="line"/>
      <point x="416" y="914" type="line"/>
      <point x="413" y="880" type="line"/>
      <point x="286" y="851" type="line"/>
      <point x="483" y="408" type="line"/>
      <point x="677" y="848" type="line"/>
      <point x="540" y="880" type="line"/>
      <point x="542" y="913" type="line"/>
      <point x="885" y="913" type="line"/>
      <point x="881" y="880" type="line"/>
      <point x="754" y="850" type="line"/>
      <point x="513" y="355" type="line"/>
      <point x="879" y="355" type="line"/>
      <point x="868" y="307" type="line"/>
      <point x="513" y="307" type="line"/>
      <point x="513" y="67" type="line"/>
      <point x="696" y="46" type="line"/>
      <point x="687" y="0" type="line"/>
      <point x="227" y="0" type="line"/>
      <point x="232" y="42" type="line"/>
      <point x="407" y="72" type="line"/>
      <point x="407" y="307" type="line"/>
      <point x="65" y="307" type="line"/>
      <point x="75" y="355" type="line"/>
      <point x="407" y="355" type="line"/>
      <point x="177" y="848" type="line"/>
    </contour>
    <contour>
      <point x="65" y="503" type="line"/>
      <point x="75" y="549" type="line"/>
      <point x="361" y="549" type="line"/>
      <point x="376" y="503" type="line"/>
    </contour>
    <contour>
      <point x="578" y="503" type="line"/>
      <point x="605" y="549" type="line"/>
      <point x="879" y="549" type="line"/>
      <point x="868" y="503" type="line"/>
    </contour>
  </outline>
</glyph>
<glyph name="copyright" format="1">
  <advance width="1326"/>
  <unicode hex="00A9"/>
  <outline>
    <contour>
      <point x="53" y="620" type="curve" smooth="yes"/>
      <point x="53" y="1018"/>
      <point x="312" y="1281"/>
      <point x="651" y="1281" type="curve" smooth="yes"/>
      <point x="1029" y="1281"/>
      <point x="1270" y="1016"/>
      <point x="1270" y="623" type="curve" smooth="yes"/>
      <point x="1270" y="233"/>
      <point x="1027" y="-27"/>
      <point x="642" y="-27" type="curve" smooth="yes"/>
      <point x="277" y="-27"/>
      <point x="53" y="231"/>
    </contour>
    <contour>
      <point x="121" y="631" type="curve" smooth="yes"/>
      <point x="121" y="286"/>
      <point x="339" y="31"/>
      <point x="651" y="31" type="curve" smooth="yes"/>
      <point x="970" y="31"/>
      <point x="1205" y="278"/>
      <point x="1205" y="613" type="curve" smooth="yes"/>
      <point x="1205" y="966"/>
      <point x="970" y="1226"/>
      <point x="653" y="1226" type="curve" smooth="yes"/>
      <point x="341" y="1226"/>
      <point x="121" y="973"/>
    </contour>
    <contour>
      <point x="371" y="610" type="curve" smooth="yes"/>
      <point x="371" y="854"/>
      <point x="500" y="1004"/>
      <point x="678" y="1004" type="curve" smooth="yes"/>
      <point x="817" y="1004"/>
      <point x="859" y="930"/>
      <point x="859" y="865" type="curve" smooth="yes"/>
      <point x="859" y="827"/>
      <point x="845" y="800"/>
      <point x="806" y="788" type="curve"/>
      <point x="768" y="900"/>
      <point x="725" y="953"/>
      <point x="639" y="953" type="curve" smooth="yes"/>
      <point x="542" y="953"/>
      <point x="453" y="856"/>
      <point x="453" y="657" type="curve" smooth="yes"/>
      <point x="453" y="412"/>
      <point x="544" y="323"/>
      <point x="686" y="323" type="curve" smooth="yes"/>
      <point x="767" y="323"/>
      <point x="840" y="365"/>
      <point x="879" y="404" type="curve"/>
      <point x="894" y="377" type="line"/>
      <point x="855" y="315"/>
      <point x="754" y="262"/>
      <point x="647" y="262" type="curve" smooth="yes"/>
      <point x="465" y="262"/>
      <point x="371" y="414"/>
    </contour>
  </outline>
</glyph>
<glyph name="ordfeminine" format="1">
  <advance width="667"/>
  <unicode hex="00AA"/>
  <outline>
    <contour>
      <point x="54" y="711" type="curve" smooth="yes"/>
      <point x="54" y="841"/>
      <point x="169" y="952"/>
      <point x="424" y="967" type="curve"/>
      <point x="424" y="994" type="line" smooth="yes"/>
      <point x="424" y="1161"/>
      <point x="394" y="1235"/>
      <point x="271" y="1235" type="curve" smooth="yes"/>
      <point x="182" y="1235"/>
      <point x="174" y="1165"/>
      <point x="162" y="1068" type="curve"/>
      <point x="128" y="1068"/>
      <point x="81" y="1086"/>
      <point x="81" y="1122" type="curve"/>
      <point x="81" y="1210"/>
      <point x="202" y="1282"/>
      <point x="314" y="1282" type="curve" smooth="yes"/>
      <point x="438" y="1282"/>
      <point x="512" y="1205"/>
      <point x="512" y="1036" type="curve" smooth="yes"/>
      <point x="512" y="764" type="line" smooth="yes"/>
      <point x="512" y="690"/>
      <point x="496" y="640"/>
      <point x="566" y="628" type="curve" smooth="yes"/>
      <point x="619" y="617" type="line"/>
      <point x="615" y="583" type="line"/>
      <point x="599" y="576"/>
      <point x="568" y="566"/>
      <point x="534" y="566" type="curve" smooth="yes"/>
      <point x="468" y="566"/>
      <point x="434" y="616"/>
      <point x="434" y="674" type="curve" smooth="yes"/>
      <point x="434" y="685" type="line"/>
      <point x="430" y="685" type="line"/>
      <point x="412" y="636"/>
      <point x="331" y="560"/>
      <point x="220" y="560" type="curve" smooth="yes"/>
      <point x="135" y="560"/>
      <point x="54" y="613"/>
    </contour>
    <contour>
      <point x="150" y="734" type="curve" smooth="yes"/>
      <point x="150" y="668"/>
      <point x="176" y="622"/>
      <point x="246" y="622" type="curve" smooth="yes"/>
      <point x="323" y="622"/>
      <point x="387" y="672"/>
      <point x="424" y="735" type="curve"/>
      <point x="424" y="927" type="line"/>
      <point x="264" y="904"/>
      <point x="150" y="861"/>
    </contour>
  </outline>
</glyph>
<glyph name="guillemotleft" format="1">
  <advance width="644"/>
  <unicode hex="00AB"/>
  <outline>
    <contour>
      <point x="21" y="469" type="line"/>
      <point x="289" y="822" type="line"/>
      <point x="317" y="786" type="line"/>
      <point x="129" y="462" type="line"/>
      <point x="316" y="116" type="line"/>
      <point x="284" y="78" type="line"/>
      <point x="24" y="449" type="line"/>
    </contour>
    <contour>
      <point x="268" y="469" type="line"/>
      <point x="536" y="822" type="line"/>
      <point x="564" y="786" type="line"/>
      <point x="376" y="462" type="line"/>
      <point x="563" y="116" type="line"/>
      <point x="531" y="78" type="line"/>
      <point x="271" y="449" type="line"/>
    </contour>
  </outline>
</glyph>
<glyph name="softhyphen" format="1">
  <advance width="538"/>
  <unicode hex="00AD"/>
  <outline>
    <contour>
      <point x="62" y="435" type="line"/>
      <point x="70" y="497" type="line"/>
      <point x="479" y="558" type="line"/>
      <point x="469" y="495" type="line"/>
    </contour>
  </outline>
</glyph>
<glyph name="registered" format="1">
  <advance width="1056"/>
  <unicode hex="00AE"/>
  <outline>
    <contour>
      <point x="48" y="1022" type="curve" smooth="yes"/>
      <point x="48" y="1332"/>
      <point x="259" y="1518"/>
      <point x="519" y="1518" type="curve" smooth="yes"/>
      <point x="795" y="1518"/>
      <point x="1008" y="1336"/>
      <point x="1008" y="1026" type="curve" smooth="yes"/>
      <point x="1008" y="728"/>
      <point x="775" y="544"/>
      <point x="509" y="544" type="curve" smooth="yes"/>
      <point x="255" y="544"/>
      <point x="48" y="736"/>
    </contour>
    <contour>
      <point x="103" y="1036" type="curve" smooth="yes"/>
      <point x="103" y="776"/>
      <point x="267" y="592"/>
      <point x="517" y="592" type="curve" smooth="yes"/>
      <point x="751" y="592"/>
      <point x="951" y="752"/>
      <point x="951" y="1016" type="curve" smooth="yes"/>
      <point x="951" y="1300"/>
      <point x="767" y="1467"/>
      <point x="519" y="1472" type="curve" smooth="yes"/>
      <point x="297" y="1476"/>
      <point x="103" y="1336"/>
    </contour>
    <contour>
      <point x="289" y="771" type="line"/>
      <point x="292" y="802" type="line"/>
      <point x="363" y="815" type="line"/>
      <point x="363" y="1284" type="line"/>
      <point x="291" y="1293" type="line"/>
      <point x="295" y="1316" type="line"/>
      <point x="362" y="1327"/>
      <point x="439" y="1335"/>
      <point x="506" y="1335" type="curve" smooth="yes"/>
      <point x="604" y="1335"/>
      <point x="699" y="1291"/>
      <point x="699" y="1203" type="curve" smooth="yes"/>
      <point x="699" y="1142"/>
      <point x="656" y="1086"/>
      <point x="562" y="1040" type="curve"/>
      <point x="562" y="1039" type="line"/>
      <point x="651" y="916" type="line" smooth="yes"/>
      <point x="717" y="824"/>
      <point x="736" y="815"/>
      <point x="766" y="804" type="curve" smooth="yes"/>
      <point x="788" y="796" type="line"/>
      <point x="785" y="770" type="line"/>
      <point x="766" y="763"/>
      <point x="760" y="763"/>
      <point x="743" y="763" type="curve" smooth="yes"/>
      <point x="691" y="763"/>
      <point x="648" y="788"/>
      <point x="597" y="880" type="curve" smooth="yes"/>
      <point x="518" y="1020" type="line"/>
      <point x="429" y="1020" type="line"/>
      <point x="429" y="812" type="line"/>
      <point x="524" y="804" type="line"/>
      <point x="519" y="771" type="line"/>
    </contour>
    <contour>
      <point x="429" y="1055" type="line"/>
      <point x="531" y="1055" type="line"/>
      <point x="583" y="1088"/>
      <point x="629" y="1130"/>
      <point x="629" y="1191" type="curve" smooth="yes"/>
      <point x="629" y="1272"/>
      <point x="577" y="1299"/>
      <point x="483" y="1299" type="curve" smooth="yes"/>
      <point x="459" y="1299"/>
      <point x="429" y="1297"/>
      <point x="429" y="1297" type="curve"/>
    </contour>
  </outline>
</glyph>
<glyph name="plusminus" format="1">
  <advance width="727"/>
  <unicode hex="00B1"/>
  <outline>
    <contour>
      <point x="47" y="492" type="line"/>
      <point x="60" y="561" type="line"/>
      <point x="268" y="561" type="line"/>
      <point x="268" y="808" type="line"/>
      <point x="335" y="796" type="line"/>
      <point x="337" y="561" type="line"/>
      <point x="557" y="561" type="line"/>
      <point x="546" y="492" type="line"/>
      <point x="337" y="492" type="line"/>
      <point x="338" y="238" type="line"/>
      <point x="268" y="253" type="line"/>
      <point x="268" y="492" type="line"/>
    </contour>
    <contour>
      <point x="52" y="36" type="line"/>
      <point x="69" y="100" type="line"/>
      <point x="680" y="100" type="line"/>
      <point x="663" y="36" type="line"/>
    </contour>
  </outline>
</glyph>
<glyph name="two.superior" format="1">
  <advance width="634"/>
  <unicode hex="00B2"/>
  <outline>
    <contour>
      <point x="50" y="613" type="line"/>
      <point x="201" y="738" type="line" smooth="yes"/>
      <point x="364" y="874"/>
      <point x="429" y="948"/>
      <point x="429" y="1074" type="curve" smooth="yes"/>
      <point x="429" y="1159"/>
      <point x="382" y="1234"/>
      <point x="291" y="1234" type="curve" smooth="yes"/>
      <point x="216" y="1234"/>
      <point x="185" y="1227"/>
      <point x="166" y="1213" type="curve"/>
      <point x="140" y="1063" type="line"/>
      <point x="98" y="1067" type="line"/>
      <point x="103" y="1226" type="line"/>
      <point x="135" y="1256"/>
      <point x="214" y="1290"/>
      <point x="319" y="1290" type="curve" smooth="yes"/>
      <point x="442" y="1290"/>
      <point x="540" y="1228"/>
      <point x="540" y="1077" type="curve" smooth="yes"/>
      <point x="540" y="927"/>
      <point x="417" y="833"/>
      <point x="187" y="654" type="curve" smooth="yes"/>
      <point x="183" y="651" type="line"/>
      <point x="499" y="651" type="line"/>
      <point x="543" y="799" type="line"/>
      <point x="578" y="796" type="line"/>
      <point x="558" y="566" type="line"/>
      <point x="53" y="566" type="line"/>
    </contour>
  </outline>
</glyph>
<glyph name="three.superior" format="1">
  <advance width="588"/>
  <unicode hex="00B3"/>
  <outline>
    <contour>
      <point x="51" y="632" type="curve"/>
      <point x="88" y="774" type="line"/>
      <point x="132" y="769" type="line"/>
      <point x="136" y="650" type="line"/>
      <point x="156" y="616"/>
      <point x="212" y="579"/>
      <point x="275" y="579" type="curve" smooth="yes"/>
      <point x="363" y="579"/>
      <point x="431" y="641"/>
      <point x="431" y="738" type="curve" smooth="yes"/>
      <point x="431" y="844"/>
      <point x="301" y="902"/>
      <point x="189" y="907" type="curve"/>
      <point x="188" y="927" type="line"/>
      <point x="233" y="947"/>
      <point x="385" y="1002"/>
      <point x="385" y="1118" type="curve" smooth="yes"/>
      <point x="385" y="1175"/>
      <point x="345" y="1245"/>
      <point x="278" y="1245" type="curve" smooth="yes"/>
      <point x="222" y="1245"/>
      <point x="194" y="1237"/>
      <point x="174" y="1213" type="curve"/>
      <point x="143" y="1088" type="line"/>
      <point x="93" y="1094" type="line"/>
      <point x="97" y="1233" type="line"/>
      <point x="131" y="1267"/>
      <point x="205" y="1297"/>
      <point x="319" y="1297" type="curve" smooth="yes"/>
      <point x="411" y="1297"/>
      <point x="492" y="1232"/>
      <point x="492" y="1141" type="curve" smooth="yes"/>
      <point x="492" y="1040"/>
      <point x="400" y="980"/>
      <point x="315" y="952" type="curve"/>
      <point x="315" y="946" type="line"/>
      <point x="445" y="930"/>
      <point x="534" y="849"/>
      <point x="534" y="754" type="curve" smooth="yes"/>
      <point x="534" y="620"/>
      <point x="394" y="527"/>
      <point x="256" y="527" type="curve" smooth="yes"/>
      <point x="154" y="527"/>
      <point x="83" y="571"/>
    </contour>
  </outline>
</glyph>
<glyph name="acute" format="1">
  <advance width="385"/>
  <unicode hex="00B4"/>
  <outline>
    <contour>
      <point x="79" y="1370" type="line"/>
      <point x="211" y="1707" type="line"/>
      <point x="307" y="1668" type="line"/>
      <point x="124" y="1344" type="line"/>
    </contour>
  </outline>
</glyph>
<glyph name="paragraph" format="1">
  <advance width="979"/>
  <unicode hex="00B6"/>
  <outline>
    <contour>
      <point x="42" y="590" type="curve" smooth="yes"/>
      <point x="42" y="798"/>
      <point x="228" y="914"/>
      <point x="475" y="914" type="curve" smooth="yes"/>
      <point x="592" y="914" type="line"/>
      <point x="592" y="1" type="line"/>
      <point x="302" y="1" type="line"/>
      <point x="308" y="44" type="line"/>
      <point x="494" y="73" type="line"/>
      <point x="494" y="854" type="line"/>
      <point x="470" y="856"/>
      <point x="446" y="857"/>
      <point x="424" y="857" type="curve" smooth="yes"/>
      <point x="255" y="857"/>
      <point x="155" y="782"/>
      <point x="155" y="617" type="curve" smooth="yes"/>
      <point x="155" y="487"/>
      <point x="260" y="393"/>
      <point x="432" y="393" type="curve"/>
      <point x="417" y="339" type="line"/>
      <point x="213" y="339"/>
      <point x="42" y="416"/>
    </contour>
    <contour>
      <point x="652" y="0" type="line"/>
      <point x="652" y="914" type="line"/>
      <point x="905" y="914" type="line"/>
      <point x="901" y="875" type="line"/>
      <point x="754" y="854" type="line"/>
      <point x="754" y="64" type="line"/>
      <point x="912" y="46" type="line"/>
      <point x="906" y="0" type="line"/>
    </contour>
  </outline>
</glyph>
<glyph name="cedilla" format="1">
  <advance width="328"/>
  <unicode hex="00B8"/>
  <outline>
    <contour>
      <point x="56" y="-347" type="line"/>
      <point x="114" y="-327"/>
      <point x="174" y="-276"/>
      <point x="174" y="-247" type="curve" smooth="yes"/>
      <point x="174" y="-182"/>
      <point x="124" y="-154"/>
      <point x="88" y="-118" type="curve"/>
      <point x="173" y="3" type="line"/>
      <point x="232" y="3" type="line"/>
      <point x="177" y="-76" type="line"/>
      <point x="214" y="-109"/>
      <point x="266" y="-161"/>
      <point x="266" y="-227" type="curve" smooth="yes"/>
      <point x="266" y="-306"/>
      <point x="185" y="-354"/>
      <point x="67" y="-390" type="curve"/>
    </contour>
  </outline>
</glyph>
<glyph name="guillemotright" format="1">
  <advance width="645"/>
  <unicode hex="00BB"/>
  <outline>
    <contour>
      <point x="650" y="469" type="line"/>
      <point x="382" y="822" type="line"/>
      <point x="354" y="786" type="line"/>
      <point x="542" y="462" type="line"/>
      <point x="355" y="116" type="line"/>
      <point x="387" y="78" type="line"/>
      <point x="647" y="449" type="line"/>
    </contour>
    <contour>
      <point x="403" y="469" type="line"/>
      <point x="135" y="822" type="line"/>
      <point x="107" y="786" type="line"/>
      <point x="295" y="462" type="line"/>
      <point x="108" y="116" type="line"/>
      <point x="140" y="78" type="line"/>
      <point x="400" y="449" type="line"/>
    </contour>
  </outline>
</glyph>
<glyph name="onequarter" format="1">
  <advance width="1221"/>
  <unicode hex="00BC"/>
  <outline>
    <contour>
      <point x="44" y="570" type="line"/>
      <point x="45" y="615" type="line"/>
      <point x="210" y="636" type="line"/>
      <point x="210" y="1204" type="line"/>
      <point x="54" y="1204" type="line"/>
      <point x="57" y="1248" type="line"/>
      <point x="293" y="1276" type="line"/>
      <point x="311" y="1276" type="line"/>
      <point x="311" y="634" type="line"/>
      <point x="470" y="625" type="line"/>
      <point x="465" y="570" type="line"/>
    </contour>
    <contour>
      <point x="227" y="-43" type="line"/>
      <point x="573" y="588" type="line"/>
      <point x="889" y="1212" type="line"/>
      <point x="986" y="1207" type="line"/>
      <point x="983" y="1203" type="line"/>
      <point x="652" y="591" type="line"/>
      <point x="328" y="-47" type="line"/>
    </contour>
    <contour>
      <point x="612" y="231" type="line"/>
      <point x="995" y="723" type="line"/>
      <point x="1039" y="716" type="line"/>
      <point x="1033" y="645"/>
      <point x="1031" y="529"/>
      <point x="1031" y="420" type="curve" smooth="yes"/>
      <point x="1031" y="277" type="line"/>
      <point x="1179" y="277" type="line"/>
      <point x="1170" y="202" type="line"/>
      <point x="1031" y="202" type="line"/>
      <point x="1031" y="64" type="line"/>
      <point x="1148" y="45" type="line"/>
      <point x="1142" y="-1" type="line"/>
      <point x="768" y="-1" type="line"/>
      <point x="774" y="41" type="line"/>
      <point x="938" y="68" type="line"/>
      <point x="938" y="205" type="line"/>
      <point x="621" y="205" type="line"/>
    </contour>
    <contour>
      <point x="718" y="277" type="line"/>
      <point x="936" y="277" type="line"/>
      <point x="936" y="557" type="line"/>
    </contour>
  </outline>
</glyph>
<glyph name="onehalf" format="1">
  <advance width="1303"/>
  <unicode hex="00BD"/>
  <outline>
    <contour>
      <point x="44" y="570" type="line"/>
      <point x="45" y="615" type="line"/>
      <point x="210" y="636" type="line"/>
      <point x="210" y="1204" type="line"/>
      <point x="54" y="1204" type="line"/>
      <point x="57" y="1248" type="line"/>
      <point x="293" y="1276" type="line"/>
      <point x="311" y="1276" type="line"/>
      <point x="311" y="634" type="line"/>
      <point x="470" y="625" type="line"/>
      <point x="465" y="570" type="line"/>
    </contour>
    <contour>
      <point x="227" y="-43" type="line"/>
      <point x="573" y="588" type="line"/>
      <point x="889" y="1212" type="line"/>
      <point x="986" y="1207" type="line"/>
      <point x="983" y="1203" type="line"/>
      <point x="652" y="591" type="line"/>
      <point x="328" y="-47" type="line"/>
    </contour>
    <contour>
      <point x="727" y="47" type="line"/>
      <point x="878" y="172" type="line" smooth="yes"/>
      <point x="1041" y="308"/>
      <point x="1106" y="382"/>
      <point x="1106" y="508" type="curve" smooth="yes"/>
      <point x="1106" y="593"/>
      <point x="1059" y="668"/>
      <point x="968" y="668" type="curve" smooth="yes"/>
      <point x="893" y="668"/>
      <point x="862" y="661"/>
      <point x="843" y="647" type="curve"/>
      <point x="817" y="497" type="line"/>
      <point x="775" y="501" type="line"/>
      <point x="780" y="660" type="line"/>
      <point x="812" y="690"/>
      <point x="891" y="724"/>
      <point x="996" y="724" type="curve" smooth="yes"/>
      <point x="1119" y="724"/>
      <point x="1217" y="662"/>
      <point x="1217" y="511" type="curve" smooth="yes"/>
      <point x="1217" y="361"/>
      <point x="1094" y="267"/>
      <point x="864" y="88" type="curve" smooth="yes"/>
      <point x="860" y="85" type="line"/>
      <point x="1176" y="85" type="line"/>
      <point x="1220" y="233" type="line"/>
      <point x="1255" y="230" type="line"/>
      <point x="1235" y="0" type="line"/>
      <point x="730" y="0" type="line"/>
    </contour>
  </outline>
</glyph>
<glyph name="threequarters" format="1">
  <advance width="1229"/>
  <unicode hex="00BE"/>
  <outline>
    <contour>
      <point x="45" y="644" type="curve"/>
      <point x="82" y="786" type="line"/>
      <point x="126" y="781" type="line"/>
      <point x="130" y="662" type="line"/>
      <point x="150" y="628"/>
      <point x="206" y="591"/>
      <point x="269" y="591" type="curve" smooth="yes"/>
      <point x="357" y="591"/>
      <point x="425" y="653"/>
      <point x="425" y="750" type="curve" smooth="yes"/>
      <point x="425" y="856"/>
      <point x="295" y="914"/>
      <point x="183" y="919" type="curve"/>
      <point x="182" y="939" type="line"/>
      <point x="227" y="959"/>
      <point x="379" y="1014"/>
      <point x="379" y="1130" type="curve" smooth="yes"/>
      <point x="379" y="1187"/>
      <point x="339" y="1257"/>
      <point x="272" y="1257" type="curve" smooth="yes"/>
      <point x="216" y="1257"/>
      <point x="188" y="1249"/>
      <point x="168" y="1225" type="curve"/>
      <point x="137" y="1100" type="line"/>
      <point x="87" y="1106" type="line"/>
      <point x="91" y="1245" type="line"/>
      <point x="125" y="1279"/>
      <point x="199" y="1309"/>
      <point x="313" y="1309" type="curve" smooth="yes"/>
      <point x="405" y="1309"/>
      <point x="486" y="1244"/>
      <point x="486" y="1153" type="curve" smooth="yes"/>
      <point x="486" y="1052"/>
      <point x="394" y="992"/>
      <point x="309" y="964" type="curve"/>
      <point x="309" y="958" type="line"/>
      <point x="439" y="942"/>
      <point x="528" y="861"/>
      <point x="528" y="766" type="curve" smooth="yes"/>
      <point x="528" y="632"/>
      <point x="388" y="539"/>
      <point x="250" y="539" type="curve" smooth="yes"/>
      <point x="148" y="539"/>
      <point x="77" y="583"/>
    </contour>
    <contour>
      <point x="235" y="-43" type="line"/>
      <point x="581" y="588" type="line"/>
      <point x="897" y="1212" type="line"/>
      <point x="994" y="1207" type="line"/>
      <point x="991" y="1203" type="line"/>
      <point x="660" y="591" type="line"/>
      <point x="336" y="-47" type="line"/>
    </contour>
    <contour>
      <point x="620" y="231" type="line"/>
      <point x="1003" y="723" type="line"/>
      <point x="1047" y="716" type="line"/>
      <point x="1041" y="645"/>
      <point x="1039" y="529"/>
      <point x="1039" y="420" type="curve" smooth="yes"/>
      <point x="1039" y="277" type="line"/>
      <point x="1187" y="277" type="line"/>
      <point x="1178" y="202" type="line"/>
      <point x="1039" y="202" type="line"/>
      <point x="1039" y="64" type="line"/>
      <point x="1156" y="45" type="line"/>
      <point x="1150" y="-1" type="line"/>
      <point x="776" y="-1" type="line"/>
      <point x="782" y="41" type="line"/>
      <point x="946" y="68" type="line"/>
      <point x="946" y="205" type="line"/>
      <point x="629" y="205" type="line"/>
    </contour>
    <contour>
      <point x="726" y="277" type="line"/>
      <point x="944" y="277" type="line"/>
      <point x="944" y="557" type="line"/>
    </contour>
  </outline>
</glyph>
<glyph name="questiondown" format="1">
  <advance width="605"/>
  <unicode hex="00BF"/>
  <outline>
    <contour>
      <point x="572" y="-267" type="curve" smooth="yes"/>
      <point x="572" y="-331"/>
      <point x="463" y="-387"/>
      <point x="373" y="-387" type="curve" smooth="yes"/>
      <point x="195" y="-387"/>
      <point x="57" y="-205"/>
      <point x="57" y="-26" type="curve" smooth="yes"/>
      <point x="57" y="201"/>
      <point x="367" y="216"/>
      <point x="367" y="391" type="curve" smooth="yes"/>
      <point x="367" y="431"/>
      <point x="347" y="493"/>
      <point x="321" y="541" type="curve"/>
      <point x="360" y="557" type="line"/>
      <point x="405" y="514"/>
      <point x="446" y="437"/>
      <point x="446" y="355" type="curve" smooth="yes"/>
      <point x="446" y="138"/>
      <point x="135" y="103"/>
      <point x="135" y="-47" type="curve" smooth="yes"/>
      <point x="135" y="-164"/>
      <point x="204" y="-283"/>
      <point x="337" y="-283" type="curve" smooth="yes"/>
      <point x="413" y="-283"/>
      <point x="484" y="-252"/>
      <point x="527" y="-206" type="curve"/>
      <point x="554" y="-220"/>
      <point x="572" y="-241"/>
    </contour>
    <contour>
      <point x="381" y="833" type="curve" smooth="yes"/>
      <point x="381" y="779"/>
      <point x="358" y="740"/>
      <point x="324" y="740" type="curve" smooth="yes"/>
      <point x="288" y="740"/>
      <point x="265" y="779"/>
      <point x="265" y="833" type="curve" smooth="yes"/>
      <point x="265" y="891"/>
      <point x="279" y="932"/>
      <point x="324" y="932" type="curve" smooth="yes"/>
      <point x="366" y="932"/>
      <point x="381" y="887"/>
    </contour>
  </outline>
</glyph>
<glyph name="Agrave" format="1">
  <advance width="1286"/>
  <unicode hex="00C0"/>
  <outline>
    <contour>
      <point x="454" y="1667" type="line"/>
      <point x="548" y="1704" type="line"/>
      <point x="681" y="1368" type="line"/>
      <point x="635" y="1341" type="line"/>
    </contour>
    <contour>
      <point x="36" y="0" type="line"/>
      <point x="41" y="42" type="line"/>
      <point x="183" y="72" type="line"/>
      <point x="621" y="1254" type="line"/>
      <point x="674" y="1268" type="line"/>
      <point x="1089" y="66" type="line"/>
      <point x="1221" y="47" type="line"/>
      <point x="1213" y="1" type="line"/>
      <point x="804" y="1" type="line"/>
      <point x="813" y="43" type="line"/>
      <point x="979" y="73" type="line"/>
      <point x="840" y="478" type="line"/>
      <point x="408" y="478" type="line"/>
      <point x="260" y="65" type="line"/>
      <point x="444" y="46" type="line"/>
      <point x="435" y="0" type="line"/>
    </contour>
    <contour>
      <point x="428" y="534" type="line"/>
      <point x="821" y="534" type="line"/>
      <point x="628" y="1085" type="line"/>
    </contour>
  </outline>
</glyph>
<glyph name="Aacute" format="1">
  <advance width="1286"/>
  <unicode hex="00C1"/>
  <outline>
    <contour>
      <point x="617" y="1376" type="line"/>
      <point x="749" y="1713" type="line"/>
      <point x="845" y="1674" type="line"/>
      <point x="662" y="1350" type="line"/>
    </contour>
    <contour>
      <point x="36" y="0" type="line"/>
      <point x="41" y="42" type="line"/>
      <point x="183" y="72" type="line"/>
      <point x="621" y="1254" type="line"/>
      <point x="674" y="1268" type="line"/>
      <point x="1089" y="66" type="line"/>
      <point x="1221" y="47" type="line"/>
      <point x="1213" y="1" type="line"/>
      <point x="804" y="1" type="line"/>
      <point x="813" y="43" type="line"/>
      <point x="979" y="73" type="line"/>
      <point x="840" y="478" type="line"/>
      <point x="408" y="478" type="line"/>
      <point x="260" y="65" type="line"/>
      <point x="444" y="46" type="line"/>
      <point x="435" y="0" type="line"/>
    </contour>
    <contour>
      <point x="428" y="534" type="line"/>
      <point x="821" y="534" type="line"/>
      <point x="628" y="1085" type="line"/>
    </contour>
  </outline>
</glyph>
<glyph name="Acircumflex" format="1">
  <advance width="1287"/>
  <unicode hex="00C2"/>
  <outline>
    <contour>
      <point x="457" y="1394" type="line"/>
      <point x="624" y="1575" type="line"/>
      <point x="678" y="1588" type="line"/>
      <point x="857" y="1402" type="line"/>
      <point x="825" y="1365" type="line"/>
      <point x="644" y="1500" type="line"/>
      <point x="635" y="1500" type="line"/>
      <point x="478" y="1364" type="line"/>
    </contour>
    <contour>
      <point x="36" y="0" type="line"/>
      <point x="41" y="42" type="line"/>
      <point x="183" y="72" type="line"/>
      <point x="621" y="1254" type="line"/>
      <point x="674" y="1268" type="line"/>
      <point x="1089" y="66" type="line"/>
      <point x="1221" y="47" type="line"/>
      <point x="1213" y="1" type="line"/>
      <point x="804" y="1" type="line"/>
      <point x="813" y="43" type="line"/>
      <point x="979" y="73" type="line"/>
      <point x="840" y="478" type="line"/>
      <point x="408" y="478" type="line"/>
      <point x="260" y="65" type="line"/>
      <point x="444" y="46" type="line"/>
      <point x="435" y="0" type="line"/>
    </contour>
    <contour>
      <point x="428" y="534" type="line"/>
      <point x="821" y="534" type="line"/>
      <point x="628" y="1085" type="line"/>
    </contour>
  </outline>
</glyph>
<glyph name="Atilde" format="1">
  <advance width="1288"/>
  <unicode hex="00C3"/>
  <outline>
    <contour>
      <point x="52" y="0" type="line"/>
      <point x="57" y="42" type="line"/>
      <point x="199" y="72" type="line"/>
      <point x="637" y="1254" type="line"/>
      <point x="690" y="1268" type="line"/>
      <point x="1105" y="66" type="line"/>
      <point x="1237" y="47" type="line"/>
      <point x="1229" y="1" type="line"/>
      <point x="820" y="1" type="line"/>
      <point x="829" y="43" type="line"/>
      <point x="995" y="73" type="line"/>
      <point x="856" y="478" type="line"/>
      <point x="424" y="478" type="line"/>
      <point x="276" y="65" type="line"/>
      <point x="460" y="46" type="line"/>
      <point x="451" y="0" type="line"/>
    </contour>
    <contour>
      <point x="444" y="534" type="line"/>
      <point x="837" y="534" type="line"/>
      <point x="644" y="1085" type="line"/>
    </contour>
    <contour>
      <point x="452.5" y="1404" type="line"/>
      <point x="484.5" y="1565"/>
      <point x="579.278" y="1576.58"/>
      <point x="651.5" y="1536.2" type="curve" smooth="yes"/>
      <point x="724.5" y="1495.37" type="line" smooth="yes"/>
      <point x="792.645" y="1457.26"/>
      <point x="847.5" y="1435"/>
      <point x="890.5" y="1556" type="curve"/>
      <point x="922.5" y="1548" type="line"/>
      <point x="893.5" y="1404"/>
      <point x="814.373" y="1365.59"/>
      <point x="722.5" y="1416.22" type="curve" smooth="yes"/>
      <point x="650.5" y="1455.9" type="line" smooth="yes"/>
      <point x="584.944" y="1492.03"/>
      <point x="529.5" y="1522"/>
      <point x="483.5" y="1396" type="curve"/>
    </contour>
  </outline>
</glyph>
<glyph name="Adieresis" format="1">
  <advance width="1287"/>
  <unicode hex="00C4"/>
  <outline>
    <contour>
      <point x="36" y="0" type="line"/>
      <point x="41" y="42" type="line"/>
      <point x="183" y="72" type="line"/>
      <point x="621" y="1254" type="line"/>
      <point x="674" y="1268" type="line"/>
      <point x="1089" y="66" type="line"/>
      <point x="1221" y="47" type="line"/>
      <point x="1213" y="1" type="line"/>
      <point x="804" y="1" type="line"/>
      <point x="813" y="43" type="line"/>
      <point x="979" y="73" type="line"/>
      <point x="840" y="478" type="line"/>
      <point x="408" y="478" type="line"/>
      <point x="260" y="65" type="line"/>
      <point x="444" y="46" type="line"/>
      <point x="435" y="0" type="line"/>
    </contour>
    <contour>
      <point x="428" y="534" type="line"/>
      <point x="821" y="534" type="line"/>
      <point x="628" y="1085" type="line"/>
    </contour>
    <contour>
      <point x="452" y="1465" type="curve" smooth="yes"/>
      <point x="452" y="1515"/>
      <point x="468" y="1543"/>
      <point x="507" y="1543" type="curve" smooth="yes"/>
      <point x="544" y="1543"/>
      <point x="565" y="1516"/>
      <point x="565" y="1465" type="curve" smooth="yes"/>
      <point x="565" y="1412"/>
      <point x="551" y="1384"/>
      <point x="509" y="1384" type="curve" smooth="yes"/>
      <point x="467" y="1384"/>
      <point x="452" y="1414"/>
    </contour>
    <contour>
      <point x="721" y="1465" type="curve" smooth="yes"/>
      <point x="721" y="1515"/>
      <point x="736" y="1543"/>
      <point x="775" y="1543" type="curve" smooth="yes"/>
      <point x="812" y="1543"/>
      <point x="833" y="1516"/>
      <point x="833" y="1465" type="curve" smooth="yes"/>
      <point x="833" y="1412"/>
      <point x="818" y="1384"/>
      <point x="776" y="1384" type="curve" smooth="yes"/>
      <point x="734" y="1384"/>
      <point x="721" y="1414"/>
    </contour>
  </outline>
</glyph>
<glyph name="Aring" format="1">
  <advance width="1286"/>
  <unicode hex="00C5"/>
  <outline>
    <contour>
      <point x="492" y="1505" type="curve" smooth="yes"/>
      <point x="492" y="1597"/>
      <point x="566" y="1676"/>
      <point x="660" y="1676" type="curve" smooth="yes"/>
      <point x="757" y="1676"/>
      <point x="818" y="1608"/>
      <point x="818" y="1514" type="curve" smooth="yes"/>
      <point x="818" y="1423"/>
      <point x="750" y="1339"/>
      <point x="648" y="1339" type="curve" smooth="yes"/>
      <point x="556" y="1339"/>
      <point x="492" y="1403"/>
    </contour>
    <contour>
      <point x="557" y="1516" type="curve" smooth="yes"/>
      <point x="557" y="1452"/>
      <point x="589" y="1380"/>
      <point x="658" y="1380" type="curve" smooth="yes"/>
      <point x="717" y="1380"/>
      <point x="752" y="1423"/>
      <point x="752" y="1499" type="curve" smooth="yes"/>
      <point x="752" y="1565"/>
      <point x="714" y="1636"/>
      <point x="648" y="1636" type="curve" smooth="yes"/>
      <point x="584" y="1636"/>
      <point x="557" y="1576"/>
    </contour>
    <contour>
      <point x="36" y="0" type="line"/>
      <point x="41" y="42" type="line"/>
      <point x="183" y="72" type="line"/>
      <point x="621" y="1254" type="line"/>
      <point x="674" y="1268" type="line"/>
      <point x="1089" y="66" type="line"/>
      <point x="1221" y="47" type="line"/>
      <point x="1213" y="1" type="line"/>
      <point x="804" y="1" type="line"/>
      <point x="813" y="43" type="line"/>
      <point x="979" y="73" type="line"/>
      <point x="840" y="478" type="line"/>
      <point x="408" y="478" type="line"/>
      <point x="260" y="65" type="line"/>
      <point x="444" y="46" type="line"/>
      <point x="435" y="0" type="line"/>
    </contour>
    <contour>
      <point x="428" y="534" type="line"/>
      <point x="821" y="534" type="line"/>
      <point x="628" y="1085" type="line"/>
    </contour>
  </outline>
</glyph>
<glyph name="Ccedilla" format="1">
  <advance width="1061"/>
  <unicode hex="00C7"/>
  <outline>
    <contour>
      <point x="465" y="-347" type="line"/>
      <point x="523" y="-327"/>
      <point x="583" y="-276"/>
      <point x="583" y="-247" type="curve" smooth="yes"/>
      <point x="583" y="-182"/>
      <point x="533" y="-154"/>
      <point x="497" y="-118" type="curve"/>
      <point x="582" y="3" type="line"/>
      <point x="641" y="3" type="line"/>
      <point x="586" y="-76" type="line"/>
      <point x="623" y="-109"/>
      <point x="675" y="-161"/>
      <point x="675" y="-227" type="curve" smooth="yes"/>
      <point x="675" y="-306"/>
      <point x="594" y="-354"/>
      <point x="476" y="-390" type="curve"/>
    </contour>
    <contour>
      <point x="33" y="607" type="curve" smooth="yes"/>
      <point x="33" y="903"/>
      <point x="213" y="1271"/>
      <point x="596" y="1271" type="curve" smooth="yes"/>
      <point x="729" y="1271"/>
      <point x="839" y="1244"/>
      <point x="936" y="1171" type="curve"/>
      <point x="905" y="834" type="line"/>
      <point x="858" y="842" type="line"/>
      <point x="828" y="1101" type="line"/>
      <point x="782" y="1161"/>
      <point x="708" y="1215"/>
      <point x="549" y="1215" type="curve" smooth="yes"/>
      <point x="331" y="1215"/>
      <point x="139" y="984"/>
      <point x="139" y="643" type="curve" smooth="yes"/>
      <point x="139" y="269"/>
      <point x="302" y="54"/>
      <point x="590" y="54" type="curve" smooth="yes"/>
      <point x="744" y="54"/>
      <point x="886" y="150"/>
      <point x="968" y="243" type="curve"/>
      <point x="991" y="206" type="line"/>
      <point x="928" y="112"/>
      <point x="760" y="-26"/>
      <point x="544" y="-26" type="curve" smooth="yes"/>
      <point x="238" y="-26"/>
      <point x="33" y="222"/>
    </contour>
  </outline>
</glyph>
<glyph name="Egrave" format="1">
  <advance width="1064"/>
  <unicode hex="00C8"/>
  <outline>
    <contour>
      <point x="328" y="1667" type="line"/>
      <point x="422" y="1704" type="line"/>
      <point x="555" y="1368" type="line"/>
      <point x="509" y="1341" type="line"/>
    </contour>
    <contour>
      <point x="20" y="1202" type="line"/>
      <point x="27" y="1244" type="line"/>
      <point x="933" y="1244" type="line"/>
      <point x="902" y="925" type="line"/>
      <point x="856" y="931" type="line"/>
      <point x="837" y="1193" type="line"/>
      <point x="303" y="1193" type="line"/>
      <point x="303" y="659" type="line"/>
      <point x="638" y="659" type="line"/>
      <point x="675" y="798" type="line"/>
      <point x="729" y="806" type="line"/>
      <point x="696" y="417" type="line"/>
      <point x="645" y="408" type="line"/>
      <point x="629" y="605" type="line"/>
      <point x="303" y="605" type="line"/>
      <point x="303" y="54" type="line"/>
      <point x="865" y="54" type="line"/>
      <point x="939" y="323" type="line"/>
      <point x="980" y="313" type="line"/>
      <point x="950" y="0" type="line"/>
      <point x="23" y="0" type="line"/>
      <point x="29" y="42" type="line"/>
      <point x="199" y="72" type="line"/>
      <point x="199" y="1175" type="line"/>
    </contour>
  </outline>
</glyph>
<glyph name="Eacute" format="1">
  <advance width="1064"/>
  <unicode hex="00C9"/>
  <outline>
    <contour>
      <point x="378" y="1376" type="line"/>
      <point x="510" y="1713" type="line"/>
      <point x="606" y="1674" type="line"/>
      <point x="423" y="1350" type="line"/>
    </contour>
    <contour>
      <point x="20" y="1202" type="line"/>
      <point x="27" y="1244" type="line"/>
      <point x="933" y="1244" type="line"/>
      <point x="902" y="925" type="line"/>
      <point x="856" y="931" type="line"/>
      <point x="837" y="1193" type="line"/>
      <point x="303" y="1193" type="line"/>
      <point x="303" y="659" type="line"/>
      <point x="638" y="659" type="line"/>
      <point x="675" y="798" type="line"/>
      <point x="729" y="806" type="line"/>
      <point x="696" y="417" type="line"/>
      <point x="645" y="408" type="line"/>
      <point x="629" y="605" type="line"/>
      <point x="303" y="605" type="line"/>
      <point x="303" y="54" type="line"/>
      <point x="865" y="54" type="line"/>
      <point x="939" y="323" type="line"/>
      <point x="980" y="313" type="line"/>
      <point x="950" y="0" type="line"/>
      <point x="23" y="0" type="line"/>
      <point x="29" y="42" type="line"/>
      <point x="199" y="72" type="line"/>
      <point x="199" y="1175" type="line"/>
    </contour>
  </outline>
</glyph>
<glyph name="Ecircumflex" format="1">
  <advance width="1064"/>
  <unicode hex="00CA"/>
  <outline>
    <contour>
      <point x="351" y="1394" type="line"/>
      <point x="518" y="1575" type="line"/>
      <point x="572" y="1588" type="line"/>
      <point x="751" y="1402" type="line"/>
      <point x="719" y="1365" type="line"/>
      <point x="538" y="1500" type="line"/>
      <point x="529" y="1500" type="line"/>
      <point x="372" y="1364" type="line"/>
    </contour>
    <contour>
      <point x="20" y="1202" type="line"/>
      <point x="27" y="1244" type="line"/>
      <point x="933" y="1244" type="line"/>
      <point x="902" y="925" type="line"/>
      <point x="856" y="931" type="line"/>
      <point x="837" y="1193" type="line"/>
      <point x="303" y="1193" type="line"/>
      <point x="303" y="659" type="line"/>
      <point x="638" y="659" type="line"/>
      <point x="675" y="798" type="line"/>
      <point x="729" y="806" type="line"/>
      <point x="696" y="417" type="line"/>
      <point x="645" y="408" type="line"/>
      <point x="629" y="605" type="line"/>
      <point x="303" y="605" type="line"/>
      <point x="303" y="54" type="line"/>
      <point x="865" y="54" type="line"/>
      <point x="939" y="323" type="line"/>
      <point x="980" y="313" type="line"/>
      <point x="950" y="0" type="line"/>
      <point x="23" y="0" type="line"/>
      <point x="29" y="42" type="line"/>
      <point x="199" y="72" type="line"/>
      <point x="199" y="1175" type="line"/>
    </contour>
  </outline>
</glyph>
<glyph name="Edieresis" format="1">
  <advance width="1064"/>
  <unicode hex="00CB"/>
  <outline>
    <contour>
      <point x="348" y="1454" type="curve" smooth="yes"/>
      <point x="348" y="1504"/>
      <point x="364" y="1532"/>
      <point x="403" y="1532" type="curve" smooth="yes"/>
      <point x="440" y="1532"/>
      <point x="461" y="1505"/>
      <point x="461" y="1454" type="curve" smooth="yes"/>
      <point x="461" y="1401"/>
      <point x="447" y="1373"/>
      <point x="405" y="1373" type="curve" smooth="yes"/>
      <point x="363" y="1373"/>
      <point x="348" y="1403"/>
    </contour>
    <contour>
      <point x="617" y="1454" type="curve" smooth="yes"/>
      <point x="617" y="1504"/>
      <point x="632" y="1532"/>
      <point x="671" y="1532" type="curve" smooth="yes"/>
      <point x="708" y="1532"/>
      <point x="729" y="1505"/>
      <point x="729" y="1454" type="curve" smooth="yes"/>
      <point x="729" y="1401"/>
      <point x="714" y="1373"/>
      <point x="672" y="1373" type="curve" smooth="yes"/>
      <point x="630" y="1373"/>
      <point x="617" y="1403"/>
    </contour>
    <contour>
      <point x="20" y="1202" type="line"/>
      <point x="27" y="1244" type="line"/>
      <point x="933" y="1244" type="line"/>
      <point x="902" y="925" type="line"/>
      <point x="856" y="931" type="line"/>
      <point x="837" y="1193" type="line"/>
      <point x="303" y="1193" type="line"/>
      <point x="303" y="659" type="line"/>
      <point x="638" y="659" type="line"/>
      <point x="675" y="798" type="line"/>
      <point x="729" y="806" type="line"/>
      <point x="696" y="417" type="line"/>
      <point x="645" y="408" type="line"/>
      <point x="629" y="605" type="line"/>
      <point x="303" y="605" type="line"/>
      <point x="303" y="54" type="line"/>
      <point x="865" y="54" type="line"/>
      <point x="939" y="323" type="line"/>
      <point x="980" y="313" type="line"/>
      <point x="950" y="0" type="line"/>
      <point x="23" y="0" type="line"/>
      <point x="29" y="42" type="line"/>
      <point x="199" y="72" type="line"/>
      <point x="199" y="1175" type="line"/>
    </contour>
  </outline>
</glyph>
<glyph name="Igrave" format="1">
  <advance width="573"/>
  <unicode hex="00CC"/>
  <outline>
    <contour>
      <point x="83" y="1667" type="line"/>
      <point x="177" y="1704" type="line"/>
      <point x="310" y="1368" type="line"/>
      <point x="264" y="1341" type="line"/>
    </contour>
    <contour>
      <point x="23" y="1205" type="line"/>
      <point x="29" y="1244" type="line"/>
      <point x="486" y="1244" type="line"/>
      <point x="479" y="1205" type="line"/>
      <point x="304" y="1182" type="line"/>
      <point x="304" y="65" type="line"/>
      <point x="497" y="46" type="line"/>
      <point x="488" y="0" type="line"/>
      <point x="33" y="0" type="line"/>
      <point x="38" y="42" type="line"/>
      <point x="196" y="72" type="line"/>
      <point x="196" y="1180" type="line"/>
    </contour>
  </outline>
</glyph>
<glyph name="Iacute" format="1">
  <advance width="572"/>
  <unicode hex="00CD"/>
  <outline>
    <contour>
      <point x="206" y="1376" type="line"/>
      <point x="338" y="1713" type="line"/>
      <point x="434" y="1674" type="line"/>
      <point x="251" y="1350" type="line"/>
    </contour>
    <contour>
      <point x="22" y="1205" type="line"/>
      <point x="28" y="1244" type="line"/>
      <point x="485" y="1244" type="line"/>
      <point x="478" y="1205" type="line"/>
      <point x="303" y="1182" type="line"/>
      <point x="303" y="65" type="line"/>
      <point x="496" y="46" type="line"/>
      <point x="487" y="0" type="line"/>
      <point x="32" y="0" type="line"/>
      <point x="37" y="42" type="line"/>
      <point x="195" y="72" type="line"/>
      <point x="195" y="1180" type="line"/>
    </contour>
  </outline>
</glyph>
<glyph name="Icircumflex" format="1">
  <advance width="623"/>
  <unicode hex="00CE"/>
  <outline>
    <contour>
      <point x="52" y="1394" type="line"/>
      <point x="219" y="1575" type="line"/>
      <point x="273" y="1588" type="line"/>
      <point x="452" y="1402" type="line"/>
      <point x="420" y="1365" type="line"/>
      <point x="239" y="1500" type="line"/>
      <point x="230" y="1500" type="line"/>
      <point x="73" y="1364" type="line"/>
    </contour>
    <contour>
      <point x="23" y="1205" type="line"/>
      <point x="29" y="1244" type="line"/>
      <point x="486" y="1244" type="line"/>
      <point x="479" y="1205" type="line"/>
      <point x="304" y="1182" type="line"/>
      <point x="304" y="65" type="line"/>
      <point x="497" y="46" type="line"/>
      <point x="488" y="0" type="line"/>
      <point x="33" y="0" type="line"/>
      <point x="38" y="42" type="line"/>
      <point x="196" y="72" type="line"/>
      <point x="196" y="1180" type="line"/>
    </contour>
  </outline>
</glyph>
<glyph name="Idieresis" format="1">
  <advance width="588"/>
  <unicode hex="00CF"/>
  <outline>
    <contour>
      <point x="67" y="1454" type="curve" smooth="yes"/>
      <point x="67" y="1504"/>
      <point x="83" y="1532"/>
      <point x="122" y="1532" type="curve" smooth="yes"/>
      <point x="159" y="1532"/>
      <point x="180" y="1505"/>
      <point x="180" y="1454" type="curve" smooth="yes"/>
      <point x="180" y="1401"/>
      <point x="166" y="1373"/>
      <point x="124" y="1373" type="curve" smooth="yes"/>
      <point x="82" y="1373"/>
      <point x="67" y="1403"/>
    </contour>
    <contour>
      <point x="336" y="1454" type="curve" smooth="yes"/>
      <point x="336" y="1504"/>
      <point x="351" y="1532"/>
      <point x="390" y="1532" type="curve" smooth="yes"/>
      <point x="427" y="1532"/>
      <point x="448" y="1505"/>
      <point x="448" y="1454" type="curve" smooth="yes"/>
      <point x="448" y="1401"/>
      <point x="433" y="1373"/>
      <point x="391" y="1373" type="curve" smooth="yes"/>
      <point x="349" y="1373"/>
      <point x="336" y="1403"/>
    </contour>
    <contour>
      <point x="23" y="1205" type="line"/>
      <point x="29" y="1244" type="line"/>
      <point x="486" y="1244" type="line"/>
      <point x="479" y="1205" type="line"/>
      <point x="304" y="1182" type="line"/>
      <point x="304" y="65" type="line"/>
      <point x="497" y="46" type="line"/>
      <point x="488" y="0" type="line"/>
      <point x="33" y="0" type="line"/>
      <point x="38" y="42" type="line"/>
      <point x="196" y="72" type="line"/>
      <point x="196" y="1180" type="line"/>
    </contour>
  </outline>
</glyph>
<glyph name="Eth" format="1">
  <advance width="1267"/>
  <unicode hex="00D0"/>
  <outline>
    <contour>
      <point x="48" y="592" type="line"/>
      <point x="57" y="653" type="line"/>
      <point x="229" y="664" type="line"/>
      <point x="229" y="1153" type="line"/>
      <point x="57" y="1175" type="line"/>
      <point x="67" y="1211" type="line"/>
      <point x="264" y="1242"/>
      <point x="395" y="1259"/>
      <point x="541" y="1259" type="curve" smooth="yes"/>
      <point x="1049" y="1259"/>
      <point x="1212" y="963"/>
      <point x="1212" y="655" type="curve" smooth="yes"/>
      <point x="1212" y="313"/>
      <point x="996" y="0"/>
      <point x="483" y="0" type="curve" smooth="yes"/>
      <point x="52" y="0" type="line"/>
      <point x="60" y="42" type="line"/>
      <point x="229" y="72" type="line"/>
      <point x="229" y="605" type="line"/>
    </contour>
    <contour>
      <point x="330" y="54" type="line"/>
      <point x="510" y="54" type="line" smooth="yes"/>
      <point x="864" y="54"/>
      <point x="1098" y="267"/>
      <point x="1098" y="599" type="curve" smooth="yes"/>
      <point x="1098" y="962"/>
      <point x="893" y="1205"/>
      <point x="504" y="1205" type="curve" smooth="yes"/>
      <point x="462" y="1205"/>
      <point x="372" y="1207"/>
      <point x="330" y="1201" type="curve"/>
      <point x="330" y="672" type="line"/>
      <point x="617" y="691" type="line"/>
      <point x="609" y="631" type="line"/>
      <point x="330" y="612" type="line"/>
    </contour>
  </outline>
</glyph>
<glyph name="Ntilde" format="1">
  <advance width="1346"/>
  <unicode hex="00D1"/>
  <outline>
    <contour>
      <point x="47" y="1208" type="line"/>
      <point x="55" y="1244" type="line"/>
      <point x="353" y="1244" type="line"/>
      <point x="1069" y="189" type="line"/>
      <point x="1069" y="1180" type="line"/>
      <point x="886" y="1205" type="line"/>
      <point x="892" y="1244" type="line"/>
      <point x="1316" y="1244" type="line"/>
      <point x="1308" y="1205" type="line"/>
      <point x="1142" y="1182" type="line"/>
      <point x="1142" y="-7" type="line"/>
      <point x="1088" y="-18" type="line"/>
      <point x="306" y="1133" type="line"/>
      <point x="306" y="65" type="line"/>
      <point x="490" y="46" type="line"/>
      <point x="480" y="0" type="line"/>
      <point x="59" y="0" type="line"/>
      <point x="65" y="42" type="line"/>
      <point x="232" y="72" type="line"/>
      <point x="232" y="1175" type="line"/>
    </contour>
    <contour>
      <point x="418" y="1384" type="line"/>
      <point x="450" y="1545"/>
      <point x="544.778" y="1556.58"/>
      <point x="617" y="1516.2" type="curve" smooth="yes"/>
      <point x="690" y="1475.37" type="line" smooth="yes"/>
      <point x="758.145" y="1437.26"/>
      <point x="813" y="1415"/>
      <point x="856" y="1536" type="curve"/>
      <point x="888" y="1528" type="line"/>
      <point x="859" y="1384"/>
      <point x="779.873" y="1345.59"/>
      <point x="688" y="1396.22" type="curve" smooth="yes"/>
      <point x="616" y="1435.9" type="line" smooth="yes"/>
      <point x="550.444" y="1472.03"/>
      <point x="495" y="1502"/>
      <point x="449" y="1376" type="curve"/>
    </contour>
  </outline>
</glyph>
<glyph name="Oacute" format="1">
  <advance width="1221"/>
  <unicode hex="00D3"/>
  <outline>
    <contour>
      <point x="541" y="1376" type="line"/>
      <point x="673" y="1713" type="line"/>
      <point x="769" y="1674" type="line"/>
      <point x="586" y="1350" type="line"/>
    </contour>
    <contour>
      <point x="33" y="620" type="curve" smooth="yes"/>
      <point x="33" y="1005"/>
      <point x="270" y="1274"/>
      <point x="648" y="1274" type="curve" smooth="yes"/>
      <point x="993" y="1274"/>
      <point x="1174" y="996"/>
      <point x="1174" y="627" type="curve" smooth="yes"/>
      <point x="1174" y="321"/>
      <point x="988" y="-27"/>
      <point x="576" y="-27" type="curve" smooth="yes"/>
      <point x="246" y="-27"/>
      <point x="33" y="267"/>
    </contour>
    <contour>
      <point x="143" y="669" type="curve" smooth="yes"/>
      <point x="143" y="306"/>
      <point x="317" y="37"/>
      <point x="624" y="37" type="curve" smooth="yes"/>
      <point x="919" y="37"/>
      <point x="1066" y="297"/>
      <point x="1066" y="573" type="curve" smooth="yes"/>
      <point x="1066" y="954"/>
      <point x="889" y="1218"/>
      <point x="600" y="1218" type="curve" smooth="yes"/>
      <point x="290" y="1218"/>
      <point x="143" y="935"/>
    </contour>
  </outline>
</glyph>
<glyph name="Ocircumflex" format="1">
  <advance width="1221"/>
  <unicode hex="00D4"/>
  <outline>
    <contour>
      <point x="409" y="1394" type="line"/>
      <point x="576" y="1575" type="line"/>
      <point x="630" y="1588" type="line"/>
      <point x="809" y="1402" type="line"/>
      <point x="777" y="1365" type="line"/>
      <point x="596" y="1500" type="line"/>
      <point x="587" y="1500" type="line"/>
      <point x="430" y="1364" type="line"/>
    </contour>
    <contour>
      <point x="33" y="620" type="curve" smooth="yes"/>
      <point x="33" y="1005"/>
      <point x="270" y="1274"/>
      <point x="648" y="1274" type="curve" smooth="yes"/>
      <point x="993" y="1274"/>
      <point x="1174" y="996"/>
      <point x="1174" y="627" type="curve" smooth="yes"/>
      <point x="1174" y="321"/>
      <point x="988" y="-27"/>
      <point x="576" y="-27" type="curve" smooth="yes"/>
      <point x="246" y="-27"/>
      <point x="33" y="267"/>
    </contour>
    <contour>
      <point x="143" y="669" type="curve" smooth="yes"/>
      <point x="143" y="306"/>
      <point x="317" y="37"/>
      <point x="624" y="37" type="curve" smooth="yes"/>
      <point x="919" y="37"/>
      <point x="1066" y="297"/>
      <point x="1066" y="573" type="curve" smooth="yes"/>
      <point x="1066" y="954"/>
      <point x="889" y="1218"/>
      <point x="600" y="1218" type="curve" smooth="yes"/>
      <point x="290" y="1218"/>
      <point x="143" y="935"/>
    </contour>
  </outline>
</glyph>
<glyph name="Otilde" format="1">
  <advance width="1221"/>
  <unicode hex="00D5"/>
  <outline>
    <contour>
      <point x="54" y="620" type="curve" smooth="yes"/>
      <point x="54" y="1005"/>
      <point x="291" y="1274"/>
      <point x="669" y="1274" type="curve" smooth="yes"/>
      <point x="1014" y="1274"/>
      <point x="1195" y="996"/>
      <point x="1195" y="627" type="curve" smooth="yes"/>
      <point x="1195" y="321"/>
      <point x="1009" y="-27"/>
      <point x="597" y="-27" type="curve" smooth="yes"/>
      <point x="267" y="-27"/>
      <point x="54" y="267"/>
    </contour>
    <contour>
      <point x="164" y="669" type="curve" smooth="yes"/>
      <point x="164" y="306"/>
      <point x="338" y="37"/>
      <point x="645" y="37" type="curve" smooth="yes"/>
      <point x="940" y="37"/>
      <point x="1087" y="297"/>
      <point x="1087" y="573" type="curve" smooth="yes"/>
      <point x="1087" y="954"/>
      <point x="910" y="1218"/>
      <point x="621" y="1218" type="curve" smooth="yes"/>
      <point x="311" y="1218"/>
      <point x="164" y="935"/>
    </contour>
    <contour>
      <point x="431.5" y="1404" type="line"/>
      <point x="463.5" y="1565"/>
      <point x="558.278" y="1576.58"/>
      <point x="630.5" y="1536.2" type="curve" smooth="yes"/>
      <point x="703.5" y="1495.37" type="line" smooth="yes"/>
      <point x="771.645" y="1457.26"/>
      <point x="826.5" y="1435"/>
      <point x="869.5" y="1556" type="curve"/>
      <point x="901.5" y="1548" type="line"/>
      <point x="872.5" y="1404"/>
      <point x="793.373" y="1365.59"/>
      <point x="701.5" y="1416.22" type="curve" smooth="yes"/>
      <point x="629.5" y="1455.9" type="line" smooth="yes"/>
      <point x="563.944" y="1492.03"/>
      <point x="508.5" y="1522"/>
      <point x="462.5" y="1396" type="curve"/>
    </contour>
  </outline>
</glyph>
<glyph name="Odieresis" format="1">
  <advance width="1221"/>
  <unicode hex="00D6"/>
  <outline>
    <contour>
      <point x="424" y="1454" type="curve" smooth="yes"/>
      <point x="424" y="1504"/>
      <point x="440" y="1532"/>
      <point x="479" y="1532" type="curve" smooth="yes"/>
      <point x="516" y="1532"/>
      <point x="537" y="1505"/>
      <point x="537" y="1454" type="curve" smooth="yes"/>
      <point x="537" y="1401"/>
      <point x="523" y="1373"/>
      <point x="481" y="1373" type="curve" smooth="yes"/>
      <point x="439" y="1373"/>
      <point x="424" y="1403"/>
    </contour>
    <contour>
      <point x="693" y="1454" type="curve" smooth="yes"/>
      <point x="693" y="1504"/>
      <point x="708" y="1532"/>
      <point x="747" y="1532" type="curve" smooth="yes"/>
      <point x="784" y="1532"/>
      <point x="805" y="1505"/>
      <point x="805" y="1454" type="curve" smooth="yes"/>
      <point x="805" y="1401"/>
      <point x="790" y="1373"/>
      <point x="748" y="1373" type="curve" smooth="yes"/>
      <point x="706" y="1373"/>
      <point x="693" y="1403"/>
    </contour>
    <contour>
      <point x="33" y="620" type="curve" smooth="yes"/>
      <point x="33" y="1005"/>
      <point x="270" y="1274"/>
      <point x="648" y="1274" type="curve" smooth="yes"/>
      <point x="993" y="1274"/>
      <point x="1174" y="996"/>
      <point x="1174" y="627" type="curve" smooth="yes"/>
      <point x="1174" y="321"/>
      <point x="988" y="-27"/>
      <point x="576" y="-27" type="curve" smooth="yes"/>
      <point x="246" y="-27"/>
      <point x="33" y="267"/>
    </contour>
    <contour>
      <point x="143" y="669" type="curve" smooth="yes"/>
      <point x="143" y="306"/>
      <point x="317" y="37"/>
      <point x="624" y="37" type="curve" smooth="yes"/>
      <point x="919" y="37"/>
      <point x="1066" y="297"/>
      <point x="1066" y="573" type="curve" smooth="yes"/>
      <point x="1066" y="954"/>
      <point x="889" y="1218"/>
      <point x="600" y="1218" type="curve" smooth="yes"/>
      <point x="290" y="1218"/>
      <point x="143" y="935"/>
    </contour>
  </outline>
</glyph>
<glyph name="multiply" format="1">
  <advance width="562"/>
  <unicode hex="00D7"/>
  <outline>
    <contour>
      <point x="56" y="294" type="line"/>
      <point x="240" y="462" type="line"/>
      <point x="58" y="630" type="line"/>
      <point x="116" y="678" type="line"/>
      <point x="280" y="496" type="line"/>
      <point x="452" y="680" type="line"/>
      <point x="498" y="622" type="line"/>
      <point x="318" y="459" type="line"/>
      <point x="506" y="287" type="line"/>
      <point x="448" y="242" type="line"/>
      <point x="277" y="425" type="line"/>
      <point x="102" y="236" type="line"/>
    </contour>
  </outline>
</glyph>
<glyph name="Ugrave" format="1">
  <advance width="1356"/>
  <unicode hex="00D9"/>
  <outline>
    <contour>
      <point x="515" y="1667" type="line"/>
      <point x="609" y="1704" type="line"/>
      <point x="742" y="1368" type="line"/>
      <point x="696" y="1341" type="line"/>
    </contour>
    <contour>
      <point x="54" y="1205" type="line"/>
      <point x="58" y="1244" type="line"/>
      <point x="512" y="1244" type="line"/>
      <point x="508" y="1205" type="line"/>
      <point x="339" y="1182" type="line"/>
      <point x="339" y="485" type="line" smooth="yes"/>
      <point x="339" y="148"/>
      <point x="499" y="42"/>
      <point x="731" y="42" type="curve" smooth="yes"/>
      <point x="964" y="42"/>
      <point x="1101" y="164"/>
      <point x="1101" y="449" type="curve" smooth="yes"/>
      <point x="1101" y="1180" type="line"/>
      <point x="915" y="1205" type="line"/>
      <point x="920" y="1244" type="line"/>
      <point x="1345" y="1244" type="line"/>
      <point x="1337" y="1205" type="line"/>
      <point x="1171" y="1182" type="line"/>
      <point x="1168" y="490" type="line" smooth="yes"/>
      <point x="1166" y="144"/>
      <point x="1034" y="-27"/>
      <point x="698" y="-27" type="curve" smooth="yes"/>
      <point x="454" y="-27"/>
      <point x="235" y="60"/>
      <point x="235" y="452" type="curve" smooth="yes"/>
      <point x="235" y="1180" type="line"/>
    </contour>
  </outline>
</glyph>
<glyph name="Yacute" format="1">
  <advance width="1180"/>
  <unicode hex="00DD"/>
  <outline>
    <contour>
      <point x="514" y="1376" type="line"/>
      <point x="646" y="1713" type="line"/>
      <point x="742" y="1674" type="line"/>
      <point x="559" y="1350" type="line"/>
    </contour>
    <contour>
      <point x="54" y="1207" type="line"/>
      <point x="58" y="1243" type="line"/>
      <point x="475" y="1243" type="line"/>
      <point x="471" y="1207" type="line"/>
      <point x="305" y="1181" type="line"/>
      <point x="618" y="571" type="line"/>
      <point x="928" y="1178" type="line"/>
      <point x="743" y="1208" type="line"/>
      <point x="745" y="1244" type="line"/>
      <point x="1135" y="1244" type="line"/>
      <point x="1132" y="1208" type="line"/>
      <point x="1003" y="1182" type="line"/>
      <point x="654" y="489" type="line"/>
      <point x="654" y="67" type="line"/>
      <point x="835" y="46" type="line"/>
      <point x="827" y="0" type="line"/>
      <point x="367" y="0" type="line"/>
      <point x="373" y="42" type="line"/>
      <point x="548" y="72" type="line"/>
      <point x="548" y="489" type="line"/>
      <point x="193" y="1177" type="line"/>
    </contour>
  </outline>
</glyph>
<glyph name="germandbls" format="1">
  <advance width="1037"/>
  <unicode hex="00DF"/>
  <outline>
    <contour>
      <point x="29" y="0" type="line"/>
      <point x="34" y="42" type="line"/>
      <point x="184" y="72" type="line"/>
      <point x="184" y="529" type="line" smooth="yes"/>
      <point x="184" y="812.79"/>
      <point x="381.716" y="933.7"/>
      <point x="646" y="933.7" type="curve" smooth="yes"/>
      <point x="802.52" y="933.7"/>
      <point x="955" y="882.801"/>
      <point x="955" y="783" type="curve" smooth="yes"/>
      <point x="955" y="736"/>
      <point x="913" y="708"/>
      <point x="868" y="708" type="curve"/>
      <point x="852" y="791"/>
      <point x="807" y="883"/>
      <point x="684" y="883" type="curve" smooth="yes"/>
      <point x="596" y="883"/>
      <point x="530" y="828"/>
      <point x="530" y="732" type="curve" smooth="yes"/>
      <point x="530" y="482"/>
      <point x="1004" y="492"/>
      <point x="1004" y="236" type="curve" smooth="yes"/>
      <point x="1004" y="88"/>
      <point x="871" y="-26"/>
      <point x="657" y="-26" type="curve" smooth="yes"/>
      <point x="561" y="-26"/>
      <point x="467" y="8"/>
      <point x="417" y="49" type="curve"/>
      <point x="446" y="294" type="line"/>
      <point x="495" y="286" type="line"/>
      <point x="511" y="107" type="line"/>
      <point x="543" y="63"/>
      <point x="604" y="37"/>
      <point x="710" y="37" type="curve" smooth="yes"/>
      <point x="805" y="37"/>
      <point x="895" y="85"/>
      <point x="895" y="180" type="curve" smooth="yes"/>
      <point x="895" y="398"/>
      <point x="432" y="391"/>
      <point x="431" y="665" type="curve" smooth="yes"/>
      <point x="431" y="790"/>
      <point x="509" y="867"/>
      <point x="575" y="892" type="curve"/>
      <point x="575" y="896" type="line"/>
      <point x="392" y="870"/>
      <point x="287" y="794"/>
      <point x="287" y="552" type="curve" smooth="yes"/>
      <point x="287" y="0" type="line"/>
    </contour>
  </outline>
</glyph>
<glyph name="atilde" format="1">
  <advance width="986"/>
  <unicode hex="00E3"/>
  <outline>
    <contour>
      <point x="41" y="0" type="line"/>
      <point x="46" y="42" type="line"/>
      <point x="158" y="72" type="line"/>
      <point x="475" y="920" type="line"/>
      <point x="528" y="934" type="line"/>
      <point x="839" y="66" type="line"/>
      <point x="941" y="47" type="line"/>
      <point x="933" y="1" type="line"/>
      <point x="584" y="1" type="line"/>
      <point x="593" y="43" type="line"/>
      <point x="729" y="73" type="line"/>
      <point x="480" y="764" type="line"/>
      <point x="235" y="65" type="line"/>
      <point x="389" y="46" type="line"/>
      <point x="380" y="0" type="line"/>
    </contour>
    <contour>
      <point x="279" y="306" type="line"/>
      <point x="299" y="362" type="line"/>
      <point x="692" y="362" type="line"/>
      <point x="711" y="306" type="line"/>
    </contour>
    <contour>
      <point x="290" y="1064" type="line"/>
      <point x="322" y="1225"/>
      <point x="418" y="1236"/>
      <point x="490" y="1196" type="curve" smooth="yes"/>
      <point x="562" y="1155" type="line" smooth="yes"/>
      <point x="630" y="1117"/>
      <point x="685" y="1095"/>
      <point x="728" y="1216" type="curve"/>
      <point x="760" y="1208" type="line"/>
      <point x="731" y="1064"/>
      <point x="652" y="1025"/>
      <point x="560" y="1076" type="curve" smooth="yes"/>
      <point x="488" y="1116" type="line" smooth="yes"/>
      <point x="422" y="1152"/>
      <point x="368" y="1182"/>
      <point x="322" y="1056" type="curve"/>
    </contour>
  </outline>
</glyph>
<glyph name="adieresis" format="1">
  <advance width="812"/>
  <unicode hex="00E4"/>
  <outline>
    <contour>
      <point x="8" y="0" type="line"/>
      <point x="13" y="42" type="line"/>
      <point x="125" y="72" type="line"/>
      <point x="442" y="920" type="line"/>
      <point x="495" y="934" type="line"/>
      <point x="806" y="66" type="line"/>
      <point x="908" y="47" type="line"/>
      <point x="900" y="1" type="line"/>
      <point x="551" y="1" type="line"/>
      <point x="560" y="43" type="line"/>
      <point x="696" y="73" type="line"/>
      <point x="447" y="764" type="line"/>
      <point x="202" y="65" type="line"/>
      <point x="356" y="46" type="line"/>
      <point x="347" y="0" type="line"/>
    </contour>
    <contour>
      <point x="246" y="306" type="line"/>
      <point x="266" y="362" type="line"/>
      <point x="659" y="362" type="line"/>
      <point x="678" y="306" type="line"/>
    </contour>
    <contour>
      <point x="279" y="1063" type="curve" smooth="yes"/>
      <point x="279" y="1113"/>
      <point x="295" y="1141"/>
      <point x="334" y="1141" type="curve" smooth="yes"/>
      <point x="371" y="1141"/>
      <point x="392" y="1114"/>
      <point x="392" y="1063" type="curve" smooth="yes"/>
      <point x="392" y="1010"/>
      <point x="378" y="982"/>
      <point x="336" y="982" type="curve" smooth="yes"/>
      <point x="294" y="982"/>
      <point x="279" y="1012"/>
    </contour>
    <contour>
      <point x="548" y="1063" type="curve" smooth="yes"/>
      <point x="548" y="1113"/>
      <point x="563" y="1141"/>
      <point x="602" y="1141" type="curve" smooth="yes"/>
      <point x="639" y="1141"/>
      <point x="660" y="1114"/>
      <point x="660" y="1063" type="curve" smooth="yes"/>
      <point x="660" y="1010"/>
      <point x="645" y="982"/>
      <point x="603" y="982" type="curve" smooth="yes"/>
      <point x="561" y="982"/>
      <point x="548" y="1012"/>
    </contour>
  </outline>
</glyph>
<glyph name="aring" format="1">
  <advance width="812"/>
  <unicode hex="00E5"/>
  <outline>
    <contour>
      <point x="7" y="0" type="line"/>
      <point x="12" y="42" type="line"/>
      <point x="124" y="72" type="line"/>
      <point x="441" y="920" type="line"/>
      <point x="494" y="934" type="line"/>
      <point x="805" y="66" type="line"/>
      <point x="907" y="47" type="line"/>
      <point x="899" y="1" type="line"/>
      <point x="550" y="1" type="line"/>
      <point x="559" y="43" type="line"/>
      <point x="695" y="73" type="line"/>
      <point x="446" y="764" type="line"/>
      <point x="201" y="65" type="line"/>
      <point x="355" y="46" type="line"/>
      <point x="346" y="0" type="line"/>
    </contour>
    <contour>
      <point x="245" y="306" type="line"/>
      <point x="265" y="362" type="line"/>
      <point x="658" y="362" type="line"/>
      <point x="677" y="306" type="line"/>
    </contour>
    <contour>
      <point x="303" y="1139" type="curve" smooth="yes"/>
      <point x="303" y="1231"/>
      <point x="377" y="1310"/>
      <point x="471" y="1310" type="curve" smooth="yes"/>
      <point x="568" y="1310"/>
      <point x="629" y="1242"/>
      <point x="629" y="1148" type="curve" smooth="yes"/>
      <point x="629" y="1057"/>
      <point x="561" y="973"/>
      <point x="459" y="973" type="curve" smooth="yes"/>
      <point x="367" y="973"/>
      <point x="303" y="1037"/>
    </contour>
    <contour>
      <point x="368" y="1150" type="curve" smooth="yes"/>
      <point x="368" y="1086"/>
      <point x="400" y="1014"/>
      <point x="469" y="1014" type="curve" smooth="yes"/>
      <point x="528" y="1014"/>
      <point x="563" y="1057"/>
      <point x="563" y="1133" type="curve" smooth="yes"/>
      <point x="563" y="1199"/>
      <point x="525" y="1270"/>
      <point x="459" y="1270" type="curve" smooth="yes"/>
      <point x="395" y="1270"/>
      <point x="368" y="1210"/>
    </contour>
  </outline>
</glyph>
<glyph name="ae" format="1">
  <advance width="1714"/>
  <unicode hex="00E6"/>
  <outline>
    <contour>
      <point x="73" y="3" type="line"/>
      <point x="77" y="43" type="line"/>
      <point x="190" y="73" type="line"/>
      <point x="716" y="850" type="line"/>
      <point x="533" y="875" type="line"/>
      <point x="539" y="914" type="line"/>
      <point x="1299" y="914" type="line"/>
      <point x="1268" y="645" type="line"/>
      <point x="1222" y="651" type="line"/>
      <point x="1213" y="863" type="line"/>
      <point x="845" y="863" type="line"/>
      <point x="845" y="477" type="line"/>
      <point x="1096" y="477" type="line"/>
      <point x="1124" y="566" type="line"/>
      <point x="1178" y="574" type="line"/>
      <point x="1145" y="305" type="line"/>
      <point x="1094" y="296" type="line"/>
      <point x="1087" y="423" type="line"/>
      <point x="845" y="423" type="line"/>
      <point x="845" y="54" type="line"/>
      <point x="1239" y="54" type="line"/>
      <point x="1293" y="273" type="line"/>
      <point x="1334" y="263" type="line"/>
      <point x="1314" y="0" type="line"/>
      <point x="568" y="0" type="line"/>
      <point x="574" y="42" type="line"/>
      <point x="738" y="72" type="line"/>
      <point x="738" y="338" type="line"/>
      <point x="460" y="338" type="line"/>
      <point x="280" y="66" type="line"/>
      <point x="434" y="48" type="line"/>
      <point x="424" y="3" type="line"/>
    </contour>
    <contour>
      <point x="499" y="398" type="line"/>
      <point x="737" y="398" type="line"/>
      <point x="740" y="763" type="line"/>
    </contour>
  </outline>
</glyph>
<glyph name="ccedilla" format="1">
  <advance width="743"/>
  <unicode hex="00E7"/>
  <outline>
    <contour>
      <point x="24" y="426" type="curve" smooth="yes"/>
      <point x="24" y="682"/>
      <point x="164" y="934"/>
      <point x="462" y="934" type="curve" smooth="yes"/>
      <point x="550" y="934"/>
      <point x="622" y="918"/>
      <point x="686" y="874" type="curve"/>
      <point x="655" y="627" type="line"/>
      <point x="608" y="635" type="line"/>
      <point x="598" y="804" type="line"/>
      <point x="568" y="843"/>
      <point x="519" y="878"/>
      <point x="415" y="878" type="curve" smooth="yes"/>
      <point x="263" y="878"/>
      <point x="130" y="744"/>
      <point x="130" y="462" type="curve" smooth="yes"/>
      <point x="130" y="195"/>
      <point x="245" y="42"/>
      <point x="448" y="42" type="curve" smooth="yes"/>
      <point x="554" y="42"/>
      <point x="652" y="86"/>
      <point x="708" y="129" type="curve"/>
      <point x="731" y="102" type="line"/>
      <point x="684" y="50"/>
      <point x="560" y="-26"/>
      <point x="400" y="-26" type="curve" smooth="yes"/>
      <point x="175" y="-26"/>
      <point x="24" y="151"/>
    </contour>
    <contour>
      <point x="321" y="-347" type="line"/>
      <point x="379" y="-327"/>
      <point x="439" y="-276"/>
      <point x="439" y="-247" type="curve" smooth="yes"/>
      <point x="439" y="-182"/>
      <point x="389" y="-154"/>
      <point x="353" y="-118" type="curve"/>
      <point x="438" y="3" type="line"/>
      <point x="497" y="3" type="line"/>
      <point x="442" y="-76" type="line"/>
      <point x="479" y="-109"/>
      <point x="531" y="-161"/>
      <point x="531" y="-227" type="curve" smooth="yes"/>
      <point x="531" y="-306"/>
      <point x="450" y="-354"/>
      <point x="332" y="-390" type="curve"/>
    </contour>
  </outline>
</glyph>
<glyph name="egrave" format="1">
  <advance width="740"/>
  <unicode hex="00E8"/>
  <outline>
    <contour>
      <point x="27" y="872" type="line"/>
      <point x="34" y="914" type="line"/>
      <point x="767" y="914" type="line"/>
      <point x="736" y="645" type="line"/>
      <point x="690" y="651" type="line"/>
      <point x="681" y="863" type="line"/>
      <point x="280" y="863" type="line"/>
      <point x="280" y="477" type="line"/>
      <point x="564" y="477" type="line"/>
      <point x="592" y="566" type="line"/>
      <point x="646" y="574" type="line"/>
      <point x="613" y="305" type="line"/>
      <point x="562" y="296" type="line"/>
      <point x="555" y="423" type="line"/>
      <point x="280" y="423" type="line"/>
      <point x="280" y="54" type="line"/>
      <point x="707" y="54" type="line"/>
      <point x="761" y="273" type="line"/>
      <point x="802" y="263" type="line"/>
      <point x="782" y="0" type="line"/>
      <point x="30" y="0" type="line"/>
      <point x="36" y="42" type="line"/>
      <point x="176" y="72" type="line"/>
      <point x="176" y="845" type="line"/>
    </contour>
    <contour>
      <point x="248" y="1305" type="line"/>
      <point x="342" y="1342" type="line"/>
      <point x="475" y="1006" type="line"/>
      <point x="429" y="979" type="line"/>
    </contour>
  </outline>
</glyph>
<glyph name="edieresis" format="1">
  <advance width="740"/>
  <unicode hex="00EB"/>
  <outline>
    <contour>
      <point x="27" y="872" type="line"/>
      <point x="34" y="914" type="line"/>
      <point x="767" y="914" type="line"/>
      <point x="736" y="645" type="line"/>
      <point x="690" y="651" type="line"/>
      <point x="681" y="863" type="line"/>
      <point x="280" y="863" type="line"/>
      <point x="280" y="477" type="line"/>
      <point x="564" y="477" type="line"/>
      <point x="592" y="566" type="line"/>
      <point x="646" y="574" type="line"/>
      <point x="613" y="305" type="line"/>
      <point x="562" y="296" type="line"/>
      <point x="555" y="423" type="line"/>
      <point x="280" y="423" type="line"/>
      <point x="280" y="54" type="line"/>
      <point x="707" y="54" type="line"/>
      <point x="761" y="273" type="line"/>
      <point x="802" y="263" type="line"/>
      <point x="782" y="0" type="line"/>
      <point x="30" y="0" type="line"/>
      <point x="36" y="42" type="line"/>
      <point x="176" y="72" type="line"/>
      <point x="176" y="845" type="line"/>
    </contour>
    <contour>
      <point x="237" y="1062" type="curve" smooth="yes"/>
      <point x="237" y="1112"/>
      <point x="253" y="1140"/>
      <point x="292" y="1140" type="curve" smooth="yes"/>
      <point x="329" y="1140"/>
      <point x="350" y="1113"/>
      <point x="350" y="1062" type="curve" smooth="yes"/>
      <point x="350" y="1009"/>
      <point x="336" y="981"/>
      <point x="294" y="981" type="curve" smooth="yes"/>
      <point x="252" y="981"/>
      <point x="237" y="1011"/>
    </contour>
    <contour>
      <point x="506" y="1062" type="curve" smooth="yes"/>
      <point x="506" y="1112"/>
      <point x="521" y="1140"/>
      <point x="560" y="1140" type="curve" smooth="yes"/>
      <point x="597" y="1140"/>
      <point x="618" y="1113"/>
      <point x="618" y="1062" type="curve" smooth="yes"/>
      <point x="618" y="1009"/>
      <point x="603" y="981"/>
      <point x="561" y="981" type="curve" smooth="yes"/>
      <point x="519" y="981"/>
      <point x="506" y="1011"/>
    </contour>
  </outline>
</glyph>
<glyph name="igrave" format="1">
  <advance width="512"/>
  <unicode hex="00EC"/>
  <outline>
    <contour>
      <point x="47" y="875" type="line"/>
      <point x="53" y="914" type="line"/>
      <point x="450" y="914" type="line"/>
      <point x="443" y="875" type="line"/>
      <point x="298" y="852" type="line"/>
      <point x="298" y="65" type="line"/>
      <point x="461" y="46" type="line"/>
      <point x="452" y="0" type="line"/>
      <point x="57" y="0" type="line"/>
      <point x="62" y="42" type="line"/>
      <point x="190" y="72" type="line"/>
      <point x="190" y="850" type="line"/>
    </contour>
    <contour>
      <point x="68" y="1304" type="line"/>
      <point x="162" y="1341" type="line"/>
      <point x="294" y="1005" type="line"/>
      <point x="248" y="978" type="line"/>
    </contour>
  </outline>
</glyph>
<glyph name="iacute" format="1">
  <advance width="512"/>
  <unicode hex="00ED"/>
  <outline>
    <contour>
      <point x="47" y="875" type="line"/>
      <point x="53" y="914" type="line"/>
      <point x="450" y="914" type="line"/>
      <point x="443" y="875" type="line"/>
      <point x="298" y="852" type="line"/>
      <point x="298" y="65" type="line"/>
      <point x="461" y="46" type="line"/>
      <point x="452" y="0" type="line"/>
      <point x="57" y="0" type="line"/>
      <point x="62" y="42" type="line"/>
      <point x="190" y="72" type="line"/>
      <point x="190" y="850" type="line"/>
    </contour>
    <contour>
      <point x="206" y="1007" type="line"/>
      <point x="338" y="1344" type="line"/>
      <point x="434" y="1305" type="line"/>
      <point x="252" y="981" type="line"/>
    </contour>
  </outline>
</glyph>
<glyph name="icircumflex" format="1">
  <advance width="512"/>
  <unicode hex="00EE"/>
  <outline>
    <contour>
      <point x="47" y="875" type="line"/>
      <point x="53" y="914" type="line"/>
      <point x="450" y="914" type="line"/>
      <point x="443" y="875" type="line"/>
      <point x="298" y="852" type="line"/>
      <point x="298" y="65" type="line"/>
      <point x="461" y="46" type="line"/>
      <point x="452" y="0" type="line"/>
      <point x="57" y="0" type="line"/>
      <point x="62" y="42" type="line"/>
      <point x="190" y="72" type="line"/>
      <point x="190" y="850" type="line"/>
    </contour>
    <contour>
      <point x="52" y="1007" type="line"/>
      <point x="218" y="1188" type="line"/>
      <point x="272" y="1201" type="line"/>
      <point x="452" y="1015" type="line"/>
      <point x="420" y="978" type="line"/>
      <point x="238" y="1113" type="line"/>
      <point x="230" y="1113" type="line"/>
      <point x="72" y="977" type="line"/>
    </contour>
  </outline>
</glyph>
<glyph name="idieresis" format="1">
  <advance width="512"/>
  <unicode hex="00EF"/>
  <outline>
    <contour>
      <point x="47" y="875" type="line"/>
      <point x="53" y="914" type="line"/>
      <point x="450" y="914" type="line"/>
      <point x="443" y="875" type="line"/>
      <point x="298" y="852" type="line"/>
      <point x="298" y="65" type="line"/>
      <point x="461" y="46" type="line"/>
      <point x="452" y="0" type="line"/>
      <point x="57" y="0" type="line"/>
      <point x="62" y="42" type="line"/>
      <point x="190" y="72" type="line"/>
      <point x="190" y="850" type="line"/>
    </contour>
    <contour>
      <point x="57" y="1091" type="curve" smooth="yes"/>
      <point x="57" y="1141"/>
      <point x="73" y="1169"/>
      <point x="112" y="1169" type="curve" smooth="yes"/>
      <point x="149" y="1169"/>
      <point x="170" y="1142"/>
      <point x="170" y="1091" type="curve" smooth="yes"/>
      <point x="170" y="1038"/>
      <point x="156" y="1010"/>
      <point x="114" y="1010" type="curve" smooth="yes"/>
      <point x="72" y="1010"/>
      <point x="57" y="1040"/>
    </contour>
    <contour>
      <point x="326" y="1091" type="curve" smooth="yes"/>
      <point x="326" y="1141"/>
      <point x="341" y="1169"/>
      <point x="380" y="1169" type="curve" smooth="yes"/>
      <point x="417" y="1169"/>
      <point x="438" y="1142"/>
      <point x="438" y="1091" type="curve" smooth="yes"/>
      <point x="438" y="1038"/>
      <point x="423" y="1010"/>
      <point x="381" y="1010" type="curve" smooth="yes"/>
      <point x="339" y="1010"/>
      <point x="326" y="1040"/>
    </contour>
  </outline>
</glyph>
<glyph name="eth" format="1">
  <advance width="1267"/>
  <unicode hex="00F0"/>
  <outline>
    <contour>
      <point x="44" y="0" type="line"/>
      <point x="52" y="42" type="line"/>
      <point x="191" y="72" type="line"/>
      <point x="191" y="838" type="line"/>
      <point x="49" y="860" type="line"/>
      <point x="59" y="896" type="line"/>
      <point x="210" y="921"/>
      <point x="310" y="934"/>
      <point x="422" y="934" type="curve" smooth="yes"/>
      <point x="787" y="934"/>
      <point x="894" y="716"/>
      <point x="894" y="497" type="curve" smooth="yes"/>
      <point x="894" y="163"/>
      <point x="650" y="0"/>
      <point x="334" y="0" type="curve" smooth="yes"/>
    </contour>
    <contour>
      <point x="48" y="405" type="line"/>
      <point x="57" y="466" type="line"/>
      <point x="502" y="500" type="line"/>
      <point x="494" y="440" type="line"/>
    </contour>
    <contour>
      <point x="292" y="54" type="line"/>
      <point x="381" y="54" type="line" smooth="yes"/>
      <point x="655" y="54"/>
      <point x="797" y="209"/>
      <point x="797" y="461" type="curve" smooth="yes"/>
      <point x="797" y="733"/>
      <point x="646" y="880"/>
      <point x="385" y="880" type="curve" smooth="yes"/>
      <point x="363" y="880"/>
      <point x="311" y="877"/>
      <point x="292" y="876" type="curve"/>
    </contour>
  </outline>
</glyph>
<glyph name="ntilde" format="1">
  <advance width="1083"/>
  <unicode hex="00F1"/>
  <outline>
    <contour>
      <point x="47" y="878" type="line"/>
      <point x="55" y="914" type="line"/>
      <point x="308" y="914" type="line"/>
      <point x="821" y="187" type="line"/>
      <point x="821" y="850" type="line"/>
      <point x="668" y="875" type="line"/>
      <point x="674" y="914" type="line"/>
      <point x="1038" y="914" type="line"/>
      <point x="1030" y="875" type="line"/>
      <point x="894" y="852" type="line"/>
      <point x="894" y="-7" type="line"/>
      <point x="840" y="-18" type="line"/>
      <point x="276" y="783" type="line"/>
      <point x="276" y="65" type="line"/>
      <point x="430" y="46" type="line"/>
      <point x="420" y="0" type="line"/>
      <point x="59" y="0" type="line"/>
      <point x="65" y="42" type="line"/>
      <point x="202" y="72" type="line"/>
      <point x="202" y="845" type="line"/>
    </contour>
    <contour>
      <point x="274" y="1014" type="line"/>
      <point x="306" y="1175"/>
      <point x="401" y="1186"/>
      <point x="473" y="1146" type="curve" smooth="yes"/>
      <point x="546" y="1105" type="line" smooth="yes"/>
      <point x="614" y="1067"/>
      <point x="669" y="1045"/>
      <point x="712" y="1166" type="curve"/>
      <point x="744" y="1158" type="line"/>
      <point x="715" y="1014"/>
      <point x="636" y="975"/>
      <point x="544" y="1026" type="curve" smooth="yes"/>
      <point x="472" y="1066" type="line" smooth="yes"/>
      <point x="406" y="1102"/>
      <point x="351" y="1132"/>
      <point x="305" y="1006" type="curve"/>
    </contour>
  </outline>
</glyph>
<glyph name="oacute" format="1">
  <advance width="870"/>
  <unicode hex="00F3"/>
  <outline>
    <contour>
      <point x="24" y="430" type="curve" smooth="yes"/>
      <point x="24" y="720"/>
      <point x="212" y="934"/>
      <point x="512" y="934" type="curve" smooth="yes"/>
      <point x="787" y="934"/>
      <point x="931" y="735"/>
      <point x="931" y="472" type="curve" smooth="yes"/>
      <point x="931" y="239"/>
      <point x="782" y="-27"/>
      <point x="453" y="-27" type="curve" smooth="yes"/>
      <point x="192" y="-27"/>
      <point x="24" y="181"/>
    </contour>
    <contour>
      <point x="134" y="479" type="curve" smooth="yes"/>
      <point x="134" y="201"/>
      <point x="293" y="37"/>
      <point x="481" y="37" type="curve" smooth="yes"/>
      <point x="712" y="37"/>
      <point x="827" y="212"/>
      <point x="827" y="430" type="curve" smooth="yes"/>
      <point x="827" y="689"/>
      <point x="685" y="878"/>
      <point x="474" y="878" type="curve" smooth="yes"/>
      <point x="243" y="878"/>
      <point x="134" y="711"/>
    </contour>
    <contour>
      <point x="444" y="1007" type="line"/>
      <point x="576" y="1344" type="line"/>
      <point x="672" y="1305" type="line"/>
      <point x="489" y="981" type="line"/>
    </contour>
  </outline>
</glyph>
<glyph name="ocircumflex" format="1">
  <advance width="870"/>
  <unicode hex="00F4"/>
  <outline>
    <contour>
      <point x="24" y="430" type="curve" smooth="yes"/>
      <point x="24" y="720"/>
      <point x="212" y="934"/>
      <point x="512" y="934" type="curve" smooth="yes"/>
      <point x="787" y="934"/>
      <point x="931" y="735"/>
      <point x="931" y="472" type="curve" smooth="yes"/>
      <point x="931" y="239"/>
      <point x="782" y="-27"/>
      <point x="453" y="-27" type="curve" smooth="yes"/>
      <point x="192" y="-27"/>
      <point x="24" y="181"/>
    </contour>
    <contour>
      <point x="134" y="479" type="curve" smooth="yes"/>
      <point x="134" y="201"/>
      <point x="293" y="37"/>
      <point x="481" y="37" type="curve" smooth="yes"/>
      <point x="712" y="37"/>
      <point x="827" y="212"/>
      <point x="827" y="430" type="curve" smooth="yes"/>
      <point x="827" y="689"/>
      <point x="685" y="878"/>
      <point x="474" y="878" type="curve" smooth="yes"/>
      <point x="243" y="878"/>
      <point x="134" y="711"/>
    </contour>
    <contour>
      <point x="291" y="1037" type="line"/>
      <point x="458" y="1218" type="line"/>
      <point x="512" y="1231" type="line"/>
      <point x="691" y="1045" type="line"/>
      <point x="659" y="1008" type="line"/>
      <point x="478" y="1143" type="line"/>
      <point x="469" y="1143" type="line"/>
      <point x="312" y="1007" type="line"/>
    </contour>
  </outline>
</glyph>
<glyph name="otilde" format="1">
  <advance width="968"/>
  <unicode hex="00F5"/>
  <outline>
    <contour>
      <point x="46" y="430" type="curve" smooth="yes"/>
      <point x="46" y="720"/>
      <point x="234" y="934"/>
      <point x="534" y="934" type="curve" smooth="yes"/>
      <point x="809" y="934"/>
      <point x="953" y="735"/>
      <point x="953" y="472" type="curve" smooth="yes"/>
      <point x="953" y="239"/>
      <point x="804" y="-27"/>
      <point x="475" y="-27" type="curve" smooth="yes"/>
      <point x="214" y="-27"/>
      <point x="46" y="181"/>
    </contour>
    <contour>
      <point x="156" y="479" type="curve" smooth="yes"/>
      <point x="156" y="201"/>
      <point x="315" y="37"/>
      <point x="503" y="37" type="curve" smooth="yes"/>
      <point x="734" y="37"/>
      <point x="849" y="212"/>
      <point x="849" y="430" type="curve" smooth="yes"/>
      <point x="849" y="689"/>
      <point x="707" y="878"/>
      <point x="496" y="878" type="curve" smooth="yes"/>
      <point x="265" y="878"/>
      <point x="156" y="711"/>
    </contour>
    <contour>
      <point x="276" y="1015" type="line"/>
      <point x="308" y="1176"/>
      <point x="404" y="1187"/>
      <point x="476" y="1147" type="curve" smooth="yes"/>
      <point x="548" y="1106" type="line" smooth="yes"/>
      <point x="616" y="1068"/>
      <point x="671" y="1046"/>
      <point x="714" y="1167" type="curve"/>
      <point x="746" y="1159" type="line"/>
      <point x="717" y="1015"/>
      <point x="638" y="976"/>
      <point x="546" y="1027" type="curve" smooth="yes"/>
      <point x="474" y="1067" type="line" smooth="yes"/>
      <point x="408" y="1103"/>
      <point x="354" y="1133"/>
      <point x="308" y="1007" type="curve"/>
    </contour>
  </outline>
</glyph>
<glyph name="odieresis" format="1">
  <advance width="870"/>
  <unicode hex="00F6"/>
  <outline>
    <contour>
      <point x="25" y="430" type="curve" smooth="yes"/>
      <point x="25" y="720"/>
      <point x="213" y="934"/>
      <point x="513" y="934" type="curve" smooth="yes"/>
      <point x="788" y="934"/>
      <point x="932" y="735"/>
      <point x="932" y="472" type="curve" smooth="yes"/>
      <point x="932" y="239"/>
      <point x="783" y="-27"/>
      <point x="454" y="-27" type="curve" smooth="yes"/>
      <point x="193" y="-27"/>
      <point x="25" y="181"/>
    </contour>
    <contour>
      <point x="135" y="479" type="curve" smooth="yes"/>
      <point x="135" y="201"/>
      <point x="294" y="37"/>
      <point x="482" y="37" type="curve" smooth="yes"/>
      <point x="713" y="37"/>
      <point x="828" y="212"/>
      <point x="828" y="430" type="curve" smooth="yes"/>
      <point x="828" y="689"/>
      <point x="686" y="878"/>
      <point x="475" y="878" type="curve" smooth="yes"/>
      <point x="244" y="878"/>
      <point x="135" y="711"/>
    </contour>
    <contour>
      <point x="294" y="1089" type="curve" smooth="yes"/>
      <point x="294" y="1139"/>
      <point x="310" y="1167"/>
      <point x="349" y="1167" type="curve" smooth="yes"/>
      <point x="386" y="1167"/>
      <point x="407" y="1140"/>
      <point x="407" y="1089" type="curve" smooth="yes"/>
      <point x="407" y="1036"/>
      <point x="393" y="1008"/>
      <point x="351" y="1008" type="curve" smooth="yes"/>
      <point x="309" y="1008"/>
      <point x="294" y="1038"/>
    </contour>
    <contour>
      <point x="563" y="1089" type="curve" smooth="yes"/>
      <point x="563" y="1139"/>
      <point x="578" y="1167"/>
      <point x="617" y="1167" type="curve" smooth="yes"/>
      <point x="654" y="1167"/>
      <point x="675" y="1140"/>
      <point x="675" y="1089" type="curve" smooth="yes"/>
      <point x="675" y="1036"/>
      <point x="660" y="1008"/>
      <point x="618" y="1008" type="curve" smooth="yes"/>
      <point x="576" y="1008"/>
      <point x="563" y="1038"/>
    </contour>
  </outline>
</glyph>
<glyph name="oslash" format="1">
  <advance width="968"/>
  <unicode hex="00F8"/>
  <outline>
    <contour>
      <point x="46" y="430" type="curve" smooth="yes"/>
      <point x="46" y="720"/>
      <point x="234" y="934"/>
      <point x="534" y="934" type="curve" smooth="yes"/>
      <point x="809" y="934"/>
      <point x="953" y="735"/>
      <point x="953" y="472" type="curve" smooth="yes"/>
      <point x="953" y="239"/>
      <point x="804" y="-27"/>
      <point x="475" y="-27" type="curve" smooth="yes"/>
      <point x="214" y="-27"/>
      <point x="46" y="181"/>
    </contour>
    <contour>
      <point x="-12" y="20" type="line"/>
      <point x="151" y="177" type="line"/>
      <point x="195" y="201" type="line"/>
      <point x="771" y="769" type="line"/>
      <point x="802" y="813" type="line"/>
      <point x="888" y="895" type="line"/>
      <point x="1002" y="905" type="line"/>
      <point x="848" y="761" type="line"/>
      <point x="801" y="728" type="line"/>
      <point x="225" y="164" type="line"/>
      <point x="192" y="115" type="line"/>
      <point x="100" y="28" type="line"/>
    </contour>
    <contour>
      <point x="156" y="479" type="curve" smooth="yes"/>
      <point x="156" y="201"/>
      <point x="315" y="37"/>
      <point x="503" y="37" type="curve" smooth="yes"/>
      <point x="734" y="37"/>
      <point x="849" y="212"/>
      <point x="849" y="430" type="curve" smooth="yes"/>
      <point x="849" y="689"/>
      <point x="707" y="878"/>
      <point x="496" y="878" type="curve" smooth="yes"/>
      <point x="265" y="878"/>
      <point x="156" y="711"/>
    </contour>
  </outline>
</glyph>
<glyph name="ugrave" format="1">
  <advance width="999"/>
  <unicode hex="00F9"/>
  <outline>
    <contour>
      <point x="49" y="875" type="line"/>
      <point x="53" y="914" type="line"/>
      <point x="447" y="914" type="line"/>
      <point x="443" y="875" type="line"/>
      <point x="304" y="852" type="line"/>
      <point x="304" y="361" type="line" smooth="yes"/>
      <point x="304" y="118"/>
      <point x="421" y="42"/>
      <point x="591" y="42" type="curve" smooth="yes"/>
      <point x="760" y="42"/>
      <point x="859" y="120"/>
      <point x="859" y="335" type="curve" smooth="yes"/>
      <point x="859" y="850" type="line"/>
      <point x="703" y="875" type="line"/>
      <point x="708" y="914" type="line"/>
      <point x="1073" y="914" type="line"/>
      <point x="1065" y="875" type="line"/>
      <point x="929" y="852" type="line"/>
      <point x="926" y="356" type="line" smooth="yes"/>
      <point x="924" y="115"/>
      <point x="817" y="-27"/>
      <point x="558" y="-27" type="curve" smooth="yes"/>
      <point x="364" y="-27"/>
      <point x="200" y="51"/>
      <point x="200" y="348" type="curve" smooth="yes"/>
      <point x="200" y="850" type="line"/>
    </contour>
    <contour>
      <point x="381" y="1298" type="line"/>
      <point x="475" y="1335" type="line"/>
      <point x="608" y="999" type="line"/>
      <point x="562" y="972" type="line"/>
    </contour>
  </outline>
</glyph>
<glyph name="uacute" format="1">
  <advance width="999"/>
  <unicode hex="00FA"/>
  <outline>
    <contour>
      <point x="49" y="875" type="line"/>
      <point x="53" y="914" type="line"/>
      <point x="447" y="914" type="line"/>
      <point x="443" y="875" type="line"/>
      <point x="304" y="852" type="line"/>
      <point x="304" y="361" type="line" smooth="yes"/>
      <point x="304" y="118"/>
      <point x="421" y="42"/>
      <point x="591" y="42" type="curve" smooth="yes"/>
      <point x="760" y="42"/>
      <point x="859" y="120"/>
      <point x="859" y="335" type="curve" smooth="yes"/>
      <point x="859" y="850" type="line"/>
      <point x="703" y="875" type="line"/>
      <point x="708" y="914" type="line"/>
      <point x="1073" y="914" type="line"/>
      <point x="1065" y="875" type="line"/>
      <point x="929" y="852" type="line"/>
      <point x="926" y="356" type="line" smooth="yes"/>
      <point x="924" y="115"/>
      <point x="817" y="-27"/>
      <point x="558" y="-27" type="curve" smooth="yes"/>
      <point x="364" y="-27"/>
      <point x="200" y="51"/>
      <point x="200" y="348" type="curve" smooth="yes"/>
      <point x="200" y="850" type="line"/>
    </contour>
    <contour>
      <point x="536" y="1007" type="line"/>
      <point x="668" y="1344" type="line"/>
      <point x="764" y="1305" type="line"/>
      <point x="581" y="981" type="line"/>
    </contour>
  </outline>
</glyph>
<glyph name="ucircumflex" format="1">
  <advance width="999"/>
  <unicode hex="00FB"/>
  <outline>
    <contour>
      <point x="49" y="875" type="line"/>
      <point x="53" y="914" type="line"/>
      <point x="447" y="914" type="line"/>
      <point x="443" y="875" type="line"/>
      <point x="304" y="852" type="line"/>
      <point x="304" y="361" type="line" smooth="yes"/>
      <point x="304" y="118"/>
      <point x="421" y="42"/>
      <point x="591" y="42" type="curve" smooth="yes"/>
      <point x="760" y="42"/>
      <point x="859" y="120"/>
      <point x="859" y="335" type="curve" smooth="yes"/>
      <point x="859" y="850" type="line"/>
      <point x="703" y="875" type="line"/>
      <point x="708" y="914" type="line"/>
      <point x="1073" y="914" type="line"/>
      <point x="1065" y="875" type="line"/>
      <point x="929" y="852" type="line"/>
      <point x="926" y="356" type="line" smooth="yes"/>
      <point x="924" y="115"/>
      <point x="817" y="-27"/>
      <point x="558" y="-27" type="curve" smooth="yes"/>
      <point x="364" y="-27"/>
      <point x="200" y="51"/>
      <point x="200" y="348" type="curve" smooth="yes"/>
      <point x="200" y="850" type="line"/>
    </contour>
    <contour>
      <point x="376" y="1005" type="line"/>
      <point x="543" y="1186" type="line"/>
      <point x="597" y="1199" type="line"/>
      <point x="776" y="1013" type="line"/>
      <point x="744" y="976" type="line"/>
      <point x="563" y="1111" type="line"/>
      <point x="554" y="1111" type="line"/>
      <point x="397" y="975" type="line"/>
    </contour>
  </outline>
</glyph>
<glyph name="udieresis" format="1">
  <advance width="999"/>
  <unicode hex="00FC"/>
  <outline>
    <contour>
      <point x="49" y="875" type="line"/>
      <point x="53" y="914" type="line"/>
      <point x="447" y="914" type="line"/>
      <point x="443" y="875" type="line"/>
      <point x="304" y="852" type="line"/>
      <point x="304" y="361" type="line" smooth="yes"/>
      <point x="304" y="118"/>
      <point x="421" y="42"/>
      <point x="591" y="42" type="curve" smooth="yes"/>
      <point x="760" y="42"/>
      <point x="859" y="120"/>
      <point x="859" y="335" type="curve" smooth="yes"/>
      <point x="859" y="850" type="line"/>
      <point x="703" y="875" type="line"/>
      <point x="708" y="914" type="line"/>
      <point x="1073" y="914" type="line"/>
      <point x="1065" y="875" type="line"/>
      <point x="929" y="852" type="line"/>
      <point x="926" y="356" type="line" smooth="yes"/>
      <point x="924" y="115"/>
      <point x="817" y="-27"/>
      <point x="558" y="-27" type="curve" smooth="yes"/>
      <point x="364" y="-27"/>
      <point x="200" y="51"/>
      <point x="200" y="348" type="curve" smooth="yes"/>
      <point x="200" y="850" type="line"/>
    </contour>
    <contour>
      <point x="380" y="1093" type="curve" smooth="yes"/>
      <point x="380" y="1143"/>
      <point x="396" y="1171"/>
      <point x="435" y="1171" type="curve" smooth="yes"/>
      <point x="472" y="1171"/>
      <point x="493" y="1144"/>
      <point x="493" y="1093" type="curve" smooth="yes"/>
      <point x="493" y="1040"/>
      <point x="479" y="1012"/>
      <point x="437" y="1012" type="curve" smooth="yes"/>
      <point x="395" y="1012"/>
      <point x="380" y="1042"/>
    </contour>
    <contour>
      <point x="649" y="1093" type="curve" smooth="yes"/>
      <point x="649" y="1143"/>
      <point x="664" y="1171"/>
      <point x="703" y="1171" type="curve" smooth="yes"/>
      <point x="740" y="1171"/>
      <point x="761" y="1144"/>
      <point x="761" y="1093" type="curve" smooth="yes"/>
      <point x="761" y="1040"/>
      <point x="746" y="1012"/>
      <point x="704" y="1012" type="curve" smooth="yes"/>
      <point x="662" y="1012"/>
      <point x="649" y="1042"/>
    </contour>
  </outline>
</glyph>
<glyph name="yacute" format="1">
  <advance width="979"/>
  <unicode hex="00FD"/>
  <outline>
    <contour>
      <point x="62" y="877" type="line"/>
      <point x="66" y="913" type="line"/>
      <point x="427" y="913" type="line"/>
      <point x="423" y="877" type="line"/>
      <point x="287" y="851" type="line"/>
      <point x="516" y="461" type="line"/>
      <point x="746" y="848" type="line"/>
      <point x="591" y="878" type="line"/>
      <point x="593" y="914" type="line"/>
      <point x="923" y="914" type="line"/>
      <point x="920" y="878" type="line"/>
      <point x="821" y="852" type="line"/>
      <point x="552" y="379" type="line"/>
      <point x="552" y="67" type="line"/>
      <point x="703" y="46" type="line"/>
      <point x="695" y="0" type="line"/>
      <point x="295" y="0" type="line"/>
      <point x="301" y="42" type="line"/>
      <point x="446" y="72" type="line"/>
      <point x="446" y="379" type="line"/>
      <point x="171" y="847" type="line"/>
    </contour>
    <contour>
      <point x="463" y="1007" type="line"/>
      <point x="595" y="1344" type="line"/>
      <point x="691" y="1305" type="line"/>
      <point x="508" y="981" type="line"/>
    </contour>
  </outline>
</glyph>
<glyph name="thorn" format="1">
  <advance width="848"/>
  <unicode hex="00FE"/>
  <outline>
    <contour>
      <point x="47" y="875" type="line"/>
      <point x="53" y="914" type="line"/>
      <point x="450" y="914" type="line"/>
      <point x="443" y="875" type="line"/>
      <point x="298" y="852" type="line"/>
      <point x="298" y="65" type="line"/>
      <point x="461" y="46" type="line"/>
      <point x="452" y="0" type="line"/>
      <point x="57" y="0" type="line"/>
      <point x="62" y="42" type="line"/>
      <point x="190" y="72" type="line"/>
      <point x="190" y="850" type="line"/>
    </contour>
    <contour>
      <point x="234" y="740" type="line"/>
      <point x="285" y="746"/>
      <point x="342" y="749"/>
      <point x="410" y="749" type="curve" smooth="yes"/>
      <point x="603" y="749"/>
      <point x="766" y="669"/>
      <point x="766" y="483" type="curve" smooth="yes"/>
      <point x="766" y="282.603"/>
      <point x="580.119" y="166.375"/>
      <point x="377" y="182" type="curve"/>
      <point x="368" y="223" type="line"/>
      <point x="422" y="226" type="line" smooth="yes"/>
      <point x="589" y="234"/>
      <point x="652" y="341"/>
      <point x="652" y="463" type="curve" smooth="yes"/>
      <point x="652" y="586"/>
      <point x="563" y="705"/>
      <point x="379" y="705" type="curve" smooth="yes"/>
      <point x="331" y="705"/>
      <point x="251" y="699"/>
      <point x="251" y="699" type="curve"/>
    </contour>
  </outline>
</glyph>
<glyph name="ydieresis" format="1">
  <advance width="979"/>
  <unicode hex="00FF"/>
  <outline>
    <contour>
      <point x="62" y="877" type="line"/>
      <point x="66" y="913" type="line"/>
      <point x="427" y="913" type="line"/>
      <point x="423" y="877" type="line"/>
      <point x="287" y="851" type="line"/>
      <point x="516" y="461" type="line"/>
      <point x="746" y="848" type="line"/>
      <point x="591" y="878" type="line"/>
      <point x="593" y="914" type="line"/>
      <point x="923" y="914" type="line"/>
      <point x="920" y="878" type="line"/>
      <point x="821" y="852" type="line"/>
      <point x="552" y="379" type="line"/>
      <point x="552" y="67" type="line"/>
      <point x="703" y="46" type="line"/>
      <point x="695" y="0" type="line"/>
      <point x="295" y="0" type="line"/>
      <point x="301" y="42" type="line"/>
      <point x="446" y="72" type="line"/>
      <point x="446" y="379" type="line"/>
      <point x="171" y="847" type="line"/>
    </contour>
    <contour>
      <point x="297" y="1085" type="curve" smooth="yes"/>
      <point x="297" y="1135"/>
      <point x="313" y="1163"/>
      <point x="352" y="1163" type="curve" smooth="yes"/>
      <point x="389" y="1163"/>
      <point x="410" y="1136"/>
      <point x="410" y="1085" type="curve" smooth="yes"/>
      <point x="410" y="1032"/>
      <point x="396" y="1004"/>
      <point x="354" y="1004" type="curve" smooth="yes"/>
      <point x="312" y="1004"/>
      <point x="297" y="1034"/>
    </contour>
    <contour>
      <point x="566" y="1085" type="curve" smooth="yes"/>
      <point x="566" y="1135"/>
      <point x="581" y="1163"/>
      <point x="620" y="1163" type="curve" smooth="yes"/>
      <point x="657" y="1163"/>
      <point x="678" y="1136"/>
      <point x="678" y="1085" type="curve" smooth="yes"/>
      <point x="678" y="1032"/>
      <point x="663" y="1004"/>
      <point x="621" y="1004" type="curve" smooth="yes"/>
      <point x="579" y="1004"/>
      <point x="566" y="1034"/>
    </contour>
  </outline>
</glyph>
<glyph name="tilde" format="1">
  <advance width="627"/>
  <unicode hex="02DC"/>
  <outline>
    <contour>
      <point x="77" y="1379" type="line"/>
      <point x="109" y="1540"/>
      <point x="204" y="1551"/>
      <point x="276" y="1511" type="curve" smooth="yes"/>
      <point x="349" y="1470" type="line" smooth="yes"/>
      <point x="417" y="1432"/>
      <point x="472" y="1410"/>
      <point x="515" y="1531" type="curve"/>
      <point x="547" y="1523" type="line"/>
      <point x="518" y="1379"/>
      <point x="439" y="1340"/>
      <point x="347" y="1391" type="curve" smooth="yes"/>
      <point x="275" y="1431" type="line" smooth="yes"/>
      <point x="209" y="1467"/>
      <point x="154" y="1497"/>
      <point x="108" y="1371" type="curve"/>
    </contour>
  </outline>
</glyph>
<glyph name="quoteleft" format="1">
  <advance width="384"/>
  <unicode hex="2018"/>
  <outline>
    <contour>
      <point x="377" y="1208" type="line"/>
      <point x="234" y="1151"/>
      <point x="199" y="1084"/>
      <point x="199" y="1002" type="curve" smooth="yes"/>
      <point x="199" y="915"/>
      <point x="249" y="860"/>
      <point x="308" y="860" type="curve" smooth="yes"/>
      <point x="317" y="860"/>
      <point x="326" y="860"/>
      <point x="335" y="864" type="curve"/>
      <point x="338" y="855"/>
      <point x="338" y="854"/>
      <point x="338" y="845" type="curve" smooth="yes"/>
      <point x="338" y="790"/>
      <point x="299" y="754"/>
      <point x="242" y="754" type="curve" smooth="yes"/>
      <point x="166" y="754"/>
      <point x="99" y="825"/>
      <point x="99" y="963" type="curve" smooth="yes"/>
      <point x="99" y="1057"/>
      <point x="156" y="1187"/>
      <point x="365" y="1253" type="curve"/>
    </contour>
  </outline>
</glyph>
<glyph name="quoteright" format="1">
  <advance width="383"/>
  <unicode hex="2019"/>
  <outline>
    <contour>
      <point x="8" y="827" type="line"/>
      <point x="151" y="884"/>
      <point x="186" y="951"/>
      <point x="186" y="1033" type="curve" smooth="yes"/>
      <point x="186" y="1120"/>
      <point x="136" y="1175"/>
      <point x="77" y="1175" type="curve" smooth="yes"/>
      <point x="68" y="1175"/>
      <point x="59" y="1175"/>
      <point x="50" y="1171" type="curve"/>
      <point x="47" y="1180"/>
      <point x="47" y="1181"/>
      <point x="47" y="1190" type="curve" smooth="yes"/>
      <point x="47" y="1245"/>
      <point x="86" y="1281"/>
      <point x="143" y="1281" type="curve" smooth="yes"/>
      <point x="219" y="1281"/>
      <point x="286" y="1210"/>
      <point x="286" y="1072" type="curve" smooth="yes"/>
      <point x="286" y="978"/>
      <point x="229" y="848"/>
      <point x="20" y="782" type="curve"/>
    </contour>
  </outline>
</glyph>
<glyph name="quotesinglbase" format="1">
  <advance width="394"/>
  <unicode hex="201A"/>
  <outline>
    <contour>
      <point x="10" y="-236" type="line"/>
      <point x="153" y="-179"/>
      <point x="188" y="-112"/>
      <point x="188" y="-30" type="curve" smooth="yes"/>
      <point x="188" y="57"/>
      <point x="138" y="112"/>
      <point x="79" y="112" type="curve" smooth="yes"/>
      <point x="70" y="112"/>
      <point x="61" y="112"/>
      <point x="52" y="108" type="curve"/>
      <point x="49" y="117"/>
      <point x="49" y="118"/>
      <point x="49" y="127" type="curve" smooth="yes"/>
      <point x="49" y="182"/>
      <point x="88" y="218"/>
      <point x="145" y="218" type="curve" smooth="yes"/>
      <point x="221" y="218"/>
      <point x="288" y="147"/>
      <point x="288" y="9" type="curve" smooth="yes"/>
      <point x="288" y="-85"/>
      <point x="231" y="-215"/>
      <point x="22" y="-281" type="curve"/>
    </contour>
  </outline>
</glyph>
<glyph name="quotedblleft" format="1">
  <advance width="698"/>
  <unicode hex="201C"/>
  <outline>
    <contour>
      <point x="377" y="1211" type="line"/>
      <point x="234" y="1154"/>
      <point x="199" y="1087"/>
      <point x="199" y="1005" type="curve" smooth="yes"/>
      <point x="199" y="918"/>
      <point x="249" y="863"/>
      <point x="308" y="863" type="curve" smooth="yes"/>
      <point x="317" y="863"/>
      <point x="326" y="863"/>
      <point x="335" y="867" type="curve"/>
      <point x="338" y="858"/>
      <point x="338" y="857"/>
      <point x="338" y="848" type="curve" smooth="yes"/>
      <point x="338" y="793"/>
      <point x="299" y="757"/>
      <point x="242" y="757" type="curve" smooth="yes"/>
      <point x="166" y="757"/>
      <point x="99" y="828"/>
      <point x="99" y="966" type="curve" smooth="yes"/>
      <point x="99" y="1060"/>
      <point x="156" y="1190"/>
      <point x="365" y="1256" type="curve"/>
    </contour>
    <contour>
      <point x="691" y="1211" type="line"/>
      <point x="548" y="1154"/>
      <point x="513" y="1087"/>
      <point x="513" y="1005" type="curve" smooth="yes"/>
      <point x="513" y="918"/>
      <point x="563" y="863"/>
      <point x="622" y="863" type="curve" smooth="yes"/>
      <point x="631" y="863"/>
      <point x="640" y="863"/>
      <point x="649" y="867" type="curve"/>
      <point x="652" y="858"/>
      <point x="652" y="857"/>
      <point x="652" y="848" type="curve" smooth="yes"/>
      <point x="652" y="793"/>
      <point x="613" y="757"/>
      <point x="556" y="757" type="curve" smooth="yes"/>
      <point x="480" y="757"/>
      <point x="413" y="828"/>
      <point x="413" y="966" type="curve" smooth="yes"/>
      <point x="413" y="1060"/>
      <point x="470" y="1190"/>
      <point x="679" y="1256" type="curve"/>
    </contour>
  </outline>
</glyph>
<glyph name="quotedblright" format="1">
  <advance width="700"/>
  <unicode hex="201D"/>
  <outline>
    <contour>
      <point x="325" y="833" type="line"/>
      <point x="468" y="890"/>
      <point x="503" y="957"/>
      <point x="503" y="1039" type="curve" smooth="yes"/>
      <point x="503" y="1126"/>
      <point x="453" y="1181"/>
      <point x="394" y="1181" type="curve" smooth="yes"/>
      <point x="385" y="1181"/>
      <point x="376" y="1181"/>
      <point x="367" y="1177" type="curve"/>
      <point x="364" y="1186"/>
      <point x="364" y="1187"/>
      <point x="364" y="1196" type="curve" smooth="yes"/>
      <point x="364" y="1251"/>
      <point x="403" y="1287"/>
      <point x="460" y="1287" type="curve" smooth="yes"/>
      <point x="536" y="1287"/>
      <point x="603" y="1216"/>
      <point x="603" y="1078" type="curve" smooth="yes"/>
      <point x="603" y="984"/>
      <point x="546" y="854"/>
      <point x="337" y="788" type="curve"/>
    </contour>
    <contour>
      <point x="8" y="833" type="line"/>
      <point x="151" y="890"/>
      <point x="186" y="957"/>
      <point x="186" y="1039" type="curve" smooth="yes"/>
      <point x="186" y="1126"/>
      <point x="136" y="1181"/>
      <point x="77" y="1181" type="curve" smooth="yes"/>
      <point x="68" y="1181"/>
      <point x="59" y="1181"/>
      <point x="50" y="1177" type="curve"/>
      <point x="47" y="1186"/>
      <point x="47" y="1187"/>
      <point x="47" y="1196" type="curve" smooth="yes"/>
      <point x="47" y="1251"/>
      <point x="86" y="1287"/>
      <point x="143" y="1287" type="curve" smooth="yes"/>
      <point x="219" y="1287"/>
      <point x="286" y="1216"/>
      <point x="286" y="1078" type="curve" smooth="yes"/>
      <point x="286" y="984"/>
      <point x="229" y="854"/>
      <point x="20" y="788" type="curve"/>
    </contour>
  </outline>
</glyph>
<glyph name="guilsinglleft" format="1">
  <advance width="397"/>
  <unicode hex="2039"/>
  <outline>
    <contour>
      <point x="49" y="469" type="line"/>
      <point x="317" y="822" type="line"/>
      <point x="345" y="786" type="line"/>
      <point x="157" y="462" type="line"/>
      <point x="344" y="116" type="line"/>
      <point x="312" y="78" type="line"/>
      <point x="52" y="449" type="line"/>
    </contour>
  </outline>
</glyph>
<glyph name="guilsinglright" format="1">
  <advance width="398"/>
  <unicode hex="203A"/>
  <outline>
    <contour>
      <point x="377" y="469" type="line"/>
      <point x="109" y="822" type="line"/>
      <point x="81" y="786" type="line"/>
      <point x="269" y="462" type="line"/>
      <point x="82" y="116" type="line"/>
      <point x="114" y="78" type="line"/>
      <point x="374" y="449" type="line"/>
    </contour>
  </outline>
</glyph>
<glyph name="Euro" format="1">
  <advance width="896"/>
  <unicode hex="20AC"/>
  <outline>
    <contour>
      <point x="34" y="318" type="line"/>
      <point x="42" y="385" type="line"/>
      <point x="612" y="385" type="line"/>
      <point x="599" y="318" type="line"/>
    </contour>
    <contour>
      <point x="42" y="469" type="line"/>
      <point x="49" y="534" type="line"/>
      <point x="645" y="534" type="line"/>
      <point x="633" y="469" type="line"/>
    </contour>
    <contour>
      <point x="174" y="426" type="curve" smooth="yes"/>
      <point x="174" y="682"/>
      <point x="311" y="934"/>
      <point x="602" y="934" type="curve" smooth="yes"/>
      <point x="690" y="934"/>
      <point x="762" y="918"/>
      <point x="826" y="874" type="curve"/>
      <point x="795" y="627" type="line"/>
      <point x="748" y="635" type="line"/>
      <point x="738" y="804" type="line"/>
      <point x="709" y="847"/>
      <point x="655" y="878"/>
      <point x="545" y="878" type="curve" smooth="yes"/>
      <point x="416" y="878"/>
      <point x="302" y="744"/>
      <point x="302" y="462" type="curve" smooth="yes"/>
      <point x="302" y="197"/>
      <point x="409" y="44"/>
      <point x="598" y="44" type="curve" smooth="yes"/>
      <point x="714" y="44"/>
      <point x="786" y="92"/>
      <point x="838" y="139" type="curve"/>
      <point x="861" y="102" type="line"/>
      <point x="817" y="50"/>
      <point x="736" y="-26"/>
      <point x="550" y="-26" type="curve" smooth="yes"/>
      <point x="325" y="-26"/>
      <point x="174" y="151"/>
    </contour>
  </outline>
</glyph>
<glyph name="Germandbls.alt" format="1">
  <advance width="1231"/>
  <outline>
    <contour>
      <point x="44" y="0" type="line"/>
      <point x="49" y="42" type="line"/>
      <point x="219" y="72" type="line"/>
      <point x="219" y="763" type="line" smooth="yes"/>
      <point x="219" y="1119"/>
      <point x="388" y="1271"/>
      <point x="687" y="1271" type="curve" smooth="yes"/>
      <point x="853" y="1271"/>
      <point x="1022" y="1253"/>
      <point x="1082" y="1233" type="curve"/>
      <point x="1082" y="1202" type="line"/>
      <point x="735" y="736" type="line"/>
      <point x="873" y="651"/>
      <point x="1183" y="528"/>
      <point x="1183" y="308" type="curve" smooth="yes"/>
      <point x="1183" y="119"/>
      <point x="1028" y="-26"/>
      <point x="780" y="-26" type="curve" smooth="yes"/>
      <point x="636" y="-26"/>
      <point x="516" y="37"/>
      <point x="452" y="116" type="curve"/>
      <point x="481" y="401" type="line"/>
      <point x="530" y="393" type="line"/>
      <point x="556" y="174" type="line"/>
      <point x="601" y="87"/>
      <point x="720" y="37"/>
      <point x="833" y="37" type="curve" smooth="yes"/>
      <point x="957" y="37"/>
      <point x="1074" y="113"/>
      <point x="1074" y="262" type="curve" smooth="yes"/>
      <point x="1074" y="459"/>
      <point x="787" y="576"/>
      <point x="627" y="680" type="curve"/>
      <point x="606" y="721" type="line"/>
      <point x="945" y="1171" type="line"/>
      <point x="945" y="1174" type="line"/>
      <point x="870" y="1203"/>
      <point x="717" y="1221"/>
      <point x="624" y="1221" type="curve" smooth="yes"/>
      <point x="424" y="1221"/>
      <point x="322" y="1043"/>
      <point x="322" y="786" type="curve" smooth="yes"/>
      <point x="322" y="0" type="line"/>
    </contour>
  </outline>
</glyph>
<glyph name="germandbls.alt" format="1">
  <advance width="1031"/>
  <outline>
    <contour>
      <point x="28" y="0" type="line"/>
      <point x="33" y="42" type="line"/>
      <point x="173" y="72" type="line"/>
      <point x="173" y="532" type="line" smooth="yes"/>
      <point x="173" y="814"/>
      <point x="344" y="934"/>
      <point x="621" y="934" type="curve" smooth="yes"/>
      <point x="753" y="934"/>
      <point x="890" y="900"/>
      <point x="936" y="876" type="curve"/>
      <point x="936" y="835" type="line"/>
      <point x="679" y="523" type="line"/>
      <point x="783" y="467"/>
      <point x="999" y="362"/>
      <point x="999" y="215" type="curve" smooth="yes"/>
      <point x="999" y="79"/>
      <point x="862" y="-26"/>
      <point x="642" y="-26" type="curve" smooth="yes"/>
      <point x="550" y="-26"/>
      <point x="460" y="8"/>
      <point x="412" y="49" type="curve"/>
      <point x="441" y="294" type="line"/>
      <point x="490" y="286" type="line"/>
      <point x="506" y="107" type="line"/>
      <point x="537" y="63"/>
      <point x="618" y="37"/>
      <point x="695" y="37" type="curve" smooth="yes"/>
      <point x="795" y="37"/>
      <point x="890" y="82"/>
      <point x="890" y="169" type="curve" smooth="yes"/>
      <point x="890" y="285"/>
      <point x="687" y="385"/>
      <point x="576" y="449" type="curve"/>
      <point x="555" y="490" type="line"/>
      <point x="829" y="821" type="line"/>
      <point x="829" y="824" type="line"/>
      <point x="785" y="849"/>
      <point x="700" y="884"/>
      <point x="568" y="884" type="curve" smooth="yes"/>
      <point x="375" y="884"/>
      <point x="276" y="762"/>
      <point x="276" y="555" type="curve" smooth="yes"/>
      <point x="276" y="0" type="line"/>
    </contour>
  </outline>
</glyph>
